<svg width="32" height="32" viewBox="0 0 32 32" fill="none" xmlns="http://www.w3.org/2000/svg">
<rect width="32" height="32" fill="#124734"/>
<path d="M16 2C8.28 2 2 8.28 2 16C2 23.72 8.28 30 16 30C23.72 30 30 23.72 30 16C30 8.28 23.72 2 16 2ZM16.0104 28.5096C9.1012 28.5096 3.5008 22.9096 3.5008 16C3.5008 9.0904 9.1008 3.4904 16.0104 3.4904C22.92 3.4904 28.52 9.0912 28.52 16C28.52 22.9088 22.92 28.5096 16.0104 28.5096Z" fill="#E5E1E6"/>
<path d="M21.0934 10H18.9102V16H21.1454C22.879 16 24.0898 14.7712 24.0898 13.0112C24.0898 11.24 22.8574 10 21.0934 10ZM20.411 11.426H21.0038C21.9778 11.426 22.5366 12.004 22.5366 13.0112C22.5366 14.0044 21.997 14.574 21.0566 14.574H20.411V11.426Z" fill="#E5E1E6"/>
<path d="M10.1808 10H7.99805V16H10.2332C11.9664 16 13.1772 14.7712 13.1772 13.0112C13.1772 11.24 11.9452 10 10.1808 10ZM9.49845 14.574V11.426H10.0912C11.0656 11.426 11.6244 12.004 11.6244 13.0112C11.6244 14.0044 11.0848 14.574 10.1444 14.574H9.49845Z" fill="#E5E1E6"/>
<path d="M15.5004 18H14V24H18V22.5744H15.5004V18Z" fill="#E5E1E6"/>
</svg>
