<svg width="256" height="256" viewBox="0 0 256 256" fill="none" xmlns="http://www.w3.org/2000/svg">
<rect width="256" height="256" fill="#124734"/>
<path d="M128 23C70.1 23 23 70.1 23 128C23 185.9 70.1 233 128 233C185.9 233 233 185.9 233 128C233 70.1 185.9 23 128 23ZM128.078 221.822C76.259 221.822 34.256 179.822 34.256 128C34.256 76.178 76.256 34.178 128.078 34.178C179.9 34.178 221.9 76.184 221.9 128C221.9 179.816 179.9 221.822 128.078 221.822Z" fill="#E5E1E6"/>
<path d="M166.2 83H149.826V128H166.59C179.592 128 188.673 118.784 188.673 105.584C188.673 92.3 179.43 83 166.2 83ZM161.082 93.695H165.528C172.833 93.695 177.024 98.03 177.024 105.584C177.024 113.033 172.977 117.305 165.924 117.305H161.082V93.695Z" fill="#E5E1E6"/>
<path d="M84.3554 83H67.9844V128H84.7484C97.7474 128 106.828 118.784 106.828 105.584C106.828 92.3 97.5884 83 84.3554 83ZM79.2374 117.305V93.695H83.6834C90.9914 93.695 95.1824 98.03 95.1824 105.584C95.1824 113.033 91.1354 117.305 84.0824 117.305H79.2374Z" fill="#E5E1E6"/>
<path d="M124.253 143H113V188H143V177.308H124.253V143Z" fill="#E5E1E6"/>
</svg>
