<svg width="1400" height="788" viewBox="0 0 1400 788" fill="none" xmlns="http://www.w3.org/2000/svg">
<rect width="1400" height="787.5" fill="#AACFD0"/>
<path d="M374.728 332.026C374.063 332.068 373.425 332.216 372.812 332.478C372.198 332.737 371.646 333.092 371.153 333.543L341.879 360.136C341.582 360.408 341.317 360.712 341.079 361.039C340.845 361.367 340.645 361.718 340.486 362.087C340.324 362.456 340.203 362.839 340.121 363.235C340.038 363.631 340 364.031 340 364.435V399.994C340 400.183 340.01 400.373 340.028 400.563C340.045 400.752 340.076 400.942 340.11 401.128C340.148 401.314 340.193 401.5 340.248 401.683C340.303 401.866 340.369 402.045 340.441 402.221C340.514 402.397 340.596 402.569 340.686 402.738C340.776 402.907 340.872 403.069 340.979 403.227C341.086 403.386 341.2 403.538 341.32 403.686C341.441 403.834 341.569 403.975 341.703 404.11C341.837 404.244 341.979 404.372 342.127 404.493C342.275 404.613 342.427 404.727 342.585 404.834C342.744 404.941 342.906 405.037 343.075 405.127C343.244 405.216 343.416 405.299 343.592 405.372C343.768 405.444 343.947 405.509 344.13 405.565C344.313 405.62 344.495 405.665 344.685 405.703C344.871 405.74 345.061 405.768 345.25 405.785C345.44 405.803 345.629 405.813 345.819 405.813H424.79C424.814 421.733 434.812 433.791 444.671 441.858C454.541 449.932 464.693 454.461 467.399 455.609C468.126 455.916 468.881 456.071 469.671 456.071C470.46 456.071 471.219 455.916 471.943 455.609C474.649 454.465 484.798 449.932 494.671 441.858C504.544 433.784 514.552 421.715 514.552 405.754C514.552 396.054 510.901 387.577 504.006 382.433C503.62 381.982 503.175 381.599 502.672 381.282C502.551 381.216 502.431 381.158 502.31 381.099C502.269 381.078 502.231 381.058 502.189 381.037C502.11 380.996 502.027 380.954 501.948 380.916C501.848 380.872 501.748 380.834 501.645 380.796C496.391 377.8 491.137 377.1 487.583 377.1C480.682 377.1 475.359 380.692 471.825 383.826C470.867 384.677 470.305 385.35 469.585 386.129C468.771 385.222 468.795 384.957 467.523 383.826C463.993 380.689 458.674 377.1 451.766 377.1C449.739 377.1 446.433 377.41 442.796 378.555V374.677C442.796 373.601 441.93 372.739 440.855 372.739H427.279C426.204 372.739 425.338 373.605 425.338 374.677V394.182H384.612V374.677C384.612 373.601 383.746 372.739 382.671 372.739H369.095C368.02 372.739 367.155 373.605 367.155 374.677V394.182H351.638V367.041L375.094 345.716L404.065 372.067C404.206 372.195 404.351 372.319 404.506 372.432C404.658 372.546 404.816 372.653 404.982 372.753C405.144 372.853 405.313 372.943 405.485 373.025C405.658 373.108 405.833 373.181 406.013 373.246C406.192 373.312 406.375 373.367 406.561 373.415C406.747 373.463 406.933 373.501 407.123 373.529C407.312 373.556 407.502 373.577 407.692 373.587C407.881 373.598 408.074 373.598 408.264 373.587C408.453 373.58 408.643 373.56 408.833 373.536C409.022 373.508 409.208 373.474 409.395 373.425C409.581 373.38 409.763 373.325 409.943 373.263C410.122 373.201 410.301 373.129 410.474 373.046C410.646 372.967 410.815 372.877 410.98 372.777C411.146 372.681 411.304 372.574 411.459 372.46C411.615 372.346 411.763 372.226 411.904 372.098C412.046 371.971 412.183 371.836 412.311 371.695C412.439 371.553 412.563 371.409 412.676 371.253C412.79 371.098 412.897 370.943 412.997 370.778C413.097 370.616 413.187 370.447 413.269 370.274C413.352 370.102 413.424 369.926 413.49 369.747C413.555 369.568 413.611 369.385 413.659 369.199C413.707 369.013 413.745 368.827 413.773 368.637C413.8 368.447 413.821 368.258 413.831 368.068C413.842 367.879 413.842 367.686 413.831 367.496C413.824 367.306 413.804 367.117 413.78 366.927C413.752 366.738 413.717 366.551 413.669 366.365C413.624 366.179 413.569 365.996 413.507 365.817C413.445 365.638 413.373 365.462 413.29 365.286C413.211 365.114 413.121 364.945 413.021 364.779C412.925 364.614 412.818 364.455 412.704 364.304C412.59 364.149 412.47 364 412.342 363.859C412.214 363.718 412.08 363.58 411.939 363.452L406.909 358.909V341.1C406.912 340.903 406.909 340.71 406.892 340.514C406.875 340.317 406.85 340.124 406.816 339.931C406.781 339.738 406.737 339.549 406.681 339.362C406.626 339.173 406.564 338.99 406.492 338.807C406.419 338.625 406.337 338.449 406.247 338.276C406.157 338.104 406.058 337.935 405.951 337.773C405.844 337.611 405.727 337.453 405.602 337.301C405.478 337.149 405.347 337.004 405.209 336.866C405.072 336.729 404.927 336.598 404.775 336.473C404.623 336.349 404.465 336.236 404.303 336.125C404.141 336.018 403.972 335.918 403.8 335.829C403.627 335.739 403.448 335.656 403.269 335.584C403.086 335.512 402.903 335.446 402.714 335.394C402.524 335.339 402.334 335.295 402.141 335.26C401.948 335.226 401.755 335.198 401.559 335.184C401.362 335.167 401.169 335.164 400.973 335.167C400.783 335.17 400.594 335.184 400.404 335.208C400.214 335.232 400.028 335.263 399.842 335.305C399.656 335.346 399.473 335.394 399.29 335.457C399.108 335.515 398.932 335.584 398.756 335.66C398.58 335.736 398.411 335.822 398.246 335.915C398.08 336.008 397.918 336.108 397.763 336.218C397.608 336.329 397.456 336.442 397.312 336.567C397.167 336.691 397.029 336.822 396.898 336.96C396.767 337.097 396.643 337.242 396.522 337.39C396.405 337.539 396.295 337.694 396.191 337.856C396.088 338.018 395.995 338.183 395.909 338.352C395.822 338.521 395.743 338.697 395.674 338.873C395.605 339.049 395.543 339.231 395.492 339.414C395.44 339.597 395.398 339.783 395.364 339.969C395.329 340.155 395.305 340.345 395.292 340.534C395.278 340.724 395.271 340.914 395.274 341.107V348.315L378.972 333.533C378.396 333.005 377.738 332.612 377.004 332.347C376.269 332.085 375.511 331.975 374.728 332.016V332.026ZM433.216 332.026C432.55 332.068 431.912 332.216 431.299 332.478C430.685 332.737 430.134 333.092 429.641 333.543L414.124 347.657C413.973 347.781 413.831 347.915 413.693 348.053C413.555 348.194 413.428 348.339 413.304 348.491C413.183 348.643 413.066 348.801 412.963 348.967C412.856 349.132 412.759 349.301 412.669 349.473C412.58 349.649 412.501 349.825 412.428 350.008C412.356 350.19 412.294 350.377 412.242 350.563C412.19 350.752 412.145 350.942 412.114 351.135C412.08 351.328 412.059 351.521 412.046 351.718C412.032 351.914 412.028 352.107 412.035 352.304C412.042 352.5 412.056 352.693 412.083 352.886C412.111 353.079 412.145 353.272 412.19 353.462C412.235 353.651 412.29 353.841 412.356 354.024C412.421 354.21 412.494 354.389 412.576 354.568C412.659 354.744 412.749 354.92 412.849 355.086C412.949 355.251 413.056 355.417 413.173 355.575C413.29 355.734 413.414 355.882 413.545 356.027C413.676 356.171 413.814 356.309 413.962 356.44C414.107 356.571 414.259 356.695 414.417 356.809C414.576 356.926 414.738 357.033 414.907 357.13C415.076 357.23 415.248 357.319 415.427 357.402C415.607 357.485 415.786 357.557 415.972 357.619C416.158 357.681 416.344 357.737 416.537 357.781C416.727 357.826 416.92 357.861 417.113 357.885C417.306 357.909 417.503 357.926 417.699 357.93C417.896 357.936 418.089 357.93 418.285 357.916C418.482 357.902 418.675 357.878 418.868 357.843C419.061 357.809 419.25 357.764 419.44 357.712C419.63 357.661 419.812 357.595 419.995 357.526C420.178 357.457 420.354 357.375 420.529 357.285C420.705 357.195 420.871 357.095 421.036 356.988C421.202 356.882 421.357 356.768 421.512 356.644C421.664 356.52 421.808 356.392 421.95 356.254L433.588 345.712L457.043 367.037V368.733C457.043 368.927 457.047 369.116 457.064 369.309C457.081 369.502 457.105 369.692 457.14 369.881C457.174 370.071 457.219 370.257 457.274 370.443C457.329 370.63 457.392 370.809 457.464 370.988C457.536 371.167 457.616 371.34 457.705 371.512C457.795 371.681 457.891 371.846 457.998 372.008C458.105 372.17 458.215 372.326 458.336 372.474C458.457 372.622 458.584 372.767 458.719 372.905C458.853 373.043 458.995 373.17 459.143 373.294C459.291 373.418 459.443 373.532 459.605 373.639C459.763 373.746 459.929 373.846 460.098 373.939C460.267 374.029 460.439 374.115 460.618 374.187C460.798 374.26 460.977 374.325 461.159 374.384C461.342 374.439 461.528 374.487 461.718 374.525C461.908 374.563 462.097 374.59 462.287 374.611C462.48 374.632 462.669 374.639 462.862 374.639C463.055 374.639 463.245 374.628 463.438 374.611C463.631 374.59 463.821 374.563 464.007 374.525C464.193 374.487 464.383 374.439 464.565 374.384C464.748 374.328 464.931 374.263 465.107 374.187C465.282 374.111 465.458 374.029 465.627 373.939C465.796 373.846 465.962 373.749 466.12 373.639C466.279 373.532 466.434 373.415 466.582 373.294C466.73 373.17 466.872 373.043 467.006 372.905C467.141 372.767 467.268 372.626 467.389 372.474C467.509 372.326 467.623 372.17 467.727 372.008C467.833 371.846 467.93 371.681 468.02 371.512C468.109 371.343 468.189 371.167 468.261 370.988C468.333 370.809 468.395 370.63 468.451 370.443C468.506 370.257 468.547 370.071 468.585 369.881C468.619 369.692 468.647 369.502 468.661 369.309C468.678 369.116 468.685 368.927 468.682 368.733V364.431C468.682 364.024 468.633 363.625 468.547 363.225C468.461 362.828 468.333 362.446 468.168 362.073C468.002 361.704 467.796 361.353 467.558 361.025C467.316 360.698 467.047 360.398 466.744 360.129L465.41 358.919V341.11C465.413 340.917 465.41 340.721 465.393 340.528C465.379 340.334 465.351 340.141 465.317 339.952C465.282 339.762 465.238 339.573 465.186 339.386C465.131 339.2 465.069 339.018 464.996 338.835C464.924 338.656 464.845 338.476 464.755 338.304C464.665 338.132 464.569 337.963 464.462 337.801C464.355 337.639 464.241 337.48 464.117 337.332C463.997 337.18 463.866 337.035 463.728 336.898C463.59 336.76 463.448 336.629 463.297 336.505C463.145 336.38 462.99 336.263 462.831 336.156C462.669 336.049 462.504 335.949 462.332 335.856C462.159 335.763 461.983 335.681 461.804 335.608C461.625 335.536 461.442 335.47 461.256 335.415C461.07 335.36 460.88 335.315 460.691 335.277C460.501 335.239 460.308 335.215 460.115 335.195C459.922 335.177 459.729 335.17 459.532 335.17C459.339 335.17 459.15 335.184 458.96 335.205C458.77 335.226 458.581 335.257 458.391 335.295C458.205 335.332 458.019 335.384 457.836 335.439C457.654 335.498 457.474 335.563 457.298 335.639C457.123 335.715 456.95 335.798 456.781 335.891C456.612 335.984 456.45 336.084 456.292 336.194C456.133 336.305 455.982 336.418 455.837 336.542C455.692 336.667 455.551 336.798 455.416 336.935C455.282 337.073 455.158 337.218 455.037 337.366C454.916 337.515 454.806 337.673 454.703 337.832C454.599 337.994 454.503 338.159 454.417 338.328C454.33 338.501 454.251 338.673 454.179 338.852C454.11 339.031 454.048 339.211 453.996 339.397C453.944 339.583 453.899 339.769 453.868 339.955C453.834 340.145 453.81 340.334 453.796 340.524C453.782 340.714 453.775 340.907 453.779 341.1V348.308L437.535 333.526C436.952 332.992 436.284 332.592 435.539 332.33C434.791 332.068 434.022 331.961 433.233 332.013L433.216 332.026ZM451.762 388.728C454.492 388.728 457.478 390.403 459.822 392.482C462.166 394.564 464.028 397.377 463.517 396.602C464.858 398.656 467.147 399.932 469.64 399.932C472.132 399.932 474.48 398.653 475.821 396.602C475.518 397.067 475.845 396.577 476.004 396.36C476.162 396.143 476.404 395.854 476.731 395.45C477.389 394.647 478.344 393.523 479.52 392.482C481.871 390.396 484.874 388.728 487.58 388.728C489.893 388.728 493.268 389.207 496.246 391.031C496.267 391.051 496.288 391.072 496.308 391.093C496.329 391.093 496.35 391.093 496.37 391.093C496.422 391.124 496.494 391.182 496.553 391.213C500.631 393.861 502.917 398.208 502.917 405.751C502.917 416.799 495.795 425.98 487.342 432.892C480.175 438.752 473.201 442.134 469.705 443.733C466.23 442.141 459.201 438.773 452.007 432.892C443.554 425.976 436.432 416.786 436.432 405.751C436.432 401.514 437.28 398.212 438.614 395.757C442.141 389.283 448.901 388.731 451.766 388.731L451.762 388.728Z" fill="white"/>
<path d="M578.31 413.624C582.664 415.372 586.649 416.244 590.268 416.244C594.071 416.244 597.091 415.51 599.328 414.038C601.565 412.566 602.686 410.822 602.686 408.798C602.686 407.144 602.027 405.796 600.707 404.751C599.39 403.71 597.718 402.927 595.694 402.407C593.671 401.886 591.003 401.318 587.69 400.707C583.274 399.973 579.227 399.022 575.548 397.856C571.87 396.691 568.526 394.668 565.52 391.789C562.514 388.911 561.011 385.015 561.011 380.113C561.011 372.881 563.662 367.686 568.967 364.528C574.273 361.37 580.513 359.791 587.686 359.791C593.206 359.791 598.004 360.543 602.082 362.042C606.161 363.542 610.225 365.796 614.272 368.799L606.178 379.834C603.172 377.69 600.045 376.004 596.794 374.777C593.543 373.549 590.324 372.939 587.135 372.939C584.315 372.939 581.678 373.446 579.223 374.456C576.769 375.466 575.545 377.169 575.545 379.558C575.545 381.03 576.172 382.209 577.431 383.098C578.689 383.988 580.068 384.633 581.571 385.029C583.074 385.429 585.511 385.994 588.883 386.729L592.195 387.373C597.287 388.352 601.503 389.442 604.844 390.638C608.188 391.834 611.083 393.84 613.538 396.66C615.992 399.48 617.216 403.403 617.216 408.429C617.216 415.234 614.81 420.412 609.994 423.966C605.182 427.521 598.663 429.299 590.448 429.299C578.427 429.299 568.309 425.804 560.091 418.816L567.816 407.692C570.453 409.898 573.949 411.877 578.303 413.621L578.31 413.624ZM642.795 424.611C637.276 421.484 632.891 417.241 629.64 411.877C626.389 406.513 624.766 400.676 624.766 394.361C624.766 388.045 626.389 382.302 629.64 376.938C632.891 371.574 637.276 367.33 642.795 364.204C648.314 361.077 654.354 359.515 660.918 359.515C667.481 359.515 673.552 361.077 679.133 364.204C684.715 367.33 689.131 371.574 692.381 376.938C695.632 382.302 697.256 388.111 697.256 394.361C697.256 400.673 695.632 406.513 692.381 411.877C689.131 417.241 684.715 421.484 679.133 424.611C673.552 427.738 667.481 429.299 660.918 429.299C654.354 429.299 648.314 427.738 642.795 424.611ZM650.062 375.742C646.749 377.734 644.112 380.385 642.151 383.695C640.189 387.004 639.207 390.558 639.207 394.361C639.207 398.163 640.189 401.731 642.151 405.072C644.112 408.412 646.749 411.094 650.062 413.118C653.375 415.141 656.991 416.151 660.918 416.151C664.844 416.151 668.478 415.141 671.818 413.118C675.162 411.094 677.796 408.412 679.73 405.072C681.66 401.731 682.629 398.16 682.629 394.361C682.629 390.562 681.664 387.004 679.73 383.695C677.799 380.385 675.162 377.734 671.818 375.742C668.474 373.749 664.841 372.753 660.918 372.753C656.991 372.753 653.375 373.749 650.062 375.742ZM709.118 428.014V360.801H739.013C743.798 360.801 748.028 361.78 751.706 363.742C755.385 365.703 758.239 368.461 760.263 372.015C762.286 375.57 763.3 379.617 763.3 384.153C763.3 388.997 762.072 393.316 759.621 397.119C757.167 400.918 753.826 403.707 749.593 405.485C753.947 411.001 759.742 418.509 766.978 428.01H749.593C745.667 423.108 740.303 416.12 733.494 407.047H723.559V428.01H709.118V428.014ZM739.013 394.454C741.526 394.454 743.798 393.551 745.822 391.741C747.845 389.931 748.859 387.404 748.859 384.157C748.859 381.52 748.152 379.069 746.742 376.8C745.332 374.532 742.757 373.398 739.017 373.398H723.562V394.454H739.017H739.013ZM803.223 373.398V428.014H788.596V373.398H769.002V360.801H822.725V373.398H803.223Z" fill="white"/>
<path d="M848.631 413.807C852.934 415.534 856.874 416.396 860.449 416.396C864.206 416.396 867.192 415.669 869.405 414.214C871.618 412.759 872.725 411.032 872.725 409.036C872.725 407.402 872.073 406.068 870.77 405.037C869.467 404.006 867.816 403.234 865.816 402.721C863.817 402.207 861.179 401.645 857.908 401.038C853.544 400.311 849.545 399.373 845.908 398.222C842.271 397.07 838.968 395.071 835.997 392.224C833.029 389.376 831.543 385.529 831.543 380.682C831.543 373.532 834.163 368.399 839.406 365.279C844.65 362.159 850.817 360.601 857.908 360.601C863.362 360.601 868.105 361.342 872.135 362.828C876.165 364.314 880.181 366.538 884.18 369.506L876.179 380.41C873.211 378.289 870.118 376.624 866.905 375.411C863.693 374.201 860.511 373.594 857.36 373.594C854.571 373.594 851.965 374.094 849.541 375.094C847.118 376.094 845.904 377.776 845.904 380.137C845.904 381.592 846.525 382.757 847.769 383.636C849.01 384.515 850.376 385.15 851.861 385.546C853.347 385.939 855.757 386.501 859.09 387.228L862.362 387.866C867.392 388.835 871.559 389.91 874.862 391.093C878.164 392.275 881.029 394.257 883.453 397.046C885.876 399.832 887.09 403.71 887.09 408.678C887.09 415.403 884.711 420.519 879.954 424.035C875.196 427.548 868.757 429.306 860.635 429.306C848.755 429.306 838.755 425.852 830.633 418.947L838.269 407.954C840.875 410.136 844.329 412.087 848.631 413.814V413.807ZM922.814 374.053V428.027H908.359V374.053H888.996V361.604H942.088V374.053H922.814ZM969.087 359.515L1005.54 428.031H989.816L984.542 417.854H953.54L948.448 428.031H932.629L969.084 359.515H969.087ZM977.633 405.585L969.087 388.228L960.631 405.585H977.633ZM1033.64 402.859V428.027H1019.27V402.859L993.088 361.694H1009.91L1026.45 388.5L1043.18 361.694H1060L1033.64 402.859Z" fill="white"/>
</svg>
