<svg width="1920" height="998" viewBox="0 0 1920 998" fill="none" xmlns="http://www.w3.org/2000/svg">
<g clip-path="url(#clip0_1289_7224)">
<rect width="1920" height="998" fill="#0D101C"/>
<g clip-path="url(#clip1_1289_7224)">
<path d="M1676.69 61.9631C1912.21 61.9631 2104.75 254.494 2104.75 490.023L2272.39 490.023L2272.38 490.023C2272.38 172.659 2012.72 -87.0001 1695.36 -87L959.696 -87L959.696 61.9632L1676.69 61.9631V61.9631Z" fill="#0D101C" stroke="#131B3C"/>
<path d="M-185.354 490.024C-185.354 254.494 7.17741 61.9631 242.707 61.9631L959.696 61.963L959.696 -87.0001L224.037 -87C-93.3283 -87 -352.987 172.659 -352.987 490.024L-185.34 490.024L-185.354 490.024Z" fill="#0D101C" stroke="#131B3C"/>
<path d="M224.037 1067.05L959.696 1067.05L959.696 918.084L242.707 918.084C7.17752 918.084 -185.354 725.553 -185.354 490.023L-353 490.023C-352.987 807.388 -93.3281 1067.05 224.037 1067.05Z" fill="#0D101C" stroke="#131B3C"/>
<path d="M-17.7071 490.026C-17.7071 336.332 107.683 210.942 261.377 210.942L959.696 210.942L959.696 61.9787L242.707 61.9788C7.1775 61.9788 -185.354 254.51 -185.354 490.039L-17.7071 490.039L-17.7071 490.026Z" fill="#0D101C" stroke="#131B3C"/>
<path d="M2104.73 490.022L1937.09 490.022C1937.09 643.715 1811.7 769.106 1658 769.106L959.695 769.106L959.695 918.082L1676.68 918.082C1912.21 918.082 2104.75 725.551 2104.75 490.022L2104.73 490.022Z" fill="#0D101C" stroke="#131B3C"/>
<path d="M280.06 620.14C208.202 620.14 149.939 561.891 149.939 490.02L-17.7072 490.02C-17.7072 643.713 107.683 769.104 261.377 769.104L959.696 769.104L959.696 620.14L280.06 620.14Z" fill="#0D101C" stroke="#131B3C"/>
<path d="M1937.1 490.023C1937.1 336.33 1811.71 210.939 1658.01 210.939L959.693 210.94L959.693 359.903L1639.33 359.903C1711.19 359.903 1769.45 418.152 1769.45 490.023L1937.1 490.023V490.023Z" fill="#0D101C" stroke="#131B3C"/>
<path d="M959.697 620.147L1639.33 620.146C1711.19 620.146 1769.45 561.897 1769.45 490.026L959.697 490.026L959.697 620.147Z" fill="#0D101C" stroke="#131B3C"/>
<path d="M149.939 490.026C149.939 561.884 208.189 620.147 280.06 620.147L959.696 620.146L959.696 490.026L149.939 490.026Z" fill="#0D101C" stroke="#131B3C"/>
<path d="M149.939 490.024L959.696 490.023L959.696 359.903L280.06 359.903C208.202 359.903 149.939 418.152 149.939 490.024V490.024Z" fill="#0D101C" stroke="#131B3C"/>
<path d="M1769.45 490.023C1769.45 418.165 1711.2 359.903 1639.33 359.903L959.697 359.903L959.697 490.024L1769.45 490.023V490.023Z" fill="#0D101C" stroke="#131B3C"/>
<path d="M-185.354 490.024C-185.354 254.494 7.17741 61.9631 242.707 61.9631L959.696 61.963L959.696 -87.0001L224.037 -87C-93.3283 -87 -352.987 172.659 -352.987 490.024L-185.34 490.024L-185.354 490.024Z" fill="#0D101C" stroke="#131B3C"/>
<path d="M261.377 769.106C107.683 769.106 -17.7071 643.715 -17.7071 490.022L-185.354 490.022C-185.354 725.551 7.17754 918.082 242.707 918.082L959.696 918.082L959.696 769.119L261.377 769.119L261.377 769.106Z" fill="#0D101C" stroke="#131B3C"/>
<path d="M1639.33 620.14L959.698 620.14L959.698 769.104L1658 769.104C1811.7 769.104 1937.09 643.713 1937.09 490.02L1769.44 490.02C1769.44 561.878 1711.19 620.14 1639.32 620.14L1639.33 620.14Z" fill="#0D101C" stroke="url(#paint0_linear_1289_7224)"/>
<path d="M1676.68 918.084L959.695 918.084L959.695 1067.05L1695.35 1067.05C2012.72 1067.05 2272.38 807.388 2272.38 490.023L2104.73 490.023C2104.73 725.553 1912.2 918.084 1676.67 918.084L1676.68 918.084Z" fill="#0D101C" stroke="#131B3C"/>
<path d="M1658 210.94C1811.7 210.939 1937.09 336.33 1937.09 490.023L2104.73 490.023C2104.73 254.494 1912.2 61.9631 1676.67 61.9631L959.698 61.9632L959.698 210.926L1658 210.926L1658 210.94Z" fill="#0D101C" stroke="url(#paint1_linear_1289_7224)"/>
<path d="M149.939 490.024C149.939 418.166 208.189 359.903 280.06 359.903L959.696 359.903L959.696 210.939L261.377 210.94C107.683 210.94 -17.7072 336.33 -17.7072 490.024L149.939 490.024Z" fill="#0D101C" stroke="url(#paint2_linear_1289_7224)"/>
<path d="M761.65 637.958H747.404L765.527 604.738H779.772L761.65 637.958Z" fill="white"/>
<path d="M757.765 670.327H743.145L761.731 637.959H776.364L757.765 670.327Z" fill="white"/>
<path d="M735.565 670.326H721L737.099 604.738H751.664L735.565 670.326Z" fill="white"/>
<path d="M786.672 670.326H772.106L788.193 604.738H802.771L786.672 670.326Z" fill="white"/>
<path d="M838.547 621.77H845.808V635.401H860.246V621.77H867.508V656.693H860.246V641.872H845.808V656.693H838.547V621.77Z" fill="white"/>
<path d="M884.543 621.77H891.357V656.693H884.543V621.77Z" fill="white"/>
<path d="M909.242 621.77H916.369V650.222H935.648V656.693H909.301L909.242 621.77Z" fill="white"/>
<path d="M951.008 621.77H958.385V650.222H978.241V656.693H950.983L951.008 621.77Z" fill="white"/>
<path d="M992.719 652.078L995.35 646.446C998.477 648.92 1002.35 650.229 1006.32 650.153C1009.1 650.153 1012.5 648.844 1012.5 646.192C1012.5 643.539 1009.51 642.897 1006.52 642.171C1000.29 640.717 993.843 638.537 993.843 631.536C993.843 625.008 999.823 621.774 1006.26 621.774C1010.6 621.682 1014.87 622.951 1018.47 625.408L1015.84 631.04C1012.97 629.236 1009.65 628.295 1006.27 628.327C1004.52 628.327 1001.22 629.005 1001.22 631.561C1001.22 633.753 1003.61 634.528 1006.94 635.316C1012.86 636.72 1019.98 638.949 1019.98 646.216C1019.98 653.483 1012.97 656.693 1006.27 656.693C998.34 656.669 994.561 653.592 992.719 652.078Z" fill="white"/>
<path d="M1036.16 621.77H1050.77C1060.74 621.77 1065.97 627.803 1065.97 635.238C1065.97 642.673 1060.74 648.719 1050.72 648.719H1043.54V656.693H1036.23L1036.16 621.77ZM1051.05 642.248C1051.98 642.306 1052.91 642.168 1053.78 641.841C1054.65 641.514 1055.45 641.007 1056.12 640.349C1056.8 639.692 1057.33 638.899 1057.69 638.019C1058.06 637.14 1058.24 636.193 1058.23 635.238C1058.24 634.288 1058.06 633.345 1057.71 632.468C1057.35 631.592 1056.82 630.8 1056.15 630.143C1055.48 629.486 1054.69 628.976 1053.82 628.647C1052.96 628.318 1052.03 628.175 1051.11 628.229H1043.5V642.248H1051.05Z" fill="white"/>
<path d="M1082.15 621.77H1108.72V628.229H1089.46V635.351H1107.71V641.76H1089.46V650.222H1109.41V656.693H1082.15V621.77Z" fill="white"/>
<path d="M1123.9 621.77H1150.42V628.229H1131.22V635.351H1149.45V641.76H1131.22V650.222H1151.15V656.693H1123.9V621.77Z" fill="white"/>
<path d="M1166.48 621.77H1179.98C1191.04 621.77 1198 629.667 1198 639.2C1198 648.734 1191.04 656.693 1179.98 656.693H1166.48V621.77ZM1179.67 650.171C1181.08 650.249 1182.5 650.019 1183.82 649.497C1185.15 648.975 1186.35 648.171 1187.36 647.138C1188.37 646.105 1189.16 644.865 1189.67 643.498C1190.19 642.131 1190.43 640.667 1190.37 639.2C1190.42 637.733 1190.18 636.271 1189.67 634.905C1189.15 633.539 1188.36 632.3 1187.35 631.266C1186.35 630.233 1185.14 629.428 1183.82 628.903C1182.5 628.378 1181.08 628.145 1179.67 628.217H1173.75V650.171H1179.67Z" fill="white"/>
</g>
<path d="M411.44 512.8C402.2 512.8 393.74 510.82 386.06 506.86C378.38 502.78 372.26 496.84 367.7 489.04C363.14 481.12 360.86 471.64 360.86 460.6C360.86 451.12 362.24 442.18 365 433.78C367.76 425.38 371.72 417.94 376.88 411.46C382.04 404.98 388.46 399.88 396.14 396.16C403.94 392.32 412.82 390.4 422.78 390.4C432.02 390.4 440.36 392.44 447.8 396.52C455.36 400.6 461.36 406.54 465.8 414.34C470.36 422.02 472.64 431.44 472.64 442.6C472.64 451.96 471.32 460.9 468.68 469.42C466.04 477.82 462.08 485.26 456.8 491.74C451.64 498.22 445.22 503.38 437.54 507.22C429.98 510.94 421.28 512.8 411.44 512.8ZM412.88 495.88C419.48 495.88 425.24 494.38 430.16 491.38C435.2 488.26 439.4 484.18 442.76 479.14C446.12 473.98 448.64 468.22 450.32 461.86C452 455.5 452.84 449.08 452.84 442.6C452.84 435.16 451.52 428.8 448.88 423.52C446.24 418.24 442.52 414.22 437.72 411.46C433.04 408.7 427.52 407.32 421.16 407.32C414.56 407.32 408.74 408.88 403.7 412C398.66 415 394.4 419.08 390.92 424.24C387.56 429.28 385.04 434.98 383.36 441.34C381.68 447.58 380.84 454 380.84 460.6C380.84 468.04 382.16 474.4 384.8 479.68C387.44 484.96 391.16 488.98 395.96 491.74C400.76 494.5 406.4 495.88 412.88 495.88ZM490.72 511L482.44 421H501.16L506.02 490.84L542.02 421H561.1L568.66 491.74L604.66 421H625.18L576.4 511H555.34L547.24 444.4L512.14 511H490.72ZM613.331 511L634.211 421H651.131L647.351 443.68L645.551 442.42C648.071 434.74 652.511 428.98 658.871 425.14C665.231 421.18 672.251 419.2 679.931 419.2C686.651 419.2 692.351 420.7 697.031 423.7C701.711 426.58 705.011 430.78 706.931 436.3C708.851 441.7 708.911 448.3 707.111 456.1L694.331 511H675.071L687.671 457C689.231 450.16 688.571 444.82 685.691 440.98C682.811 437.02 678.251 435.04 672.011 435.04C667.211 435.04 662.891 436.12 659.051 438.28C655.331 440.44 652.211 443.62 649.691 447.82C647.171 451.9 645.131 457.06 643.571 463.3L632.591 511H613.331ZM874.766 392.2L870.806 408.76H831.206L807.626 511H788.186L811.766 408.76H771.626L775.586 392.2H874.766ZM855.101 511L885.341 380.5H904.601L890.921 439.72L888.041 441.88C889.601 437.08 892.061 433 895.421 429.64C898.781 426.28 902.681 423.7 907.121 421.9C911.681 420.1 916.601 419.2 921.881 419.2C928.361 419.2 933.941 420.7 938.621 423.7C943.301 426.58 946.601 430.72 948.521 436.12C950.561 441.52 950.741 448.06 949.061 455.74L936.101 511H916.841L929.441 457C931.001 450.16 930.341 444.82 927.461 440.98C924.581 437.02 920.021 435.04 913.781 435.04C908.981 435.04 904.661 436.12 900.821 438.28C897.101 440.44 893.981 443.62 891.461 447.82C888.941 451.9 886.901 457.06 885.341 463.3L874.361 511H855.101ZM999.935 512.62C991.415 512.62 984.095 510.88 977.975 507.4C971.855 503.8 967.115 498.94 963.755 492.82C960.395 486.7 958.715 479.8 958.715 472.12C958.715 462.52 960.635 453.76 964.475 445.84C968.315 437.8 973.895 431.38 981.215 426.58C988.535 421.78 997.355 419.38 1007.67 419.38C1015.35 419.38 1021.95 420.94 1027.47 424.06C1032.99 427.18 1037.19 431.56 1040.07 437.2C1042.95 442.72 1044.39 449.2 1044.39 456.64C1044.39 459.04 1044.21 461.5 1043.85 464.02C1043.61 466.54 1043.07 469.06 1042.23 471.58H969.695V456.82H1031.79L1024.77 461.86C1025.25 460.42 1025.55 459.04 1025.67 457.72C1025.79 456.28 1025.85 454.96 1025.85 453.76C1025.85 449.8 1025.07 446.38 1023.51 443.5C1022.07 440.62 1019.91 438.4 1017.03 436.84C1014.15 435.28 1010.73 434.5 1006.77 434.5C1001.37 434.5 996.755 435.64 992.915 437.92C989.195 440.08 986.195 443.08 983.915 446.92C981.635 450.64 980.015 454.78 979.055 459.34C978.095 463.9 977.615 468.4 977.615 472.84C977.615 477.88 978.575 482.26 980.495 485.98C982.535 489.58 985.295 492.4 988.775 494.44C992.375 496.48 996.575 497.5 1001.37 497.5C1007.01 497.5 1011.57 496.3 1015.05 493.9C1018.65 491.5 1021.53 488.44 1023.69 484.72L1039.17 493C1036.77 497.08 1033.59 500.62 1029.63 503.62C1025.79 506.5 1021.35 508.72 1016.31 510.28C1011.39 511.84 1005.93 512.62 999.935 512.62ZM1153.92 512.44C1145.4 512.44 1137.54 510.46 1130.34 506.5C1123.26 502.42 1117.56 496.54 1113.24 488.86C1109.04 481.18 1106.94 472 1106.94 461.32C1106.94 452.08 1108.32 443.2 1111.08 434.68C1113.84 426.16 1117.86 418.6 1123.14 412C1128.54 405.28 1135.14 400 1142.94 396.16C1150.74 392.32 1159.74 390.4 1169.94 390.4C1177.62 390.4 1184.64 391.54 1191 393.82C1197.48 396.1 1203 399.7 1207.56 404.62C1212.12 409.42 1215.36 415.84 1217.28 423.88L1198.38 429.1C1196.58 421.3 1193.16 415.66 1188.12 412.18C1183.08 408.7 1176.78 406.96 1169.22 406.96C1162.38 406.96 1156.32 408.46 1151.04 411.46C1145.88 414.34 1141.5 418.3 1137.9 423.34C1134.3 428.26 1131.54 433.9 1129.62 440.26C1127.82 446.5 1126.92 452.92 1126.92 459.52C1126.92 467.08 1128.18 473.62 1130.7 479.14C1133.34 484.54 1137 488.68 1141.68 491.56C1146.48 494.44 1152.18 495.88 1158.78 495.88C1164.9 495.88 1170.18 494.86 1174.62 492.82C1179.06 490.66 1182.66 487.78 1185.42 484.18C1188.3 480.46 1190.4 476.14 1191.72 471.22L1192.98 466.18H1158.42L1162.02 450.7H1212.78L1197.84 511H1183.8L1189.02 485.98L1191 488.32C1188.72 493.48 1185.84 497.86 1182.36 501.46C1179 505.06 1174.92 507.82 1170.12 509.74C1165.44 511.54 1160.04 512.44 1153.92 512.44ZM1254.54 512.44C1247.94 512.44 1242.06 510.88 1236.9 507.76C1231.74 504.52 1227.72 500.02 1224.84 494.26C1221.96 488.5 1220.52 481.72 1220.52 473.92C1220.52 466.6 1221.6 459.64 1223.76 453.04C1226.04 446.44 1229.16 440.62 1233.12 435.58C1237.2 430.42 1242 426.4 1247.52 423.52C1253.16 420.64 1259.28 419.2 1265.88 419.2C1270.8 419.2 1275.24 420.04 1279.2 421.72C1283.28 423.4 1286.7 425.86 1289.46 429.1C1292.22 432.34 1294.08 436.3 1295.04 440.98L1299.72 421H1318.98L1298.1 511H1281L1284.06 494.26C1281.06 499.78 1276.92 504.22 1271.64 507.58C1266.48 510.82 1260.78 512.44 1254.54 512.44ZM1261.2 497.14C1265.04 497.14 1268.64 496.12 1272 494.08C1275.48 492.04 1278.48 489.22 1281 485.62C1283.64 482.02 1285.68 477.88 1287.12 473.2C1288.68 468.4 1289.46 463.42 1289.46 458.26C1289.46 453.46 1288.56 449.32 1286.76 445.84C1285.08 442.24 1282.68 439.48 1279.56 437.56C1276.56 435.64 1272.96 434.68 1268.76 434.68C1264.32 434.68 1260.3 435.7 1256.7 437.74C1253.22 439.78 1250.16 442.6 1247.52 446.2C1245 449.68 1243.02 453.76 1241.58 458.44C1240.14 463 1239.42 467.8 1239.42 472.84C1239.42 478 1240.26 482.38 1241.94 485.98C1243.62 489.58 1246.08 492.34 1249.32 494.26C1252.56 496.18 1256.52 497.14 1261.2 497.14ZM1317.93 511L1338.81 421H1355.73L1351.95 443.68L1350.15 442.42C1352.67 434.74 1357.05 428.98 1363.29 425.14C1369.53 421.18 1376.49 419.2 1384.17 419.2C1390.53 419.2 1395.99 420.7 1400.55 423.7C1405.11 426.58 1408.29 430.78 1410.09 436.3C1412.01 441.82 1412.01 448.48 1410.09 456.28L1397.31 511H1378.05L1390.65 457.36C1392.33 450.4 1391.79 444.94 1389.03 440.98C1386.39 437.02 1382.13 435.04 1376.25 435.04C1371.45 435.04 1367.19 436.12 1363.47 438.28C1359.75 440.44 1356.63 443.62 1354.11 447.82C1351.71 451.9 1349.73 457.06 1348.17 463.3L1337.19 511H1317.93ZM1438.35 511L1450.77 457.36C1452.33 450.4 1451.79 444.94 1449.15 440.98C1446.51 437.02 1442.31 435.04 1436.55 435.04C1431.63 435.04 1427.31 436.12 1423.59 438.28C1419.99 440.44 1416.93 443.62 1414.41 447.82C1411.89 451.9 1409.91 457.06 1408.47 463.3L1406.67 445.84C1409.91 436.96 1414.89 430.3 1421.61 425.86C1428.45 421.42 1436.01 419.2 1444.29 419.2C1450.65 419.2 1456.11 420.7 1460.67 423.7C1465.23 426.58 1468.41 430.78 1470.21 436.3C1472.13 441.82 1472.19 448.48 1470.39 456.28L1457.61 511H1438.35ZM1522.36 512.62C1513.84 512.62 1506.52 510.88 1500.4 507.4C1494.28 503.8 1489.54 498.94 1486.18 492.82C1482.82 486.7 1481.14 479.8 1481.14 472.12C1481.14 462.52 1483.06 453.76 1486.9 445.84C1490.74 437.8 1496.32 431.38 1503.64 426.58C1510.96 421.78 1519.78 419.38 1530.1 419.38C1537.78 419.38 1544.38 420.94 1549.9 424.06C1555.42 427.18 1559.62 431.56 1562.5 437.2C1565.38 442.72 1566.82 449.2 1566.82 456.64C1566.82 459.04 1566.64 461.5 1566.28 464.02C1566.04 466.54 1565.5 469.06 1564.66 471.58H1492.12V456.82H1554.22L1547.2 461.86C1547.68 460.42 1547.98 459.04 1548.1 457.72C1548.22 456.28 1548.28 454.96 1548.28 453.76C1548.28 449.8 1547.5 446.38 1545.94 443.5C1544.5 440.62 1542.34 438.4 1539.46 436.84C1536.58 435.28 1533.16 434.5 1529.2 434.5C1523.8 434.5 1519.18 435.64 1515.34 437.92C1511.62 440.08 1508.62 443.08 1506.34 446.92C1504.06 450.64 1502.44 454.78 1501.48 459.34C1500.52 463.9 1500.04 468.4 1500.04 472.84C1500.04 477.88 1501 482.26 1502.92 485.98C1504.96 489.58 1507.72 492.4 1511.2 494.44C1514.8 496.48 1519 497.5 1523.8 497.5C1529.44 497.5 1534 496.3 1537.48 493.9C1541.08 491.5 1543.96 488.44 1546.12 484.72L1561.6 493C1559.2 497.08 1556.02 500.62 1552.06 503.62C1548.22 506.5 1543.78 508.72 1538.74 510.28C1533.82 511.84 1528.36 512.62 1522.36 512.62ZM1582.86 512.62C1579.26 512.62 1576.32 511.66 1574.04 509.74C1571.76 507.7 1570.62 504.94 1570.62 501.46C1570.62 496.9 1571.94 493.3 1574.58 490.66C1577.34 488.02 1580.76 486.7 1584.84 486.7C1588.44 486.7 1591.38 487.72 1593.66 489.76C1595.94 491.68 1597.08 494.38 1597.08 497.86C1597.08 502.42 1595.76 506.02 1593.12 508.66C1590.48 511.3 1587.06 512.62 1582.86 512.62Z" fill="#DADCE4"/>
<rect width="1924" height="80" transform="translate(-4 918)" fill="#0D101C"/>
<line x1="-4" y1="917.5" x2="1920" y2="917.5" stroke="#131B3C"/>
<path d="M411 950.25C406.719 950.25 403.25 953.75 403.25 958C403.25 962.281 406.719 965.75 411 965.75C415.25 965.75 418.75 962.281 418.75 958C418.75 953.75 415.25 950.25 411 950.25ZM411 964.25C407.531 964.25 404.75 961.469 404.75 958C404.75 954.562 407.531 951.75 411 951.75C414.438 951.75 417.25 954.562 417.25 958C417.25 961.469 414.438 964.25 411 964.25ZM414.344 961.094C414.406 961.031 414.438 960.938 414.438 960.844C414.438 960.75 414.406 960.688 414.375 960.625L413.75 959.781C413.625 959.594 413.375 959.562 413.188 959.719C412.906 959.969 412.156 960.562 411.156 960.562C409.531 960.562 408.688 959.25 408.688 957.969C408.688 956.562 409.625 955.438 411.125 955.438C412.062 955.438 412.781 955.938 413.062 956.156C413.219 956.281 413.5 956.25 413.594 956.062L414.188 955.188C414.219 955.125 414.25 955.062 414.25 954.969C414.25 954.875 414.188 954.781 414.125 954.719C413.844 954.438 412.812 953.625 411.062 953.625C408.594 953.625 406.688 955.5 406.688 957.969C406.688 960.469 408.5 962.406 411.094 962.406C412.906 962.406 414.031 961.406 414.344 961.094Z" fill="#535E88"/>
<path d="M441.366 953.26V962.5H438.958V953.26H441.366ZM435.43 953.26V962.5H433.022V953.26H435.43ZM440.246 956.914V958.776H434.198V956.914H440.246ZM444.435 954.688C443.949 954.688 443.595 954.599 443.371 954.422C443.156 954.235 443.049 953.946 443.049 953.554C443.049 953.153 443.156 952.863 443.371 952.686C443.595 952.499 443.949 952.406 444.435 952.406C444.911 952.406 445.261 952.499 445.485 952.686C445.709 952.863 445.821 953.153 445.821 953.554C445.821 953.946 445.709 954.235 445.485 954.422C445.261 954.599 444.911 954.688 444.435 954.688ZM445.625 955.5V962.5H443.245V955.5H445.625ZM449.671 952.532V960.12C449.671 960.428 449.722 960.647 449.825 960.778C449.928 960.909 450.1 960.974 450.343 960.974C450.483 960.974 450.6 960.965 450.693 960.946C450.786 960.927 450.898 960.899 451.029 960.862L450.875 962.29C450.707 962.393 450.488 962.477 450.217 962.542C449.946 962.607 449.68 962.64 449.419 962.64C448.672 962.64 448.131 962.467 447.795 962.122C447.459 961.777 447.291 961.212 447.291 960.428V952.532H449.671ZM454.251 952.532V960.12C454.251 960.428 454.302 960.647 454.405 960.778C454.508 960.909 454.68 960.974 454.923 960.974C455.063 960.974 455.18 960.965 455.273 960.946C455.366 960.927 455.478 960.899 455.609 960.862L455.455 962.29C455.287 962.393 455.068 962.477 454.797 962.542C454.526 962.607 454.26 962.64 453.999 962.64C453.252 962.64 452.711 962.467 452.375 962.122C452.039 961.777 451.871 961.212 451.871 960.428V952.532H454.251ZM459.419 962.64C458.719 962.64 458.066 962.528 457.459 962.304C456.862 962.071 456.367 961.739 455.975 961.31L457.095 959.994C457.328 960.293 457.636 960.545 458.019 960.75C458.411 960.946 458.845 961.044 459.321 961.044C459.61 961.044 459.848 961.002 460.035 960.918C460.222 960.834 460.315 960.703 460.315 960.526C460.315 960.395 460.268 960.293 460.175 960.218C460.082 960.134 459.895 960.064 459.615 960.008L458.635 959.812C457.758 959.635 457.132 959.373 456.759 959.028C456.395 958.673 456.213 958.211 456.213 957.642C456.213 957.259 456.33 956.895 456.563 956.55C456.796 956.195 457.156 955.911 457.641 955.696C458.126 955.472 458.747 955.36 459.503 955.36C460.212 955.36 460.838 955.463 461.379 955.668C461.92 955.873 462.35 956.172 462.667 956.564L461.533 957.852C461.309 957.572 461.02 957.353 460.665 957.194C460.31 957.035 459.956 956.956 459.601 956.956C459.377 956.956 459.186 956.979 459.027 957.026C458.878 957.063 458.766 957.119 458.691 957.194C458.616 957.269 458.579 957.362 458.579 957.474C458.579 957.595 458.635 957.703 458.747 957.796C458.868 957.88 459.088 957.955 459.405 958.02L460.679 958.272C461.398 958.403 461.916 958.641 462.233 958.986C462.55 959.331 462.709 959.747 462.709 960.232C462.709 960.689 462.588 961.1 462.345 961.464C462.102 961.828 461.738 962.117 461.253 962.332C460.768 962.537 460.156 962.64 459.419 962.64ZM463.944 965.44V955.5H466.086L466.212 958.034L465.932 957.74C465.997 957.273 466.142 956.863 466.366 956.508C466.59 956.153 466.879 955.873 467.234 955.668C467.589 955.463 467.995 955.36 468.452 955.36C469.031 955.36 469.535 955.505 469.964 955.794C470.393 956.074 470.725 956.485 470.958 957.026C471.201 957.558 471.322 958.207 471.322 958.972C471.322 959.737 471.201 960.395 470.958 960.946C470.715 961.497 470.375 961.917 469.936 962.206C469.507 962.495 469.003 962.64 468.424 962.64C467.789 962.64 467.276 962.453 466.884 962.08C466.492 961.697 466.231 961.217 466.1 960.638L466.324 960.302V965.44H463.944ZM467.612 960.89C468.023 960.89 468.345 960.741 468.578 960.442C468.811 960.134 468.928 959.653 468.928 959C468.928 958.347 468.811 957.871 468.578 957.572C468.354 957.264 468.037 957.11 467.626 957.11C467.365 957.11 467.136 957.185 466.94 957.334C466.744 957.474 466.59 957.684 466.478 957.964C466.375 958.244 466.324 958.589 466.324 959C466.324 959.392 466.371 959.733 466.464 960.022C466.567 960.302 466.716 960.517 466.912 960.666C467.108 960.815 467.341 960.89 467.612 960.89ZM476.137 962.64C475.363 962.64 474.691 962.495 474.121 962.206C473.561 961.917 473.127 961.501 472.819 960.96C472.511 960.419 472.357 959.765 472.357 959C472.357 958.235 472.511 957.581 472.819 957.04C473.127 956.499 473.557 956.083 474.107 955.794C474.667 955.505 475.307 955.36 476.025 955.36C476.763 955.36 477.388 955.505 477.901 955.794C478.424 956.074 478.821 956.466 479.091 956.97C479.362 957.465 479.497 958.034 479.497 958.678C479.497 958.846 479.493 959.014 479.483 959.182C479.474 959.35 479.46 959.49 479.441 959.602H473.897V958.328H478.391L477.257 958.762C477.257 958.202 477.155 957.773 476.949 957.474C476.753 957.175 476.445 957.026 476.025 957.026C475.727 957.026 475.47 957.096 475.255 957.236C475.05 957.376 474.891 957.595 474.779 957.894C474.677 958.193 474.625 958.575 474.625 959.042C474.625 959.499 474.686 959.873 474.807 960.162C474.929 960.442 475.101 960.647 475.325 960.778C475.549 960.899 475.82 960.96 476.137 960.96C476.492 960.96 476.772 960.89 476.977 960.75C477.192 960.61 477.351 960.414 477.453 960.162L479.357 960.792C479.227 961.193 478.998 961.534 478.671 961.814C478.354 962.085 477.971 962.29 477.523 962.43C477.085 962.57 476.623 962.64 476.137 962.64ZM484.245 962.64C483.47 962.64 482.798 962.495 482.229 962.206C481.669 961.917 481.235 961.501 480.927 960.96C480.619 960.419 480.465 959.765 480.465 959C480.465 958.235 480.619 957.581 480.927 957.04C481.235 956.499 481.664 956.083 482.215 955.794C482.775 955.505 483.414 955.36 484.133 955.36C484.87 955.36 485.495 955.505 486.009 955.794C486.531 956.074 486.928 956.466 487.199 956.97C487.469 957.465 487.605 958.034 487.605 958.678C487.605 958.846 487.6 959.014 487.591 959.182C487.581 959.35 487.567 959.49 487.549 959.602H482.005V958.328H486.499L485.365 958.762C485.365 958.202 485.262 957.773 485.057 957.474C484.861 957.175 484.553 957.026 484.133 957.026C483.834 957.026 483.577 957.096 483.363 957.236C483.157 957.376 482.999 957.595 482.887 957.894C482.784 958.193 482.733 958.575 482.733 959.042C482.733 959.499 482.793 959.873 482.915 960.162C483.036 960.442 483.209 960.647 483.433 960.778C483.657 960.899 483.927 960.96 484.245 960.96C484.599 960.96 484.879 960.89 485.085 960.75C485.299 960.61 485.458 960.414 485.561 960.162L487.465 960.792C487.334 961.193 487.105 961.534 486.779 961.814C486.461 962.085 486.079 962.29 485.631 962.43C485.192 962.57 484.73 962.64 484.245 962.64ZM491.512 962.64C490.933 962.64 490.425 962.5 489.986 962.22C489.557 961.931 489.221 961.515 488.978 960.974C488.745 960.433 488.628 959.784 488.628 959.028C488.628 958.244 488.749 957.581 488.992 957.04C489.244 956.499 489.589 956.083 490.028 955.794C490.476 955.505 490.989 955.36 491.568 955.36C492.203 955.36 492.711 955.556 493.094 955.948C493.486 956.331 493.738 956.821 493.85 957.418L493.626 957.712V952.532H496.006V962.5H493.878L493.724 960.12L494.004 960.33C493.948 960.797 493.803 961.203 493.57 961.548C493.346 961.893 493.057 962.164 492.702 962.36C492.357 962.547 491.96 962.64 491.512 962.64ZM492.338 960.89C492.609 960.89 492.837 960.82 493.024 960.68C493.22 960.531 493.369 960.311 493.472 960.022C493.575 959.733 493.626 959.378 493.626 958.958C493.626 958.566 493.575 958.235 493.472 957.964C493.379 957.684 493.234 957.474 493.038 957.334C492.851 957.185 492.623 957.11 492.352 957.11C491.941 957.11 491.615 957.264 491.372 957.572C491.139 957.871 491.022 958.347 491.022 959C491.022 959.653 491.139 960.134 491.372 960.442C491.605 960.741 491.927 960.89 492.338 960.89ZM505.709 962.64C504.888 962.64 504.155 962.458 503.511 962.094C502.877 961.73 502.382 961.193 502.027 960.484C501.673 959.775 501.495 958.911 501.495 957.894C501.495 956.895 501.682 956.041 502.055 955.332C502.429 954.623 502.961 954.077 503.651 953.694C504.351 953.311 505.173 953.12 506.115 953.12C507.161 953.12 508.005 953.311 508.649 953.694C509.293 954.067 509.793 954.665 510.147 955.486L507.921 956.368C507.8 955.892 507.585 955.547 507.277 955.332C506.969 955.117 506.587 955.01 506.129 955.01C505.672 955.01 505.28 955.122 504.953 955.346C504.627 955.561 504.379 955.883 504.211 956.312C504.043 956.732 503.959 957.255 503.959 957.88C503.959 958.533 504.043 959.079 504.211 959.518C504.389 959.957 504.645 960.283 504.981 960.498C505.327 960.703 505.751 960.806 506.255 960.806C506.526 960.806 506.773 960.773 506.997 960.708C507.221 960.643 507.417 960.549 507.585 960.428C507.753 960.297 507.884 960.139 507.977 959.952C508.071 959.756 508.117 959.527 508.117 959.266V959.126H506.003V957.516H510.161V962.5H508.523L508.341 960.33L508.733 960.666C508.537 961.301 508.183 961.791 507.669 962.136C507.165 962.472 506.512 962.64 505.709 962.64ZM511.836 962.5V955.5H513.936L514.034 957.012C514.212 956.489 514.473 956.083 514.818 955.794C515.173 955.505 515.621 955.36 516.162 955.36C516.34 955.36 516.489 955.374 516.61 955.402C516.741 955.43 516.844 955.467 516.918 955.514L516.68 957.474C516.587 957.437 516.466 957.409 516.316 957.39C516.176 957.362 516.004 957.348 515.798 957.348C515.518 957.348 515.257 957.409 515.014 957.53C514.772 957.651 514.576 957.833 514.426 958.076C514.286 958.309 514.216 958.608 514.216 958.972V962.5H511.836ZM521.102 955.36C521.839 955.36 522.483 955.505 523.034 955.794C523.594 956.074 524.028 956.489 524.336 957.04C524.653 957.581 524.812 958.235 524.812 959C524.812 959.765 524.653 960.423 524.336 960.974C524.028 961.515 523.594 961.931 523.034 962.22C522.483 962.5 521.839 962.64 521.102 962.64C520.383 962.64 519.744 962.5 519.184 962.22C518.624 961.931 518.185 961.515 517.868 960.974C517.56 960.423 517.406 959.765 517.406 959C517.406 958.235 517.56 957.581 517.868 957.04C518.185 956.489 518.624 956.074 519.184 955.794C519.744 955.505 520.383 955.36 521.102 955.36ZM521.102 957.054C520.831 957.054 520.598 957.119 520.402 957.25C520.206 957.381 520.057 957.591 519.954 957.88C519.851 958.169 519.8 958.543 519.8 959C519.8 959.457 519.851 959.831 519.954 960.12C520.057 960.4 520.206 960.61 520.402 960.75C520.598 960.881 520.831 960.946 521.102 960.946C521.382 960.946 521.62 960.881 521.816 960.75C522.012 960.61 522.161 960.4 522.264 960.12C522.367 959.831 522.418 959.457 522.418 959C522.418 958.543 522.367 958.169 522.264 957.88C522.161 957.591 522.012 957.381 521.816 957.25C521.62 957.119 521.382 957.054 521.102 957.054ZM528.517 962.64C528.041 962.64 527.621 962.561 527.257 962.402C526.902 962.234 526.622 961.968 526.417 961.604C526.212 961.24 526.109 960.764 526.109 960.176V955.5H528.489V959.616C528.489 960.064 528.578 960.377 528.755 960.554C528.932 960.731 529.184 960.82 529.511 960.82C529.679 960.82 529.838 960.792 529.987 960.736C530.136 960.671 530.267 960.577 530.379 960.456C530.491 960.325 530.575 960.162 530.631 959.966C530.696 959.761 530.729 959.523 530.729 959.252V955.5H533.109V962.5H530.981L530.911 961.184C530.687 961.679 530.374 962.047 529.973 962.29C529.572 962.523 529.086 962.64 528.517 962.64ZM534.819 965.44V955.5H536.961L537.087 958.034L536.807 957.74C536.872 957.273 537.017 956.863 537.241 956.508C537.465 956.153 537.754 955.873 538.109 955.668C538.464 955.463 538.87 955.36 539.327 955.36C539.906 955.36 540.41 955.505 540.839 955.794C541.268 956.074 541.6 956.485 541.833 957.026C542.076 957.558 542.197 958.207 542.197 958.972C542.197 959.737 542.076 960.395 541.833 960.946C541.59 961.497 541.25 961.917 540.811 962.206C540.382 962.495 539.878 962.64 539.299 962.64C538.664 962.64 538.151 962.453 537.759 962.08C537.367 961.697 537.106 961.217 536.975 960.638L537.199 960.302V965.44H534.819ZM538.487 960.89C538.898 960.89 539.22 960.741 539.453 960.442C539.686 960.134 539.803 959.653 539.803 959C539.803 958.347 539.686 957.871 539.453 957.572C539.229 957.264 538.912 957.11 538.501 957.11C538.24 957.11 538.011 957.185 537.815 957.334C537.619 957.474 537.465 957.684 537.353 957.964C537.25 958.244 537.199 958.589 537.199 959C537.199 959.392 537.246 959.733 537.339 960.022C537.442 960.302 537.591 960.517 537.787 960.666C537.983 960.815 538.216 960.89 538.487 960.89ZM544.604 960.82C544.875 960.82 545.094 960.904 545.262 961.072C545.43 961.24 545.514 961.459 545.514 961.73C545.514 962.001 545.43 962.22 545.262 962.388C545.094 962.556 544.875 962.64 544.604 962.64C544.334 962.64 544.114 962.556 543.946 962.388C543.778 962.22 543.694 962.001 543.694 961.73C543.694 961.459 543.778 961.24 543.946 961.072C544.114 960.904 544.334 960.82 544.604 960.82ZM559.548 962.5H558.358L557.378 959.938H553.192L552.212 962.5H551.036L554.634 953.26H555.964L559.548 962.5ZM553.598 958.888H556.972L555.278 954.338L553.598 958.888ZM562.28 952.28V960.722C562.28 961.077 562.345 961.324 562.476 961.464C562.607 961.595 562.817 961.66 563.106 961.66C563.293 961.66 563.447 961.646 563.568 961.618C563.689 961.59 563.853 961.539 564.058 961.464L563.876 962.444C563.727 962.509 563.563 962.556 563.386 962.584C563.209 962.621 563.027 962.64 562.84 962.64C562.271 962.64 561.846 962.486 561.566 962.178C561.295 961.87 561.16 961.399 561.16 960.764V952.28H562.28ZM566.559 952.28V960.722C566.559 961.077 566.625 961.324 566.755 961.464C566.886 961.595 567.096 961.66 567.385 961.66C567.572 961.66 567.726 961.646 567.847 961.618C567.969 961.59 568.132 961.539 568.337 961.464L568.155 962.444C568.006 962.509 567.843 962.556 567.665 962.584C567.488 962.621 567.306 962.64 567.119 962.64C566.55 962.64 566.125 962.486 565.845 962.178C565.575 961.87 565.439 961.399 565.439 960.764V952.28H566.559ZM577.764 953.26C578.707 953.26 579.463 953.503 580.032 953.988C580.601 954.473 580.886 955.131 580.886 955.962C580.886 956.793 580.597 957.441 580.018 957.908C579.449 958.365 578.693 958.594 577.75 958.594L577.652 958.664H575.384V962.5H574.264V953.26H577.764ZM577.75 957.614C578.413 957.614 578.903 957.479 579.22 957.208C579.547 956.928 579.71 956.513 579.71 955.962C579.71 955.411 579.547 955.001 579.22 954.73C578.903 954.45 578.413 954.31 577.75 954.31H575.384V957.614H577.75ZM578.394 957.838L581.446 962.5H580.116L577.456 958.454L578.394 957.838ZM583.856 954.156C583.604 954.156 583.399 954.081 583.24 953.932C583.091 953.773 583.016 953.568 583.016 953.316C583.016 953.064 583.091 952.863 583.24 952.714C583.399 952.555 583.604 952.476 583.856 952.476C584.108 952.476 584.309 952.555 584.458 952.714C584.617 952.863 584.696 953.064 584.696 953.316C584.696 953.568 584.617 953.773 584.458 953.932C584.309 954.081 584.108 954.156 583.856 954.156ZM584.416 955.5V962.5H583.296V955.5H584.416ZM592.909 954.212L593.161 955.206C593.152 955.206 593.138 955.206 593.119 955.206C593.1 955.206 593.082 955.206 593.063 955.206C592.606 955.206 592.251 955.299 591.999 955.486C591.756 955.663 591.635 955.953 591.635 956.354L590.949 956.004C590.949 955.64 591.033 955.323 591.201 955.052C591.369 954.781 591.598 954.576 591.887 954.436C592.176 954.287 592.494 954.212 592.839 954.212C592.848 954.212 592.858 954.212 592.867 954.212C592.886 954.212 592.9 954.212 592.909 954.212ZM590.781 961.604C591.444 961.604 591.962 961.758 592.335 962.066C592.708 962.365 592.895 962.766 592.895 963.27C592.895 963.727 592.741 964.124 592.433 964.46C592.134 964.796 591.728 965.053 591.215 965.23C590.711 965.417 590.142 965.51 589.507 965.51C588.406 965.51 587.58 965.323 587.029 964.95C586.488 964.577 586.217 964.129 586.217 963.606C586.217 963.233 586.338 962.897 586.581 962.598C586.833 962.309 587.253 962.145 587.841 962.108L587.743 962.318C587.426 962.234 587.155 962.094 586.931 961.898C586.716 961.693 586.609 961.399 586.609 961.016C586.609 960.633 586.749 960.307 587.029 960.036C587.318 959.756 587.743 959.583 588.303 959.518L589.045 959.896H588.905C588.448 959.943 588.121 960.059 587.925 960.246C587.738 960.423 587.645 960.619 587.645 960.834C587.645 961.095 587.738 961.291 587.925 961.422C588.121 961.543 588.392 961.604 588.737 961.604H590.781ZM589.493 964.572C590.034 964.572 590.478 964.516 590.823 964.404C591.178 964.292 591.439 964.147 591.607 963.97C591.775 963.793 591.859 963.601 591.859 963.396C591.859 963.144 591.756 962.943 591.551 962.794C591.355 962.645 590.996 962.57 590.473 962.57H588.317C588.018 962.57 587.766 962.645 587.561 962.794C587.356 962.953 587.253 963.167 587.253 963.438C587.253 963.783 587.449 964.059 587.841 964.264C588.242 964.469 588.793 964.572 589.493 964.572ZM589.395 955.36C589.955 955.36 590.45 955.463 590.879 955.668C591.318 955.864 591.658 956.139 591.901 956.494C592.144 956.849 592.265 957.259 592.265 957.726C592.265 958.183 592.144 958.594 591.901 958.958C591.658 959.313 591.318 959.593 590.879 959.798C590.45 959.994 589.955 960.092 589.395 960.092C588.471 960.092 587.762 959.873 587.267 959.434C586.772 958.986 586.525 958.417 586.525 957.726C586.525 957.259 586.646 956.849 586.889 956.494C587.141 956.139 587.482 955.864 587.911 955.668C588.34 955.463 588.835 955.36 589.395 955.36ZM589.395 956.27C588.91 956.27 588.504 956.405 588.177 956.676C587.85 956.937 587.687 957.287 587.687 957.726C587.687 958.155 587.85 958.505 588.177 958.776C588.504 959.047 588.91 959.182 589.395 959.182C589.88 959.182 590.286 959.047 590.613 958.776C590.94 958.505 591.103 958.155 591.103 957.726C591.103 957.287 590.94 956.937 590.613 956.676C590.286 956.405 589.88 956.27 589.395 956.27ZM594.466 962.5V952.28H595.586V956.55C595.829 956.13 596.151 955.827 596.552 955.64C596.953 955.453 597.392 955.36 597.868 955.36C598.372 955.36 598.829 955.458 599.24 955.654C599.651 955.841 599.977 956.13 600.22 956.522C600.472 956.914 600.598 957.413 600.598 958.02V962.5H599.478V958.412C599.478 957.637 599.31 957.101 598.974 956.802C598.647 956.494 598.241 956.34 597.756 956.34C597.42 956.34 597.084 956.419 596.748 956.578C596.412 956.737 596.132 956.998 595.908 957.362C595.693 957.717 595.586 958.193 595.586 958.79V962.5H594.466ZM604.69 953.512V960.568C604.69 960.913 604.788 961.17 604.984 961.338C605.18 961.506 605.432 961.59 605.74 961.59C606.011 961.59 606.244 961.543 606.44 961.45C606.636 961.357 606.814 961.231 606.972 961.072L607.364 962.01C607.15 962.206 606.893 962.36 606.594 962.472C606.305 962.584 605.969 962.64 605.586 962.64C605.232 962.64 604.9 962.579 604.592 962.458C604.284 962.327 604.037 962.127 603.85 961.856C603.673 961.576 603.58 961.212 603.57 960.764V953.82L604.69 953.512ZM607.238 955.5V956.466H602.17V955.5H607.238ZM611.424 962.64C610.742 962.64 610.112 962.495 609.534 962.206C608.964 961.917 608.526 961.506 608.218 960.974L609.17 960.288C609.375 960.717 609.674 961.053 610.066 961.296C610.467 961.539 610.948 961.66 611.508 961.66C612.002 961.66 612.39 961.567 612.67 961.38C612.95 961.184 613.09 960.932 613.09 960.624C613.09 960.428 613.024 960.251 612.894 960.092C612.772 959.924 612.534 959.803 612.18 959.728L610.5 959.378C609.818 959.238 609.328 959.005 609.03 958.678C608.74 958.351 608.596 957.945 608.596 957.46C608.596 957.077 608.703 956.727 608.918 956.41C609.142 956.093 609.454 955.841 609.856 955.654C610.266 955.458 610.747 955.36 611.298 955.36C611.988 955.36 612.572 955.495 613.048 955.766C613.524 956.037 613.878 956.419 614.112 956.914L613.174 957.53C613.015 957.119 612.758 956.821 612.404 956.634C612.049 956.438 611.68 956.34 611.298 956.34C610.962 956.34 610.672 956.387 610.43 956.48C610.196 956.573 610.014 956.704 609.884 956.872C609.762 957.031 609.702 957.213 609.702 957.418C609.702 957.623 609.772 957.815 609.912 957.992C610.052 958.16 610.313 958.281 610.696 958.356L612.446 958.72C613.099 958.851 613.556 959.065 613.818 959.364C614.079 959.663 614.21 960.027 614.21 960.456C614.21 960.895 614.093 961.282 613.86 961.618C613.626 961.945 613.3 962.197 612.88 962.374C612.46 962.551 611.974 962.64 611.424 962.64ZM624.768 953.26C625.711 953.26 626.467 953.503 627.036 953.988C627.605 954.473 627.89 955.131 627.89 955.962C627.89 956.793 627.601 957.441 627.022 957.908C626.453 958.365 625.697 958.594 624.754 958.594L624.656 958.664H622.388V962.5H621.268V953.26H624.768ZM624.754 957.614C625.417 957.614 625.907 957.479 626.224 957.208C626.551 956.928 626.714 956.513 626.714 955.962C626.714 955.411 626.551 955.001 626.224 954.73C625.907 954.45 625.417 954.31 624.754 954.31H622.388V957.614H624.754ZM625.398 957.838L628.45 962.5H627.12L624.46 958.454L625.398 957.838ZM633.062 962.64C632.399 962.64 631.807 962.495 631.284 962.206C630.771 961.917 630.369 961.501 630.08 960.96C629.791 960.409 629.646 959.756 629.646 959C629.646 958.244 629.791 957.595 630.08 957.054C630.369 956.503 630.766 956.083 631.27 955.794C631.774 955.505 632.348 955.36 632.992 955.36C633.645 955.36 634.201 955.5 634.658 955.78C635.125 956.06 635.479 956.443 635.722 956.928C635.965 957.404 636.086 957.941 636.086 958.538C636.086 958.697 636.081 958.841 636.072 958.972C636.063 959.103 636.049 959.219 636.03 959.322H630.374V958.328H635.54L634.966 958.44C634.966 957.768 634.779 957.25 634.406 956.886C634.042 956.522 633.561 956.34 632.964 956.34C632.507 956.34 632.11 956.447 631.774 956.662C631.447 956.867 631.191 957.171 631.004 957.572C630.827 957.964 630.738 958.44 630.738 959C630.738 959.551 630.831 960.027 631.018 960.428C631.205 960.829 631.466 961.137 631.802 961.352C632.147 961.557 632.558 961.66 633.034 961.66C633.547 961.66 633.963 961.562 634.28 961.366C634.607 961.17 634.868 960.904 635.064 960.568L635.946 961.086C635.769 961.403 635.54 961.679 635.26 961.912C634.989 962.145 634.667 962.327 634.294 962.458C633.93 962.579 633.519 962.64 633.062 962.64ZM640.736 962.64C640.055 962.64 639.425 962.495 638.846 962.206C638.277 961.917 637.838 961.506 637.53 960.974L638.482 960.288C638.687 960.717 638.986 961.053 639.378 961.296C639.779 961.539 640.26 961.66 640.82 961.66C641.315 961.66 641.702 961.567 641.982 961.38C642.262 961.184 642.402 960.932 642.402 960.624C642.402 960.428 642.337 960.251 642.206 960.092C642.085 959.924 641.847 959.803 641.492 959.728L639.812 959.378C639.131 959.238 638.641 959.005 638.342 958.678C638.053 958.351 637.908 957.945 637.908 957.46C637.908 957.077 638.015 956.727 638.23 956.41C638.454 956.093 638.767 955.841 639.168 955.654C639.579 955.458 640.059 955.36 640.61 955.36C641.301 955.36 641.884 955.495 642.36 955.766C642.836 956.037 643.191 956.419 643.424 956.914L642.486 957.53C642.327 957.119 642.071 956.821 641.716 956.634C641.361 956.438 640.993 956.34 640.61 956.34C640.274 956.34 639.985 956.387 639.742 956.48C639.509 956.573 639.327 956.704 639.196 956.872C639.075 957.031 639.014 957.213 639.014 957.418C639.014 957.623 639.084 957.815 639.224 957.992C639.364 958.16 639.625 958.281 640.008 958.356L641.758 958.72C642.411 958.851 642.869 959.065 643.13 959.364C643.391 959.663 643.522 960.027 643.522 960.456C643.522 960.895 643.405 961.282 643.172 961.618C642.939 961.945 642.612 962.197 642.192 962.374C641.772 962.551 641.287 962.64 640.736 962.64ZM648.525 962.64C647.862 962.64 647.27 962.495 646.747 962.206C646.234 961.917 645.832 961.501 645.543 960.96C645.254 960.409 645.109 959.756 645.109 959C645.109 958.244 645.254 957.595 645.543 957.054C645.832 956.503 646.229 956.083 646.733 955.794C647.237 955.505 647.811 955.36 648.455 955.36C649.108 955.36 649.664 955.5 650.121 955.78C650.588 956.06 650.942 956.443 651.185 956.928C651.428 957.404 651.549 957.941 651.549 958.538C651.549 958.697 651.544 958.841 651.535 958.972C651.526 959.103 651.512 959.219 651.493 959.322H645.837V958.328H651.003L650.429 958.44C650.429 957.768 650.242 957.25 649.869 956.886C649.505 956.522 649.024 956.34 648.427 956.34C647.97 956.34 647.573 956.447 647.237 956.662C646.91 956.867 646.654 957.171 646.467 957.572C646.29 957.964 646.201 958.44 646.201 959C646.201 959.551 646.294 960.027 646.481 960.428C646.668 960.829 646.929 961.137 647.265 961.352C647.61 961.557 648.021 961.66 648.497 961.66C649.01 961.66 649.426 961.562 649.743 961.366C650.07 961.17 650.331 960.904 650.527 960.568L651.409 961.086C651.232 961.403 651.003 961.679 650.723 961.912C650.452 962.145 650.13 962.327 649.757 962.458C649.393 962.579 648.982 962.64 648.525 962.64ZM653.679 962.5V955.5H654.589L654.743 956.648C654.939 956.219 655.224 955.897 655.597 955.682C655.98 955.467 656.442 955.36 656.983 955.36C657.104 955.36 657.235 955.369 657.375 955.388C657.524 955.407 657.65 955.444 657.753 955.5L657.557 956.522C657.454 956.485 657.342 956.457 657.221 956.438C657.1 956.419 656.927 956.41 656.703 956.41C656.414 956.41 656.12 956.494 655.821 956.662C655.532 956.83 655.289 957.087 655.093 957.432C654.897 957.768 654.799 958.197 654.799 958.72V962.5H653.679ZM664.028 955.5H665.204L662.292 962.5H661.172L658.26 955.5H659.534L661.746 961.366L664.028 955.5ZM669.593 962.64C668.931 962.64 668.338 962.495 667.815 962.206C667.302 961.917 666.901 961.501 666.611 960.96C666.322 960.409 666.177 959.756 666.177 959C666.177 958.244 666.322 957.595 666.611 957.054C666.901 956.503 667.297 956.083 667.801 955.794C668.305 955.505 668.879 955.36 669.523 955.36C670.177 955.36 670.732 955.5 671.189 955.78C671.656 956.06 672.011 956.443 672.253 956.928C672.496 957.404 672.617 957.941 672.617 958.538C672.617 958.697 672.613 958.841 672.603 958.972C672.594 959.103 672.58 959.219 672.561 959.322H666.905V958.328H672.071L671.497 958.44C671.497 957.768 671.311 957.25 670.937 956.886C670.573 956.522 670.093 956.34 669.495 956.34C669.038 956.34 668.641 956.447 668.305 956.662C667.979 956.867 667.722 957.171 667.535 957.572C667.358 957.964 667.269 958.44 667.269 959C667.269 959.551 667.363 960.027 667.549 960.428C667.736 960.829 667.997 961.137 668.333 961.352C668.679 961.557 669.089 961.66 669.565 961.66C670.079 961.66 670.494 961.562 670.811 961.366C671.138 961.17 671.399 960.904 671.595 960.568L672.477 961.086C672.3 961.403 672.071 961.679 671.791 961.912C671.521 962.145 671.199 962.327 670.825 962.458C670.461 962.579 670.051 962.64 669.593 962.64ZM677.477 962.64C676.899 962.64 676.367 962.495 675.881 962.206C675.396 961.917 675.009 961.501 674.719 960.96C674.43 960.409 674.285 959.756 674.285 959C674.285 958.225 674.439 957.567 674.747 957.026C675.055 956.485 675.461 956.074 675.965 955.794C676.469 955.505 677.011 955.36 677.589 955.36C678.168 955.36 678.667 955.509 679.087 955.808C679.517 956.107 679.801 956.503 679.941 956.998L679.801 957.096V952.28H680.921V962.5H679.941L679.843 960.806L679.997 960.722C679.932 961.133 679.773 961.483 679.521 961.772C679.279 962.052 678.975 962.267 678.611 962.416C678.257 962.565 677.879 962.64 677.477 962.64ZM677.589 961.66C678.037 961.66 678.425 961.548 678.751 961.324C679.087 961.1 679.344 960.783 679.521 960.372C679.708 959.952 679.801 959.462 679.801 958.902C679.801 958.37 679.708 957.913 679.521 957.53C679.344 957.147 679.092 956.853 678.765 956.648C678.448 956.443 678.075 956.34 677.645 956.34C676.936 956.34 676.385 956.583 675.993 957.068C675.601 957.553 675.405 958.197 675.405 959C675.405 959.803 675.597 960.447 675.979 960.932C676.362 961.417 676.899 961.66 677.589 961.66ZM688.03 962.5V961.59C688.954 960.909 689.724 960.311 690.34 959.798C690.965 959.285 691.465 958.818 691.838 958.398C692.211 957.978 692.477 957.581 692.636 957.208C692.795 956.825 692.874 956.429 692.874 956.018C692.874 955.467 692.697 955.024 692.342 954.688C691.997 954.343 691.521 954.17 690.914 954.17C690.279 954.17 689.771 954.38 689.388 954.8C689.005 955.211 688.781 955.761 688.716 956.452L687.736 955.864C687.82 955.323 687.993 954.847 688.254 954.436C688.525 954.025 688.884 953.703 689.332 953.47C689.789 953.237 690.331 953.12 690.956 953.12C691.432 953.12 691.857 953.19 692.23 953.33C692.613 953.47 692.939 953.671 693.21 953.932C693.481 954.184 693.686 954.487 693.826 954.842C693.975 955.197 694.05 955.589 694.05 956.018C694.05 956.597 693.91 957.166 693.63 957.726C693.35 958.277 692.888 958.855 692.244 959.462C691.6 960.069 690.727 960.741 689.626 961.478V961.492C689.729 961.483 689.869 961.478 690.046 961.478C690.233 961.469 690.415 961.464 690.592 961.464C690.779 961.455 690.919 961.45 691.012 961.45H694.246V962.5H688.03ZM699.51 962.64C698.465 962.64 697.63 962.234 697.004 961.422C696.379 960.61 696.066 959.429 696.066 957.88C696.066 956.331 696.379 955.15 697.004 954.338C697.63 953.526 698.465 953.12 699.51 953.12C700.565 953.12 701.4 953.526 702.016 954.338C702.642 955.15 702.954 956.331 702.954 957.88C702.954 959.429 702.642 960.61 702.016 961.422C701.4 962.234 700.565 962.64 699.51 962.64ZM699.51 961.632C700.005 961.632 700.42 961.492 700.756 961.212C701.102 960.923 701.358 960.498 701.526 959.938C701.704 959.378 701.792 958.692 701.792 957.88C701.792 957.068 701.704 956.382 701.526 955.822C701.358 955.262 701.102 954.842 700.756 954.562C700.42 954.273 700.005 954.128 699.51 954.128C699.016 954.128 698.596 954.273 698.25 954.562C697.914 954.842 697.658 955.262 697.48 955.822C697.312 956.382 697.228 957.068 697.228 957.88C697.228 958.692 697.312 959.378 697.48 959.938C697.658 960.498 697.914 960.923 698.25 961.212C698.596 961.492 699.016 961.632 699.51 961.632ZM704.901 962.5V961.59C705.825 960.909 706.595 960.311 707.211 959.798C707.837 959.285 708.336 958.818 708.709 958.398C709.083 957.978 709.349 957.581 709.507 957.208C709.666 956.825 709.745 956.429 709.745 956.018C709.745 955.467 709.568 955.024 709.213 954.688C708.868 954.343 708.392 954.17 707.785 954.17C707.151 954.17 706.642 954.38 706.259 954.8C705.877 955.211 705.653 955.761 705.587 956.452L704.607 955.864C704.691 955.323 704.864 954.847 705.125 954.436C705.396 954.025 705.755 953.703 706.203 953.47C706.661 953.237 707.202 953.12 707.827 953.12C708.303 953.12 708.728 953.19 709.101 953.33C709.484 953.47 709.811 953.671 710.081 953.932C710.352 954.184 710.557 954.487 710.697 954.842C710.847 955.197 710.921 955.589 710.921 956.018C710.921 956.597 710.781 957.166 710.501 957.726C710.221 958.277 709.759 958.855 709.115 959.462C708.471 960.069 707.599 960.741 706.497 961.478V961.492C706.6 961.483 706.74 961.478 706.917 961.478C707.104 961.469 707.286 961.464 707.463 961.464C707.65 961.455 707.79 961.45 707.883 961.45H711.117V962.5H704.901ZM713.063 962.5V961.59C713.987 960.909 714.757 960.311 715.373 959.798C715.999 959.285 716.498 958.818 716.871 958.398C717.245 957.978 717.511 957.581 717.669 957.208C717.828 956.825 717.907 956.429 717.907 956.018C717.907 955.467 717.73 955.024 717.375 954.688C717.03 954.343 716.554 954.17 715.947 954.17C715.313 954.17 714.804 954.38 714.421 954.8C714.039 955.211 713.815 955.761 713.749 956.452L712.769 955.864C712.853 955.323 713.026 954.847 713.287 954.436C713.558 954.025 713.917 953.703 714.365 953.47C714.823 953.237 715.364 953.12 715.989 953.12C716.465 953.12 716.89 953.19 717.263 953.33C717.646 953.47 717.973 953.671 718.243 953.932C718.514 954.184 718.719 954.487 718.859 954.842C719.009 955.197 719.083 955.589 719.083 956.018C719.083 956.597 718.943 957.166 718.663 957.726C718.383 958.277 717.921 958.855 717.277 959.462C716.633 960.069 715.761 960.741 714.659 961.478V961.492C714.762 961.483 714.902 961.478 715.079 961.478C715.266 961.469 715.448 961.464 715.625 961.464C715.812 961.455 715.952 961.45 716.045 961.45H719.279V962.5H713.063ZM722.051 960.82C722.322 960.82 722.541 960.904 722.709 961.072C722.877 961.24 722.961 961.459 722.961 961.73C722.961 962.001 722.877 962.22 722.709 962.388C722.541 962.556 722.322 962.64 722.051 962.64C721.781 962.64 721.561 962.556 721.393 962.388C721.225 962.22 721.141 962.001 721.141 961.73C721.141 961.459 721.225 961.24 721.393 961.072C721.561 960.904 721.781 960.82 722.051 960.82Z" fill="#535E88"/>
<path d="M1195.15 952.44C1195.96 952.44 1196.66 952.579 1197.23 952.856C1197.81 953.123 1198.25 953.512 1198.56 954.024C1198.88 954.525 1199.04 955.133 1199.04 955.848C1199.04 956.563 1198.88 957.176 1198.56 957.688C1198.25 958.189 1197.81 958.579 1197.23 958.856C1196.66 959.123 1195.96 959.256 1195.15 959.256H1192.93V963H1190.72V952.44H1195.15ZM1194.82 957.512C1195.48 957.512 1195.97 957.373 1196.3 957.096C1196.63 956.808 1196.8 956.392 1196.8 955.848C1196.8 955.293 1196.63 954.877 1196.3 954.6C1195.97 954.323 1195.48 954.184 1194.82 954.184H1192.93V957.512H1194.82ZM1200.84 963V955H1202.74L1202.89 956.568C1203.1 956.013 1203.41 955.587 1203.82 955.288C1204.23 954.989 1204.75 954.84 1205.37 954.84C1205.55 954.84 1205.71 954.856 1205.86 954.888C1206.01 954.92 1206.14 954.963 1206.23 955.016L1205.98 956.856C1205.87 956.813 1205.74 956.781 1205.58 956.76C1205.43 956.739 1205.23 956.728 1204.98 956.728C1204.66 956.728 1204.35 956.808 1204.06 956.968C1203.76 957.117 1203.51 957.352 1203.32 957.672C1203.13 957.981 1203.03 958.376 1203.03 958.856V963H1200.84ZM1211.08 954.84C1211.89 954.84 1212.6 955.005 1213.21 955.336C1213.83 955.667 1214.31 956.141 1214.65 956.76C1215 957.379 1215.18 958.125 1215.18 959C1215.18 959.864 1215 960.611 1214.65 961.24C1214.31 961.859 1213.83 962.333 1213.21 962.664C1212.6 962.995 1211.89 963.16 1211.08 963.16C1210.28 963.16 1209.57 962.995 1208.95 962.664C1208.33 962.333 1207.85 961.859 1207.5 961.24C1207.16 960.611 1206.99 959.864 1206.99 959C1206.99 958.125 1207.16 957.379 1207.5 956.76C1207.85 956.141 1208.33 955.667 1208.95 955.336C1209.57 955.005 1210.28 954.84 1211.08 954.84ZM1211.08 956.472C1210.68 956.472 1210.33 956.568 1210.04 956.76C1209.76 956.941 1209.55 957.219 1209.4 957.592C1209.25 957.965 1209.18 958.435 1209.18 959C1209.18 959.565 1209.25 960.035 1209.4 960.408C1209.55 960.781 1209.76 961.064 1210.04 961.256C1210.33 961.437 1210.68 961.528 1211.08 961.528C1211.48 961.528 1211.81 961.437 1212.09 961.256C1212.38 961.064 1212.6 960.781 1212.75 960.408C1212.89 960.035 1212.97 959.565 1212.97 959C1212.97 958.435 1212.89 957.965 1212.75 957.592C1212.6 957.219 1212.38 956.941 1212.09 956.76C1211.81 956.568 1211.48 956.472 1211.08 956.472ZM1224.32 953.096L1224.58 954.664C1224.54 954.664 1224.49 954.664 1224.44 954.664C1224.39 954.653 1224.35 954.648 1224.29 954.648C1223.8 954.648 1223.43 954.76 1223.19 954.984C1222.94 955.197 1222.82 955.496 1222.82 955.88L1221.92 955.512C1221.92 955.085 1222.01 954.691 1222.18 954.328C1222.35 953.955 1222.6 953.656 1222.93 953.432C1223.27 953.208 1223.68 953.096 1224.15 953.096C1224.17 953.096 1224.2 953.096 1224.23 953.096C1224.26 953.096 1224.29 953.096 1224.32 953.096ZM1221.7 961.496C1222.56 961.496 1223.23 961.683 1223.7 962.056C1224.17 962.429 1224.4 962.952 1224.4 963.624C1224.4 964.232 1224.23 964.744 1223.88 965.16C1223.52 965.587 1223.03 965.907 1222.39 966.12C1221.76 966.333 1221.03 966.44 1220.2 966.44C1218.82 966.44 1217.81 966.248 1217.17 965.864C1216.54 965.48 1216.23 964.979 1216.23 964.36C1216.23 963.923 1216.39 963.555 1216.72 963.256C1217.07 962.957 1217.63 962.792 1218.4 962.76L1218.32 963.016C1217.77 962.92 1217.34 962.739 1217.04 962.472C1216.76 962.195 1216.61 961.816 1216.61 961.336C1216.61 960.845 1216.8 960.445 1217.17 960.136C1217.56 959.816 1218.07 959.629 1218.72 959.576L1219.68 960.024H1219.46C1219 960.056 1218.68 960.152 1218.48 960.312C1218.3 960.461 1218.21 960.632 1218.21 960.824C1218.21 961.048 1218.3 961.219 1218.47 961.336C1218.65 961.443 1218.91 961.496 1219.24 961.496H1221.7ZM1220.21 964.936C1220.77 964.936 1221.22 964.888 1221.57 964.792C1221.94 964.696 1222.2 964.573 1222.37 964.424C1222.55 964.275 1222.64 964.109 1222.64 963.928C1222.64 963.725 1222.56 963.56 1222.4 963.432C1222.24 963.315 1221.96 963.256 1221.54 963.256H1218.84C1218.58 963.256 1218.37 963.32 1218.2 963.448C1218.04 963.576 1217.96 963.752 1217.96 963.976C1217.96 964.275 1218.15 964.509 1218.55 964.68C1218.95 964.851 1219.51 964.936 1220.21 964.936ZM1220.23 954.84C1220.98 954.84 1221.62 954.952 1222.16 955.176C1222.72 955.389 1223.14 955.699 1223.43 956.104C1223.73 956.509 1223.88 956.995 1223.88 957.56C1223.88 958.115 1223.73 958.595 1223.43 959C1223.14 959.405 1222.72 959.72 1222.16 959.944C1221.62 960.157 1220.98 960.264 1220.23 960.264C1219.04 960.264 1218.14 960.024 1217.51 959.544C1216.89 959.053 1216.58 958.392 1216.58 957.56C1216.58 956.995 1216.72 956.509 1217.01 956.104C1217.31 955.699 1217.73 955.389 1218.28 955.176C1218.82 954.952 1219.47 954.84 1220.23 954.84ZM1220.23 956.216C1219.8 956.216 1219.45 956.333 1219.17 956.568C1218.9 956.803 1218.76 957.128 1218.76 957.544C1218.76 957.96 1218.9 958.291 1219.17 958.536C1219.45 958.771 1219.8 958.888 1220.23 958.888C1220.66 958.888 1221 958.771 1221.27 958.536C1221.55 958.291 1221.68 957.96 1221.68 957.544C1221.68 957.128 1221.55 956.803 1221.27 956.568C1221 956.333 1220.66 956.216 1220.23 956.216ZM1225.73 963V955H1227.63L1227.78 956.568C1227.99 956.013 1228.3 955.587 1228.71 955.288C1229.12 954.989 1229.64 954.84 1230.26 954.84C1230.44 954.84 1230.6 954.856 1230.75 954.888C1230.9 954.92 1231.03 954.963 1231.12 955.016L1230.87 956.856C1230.76 956.813 1230.63 956.781 1230.47 956.76C1230.32 956.739 1230.12 956.728 1229.87 956.728C1229.55 956.728 1229.24 956.808 1228.95 956.968C1228.65 957.117 1228.4 957.352 1228.21 957.672C1228.02 957.981 1227.92 958.376 1227.92 958.856V963H1225.73ZM1236.9 957.896C1236.9 957.437 1236.77 957.08 1236.5 956.824C1236.24 956.568 1235.9 956.44 1235.48 956.44C1235.08 956.44 1234.73 956.541 1234.44 956.744C1234.14 956.947 1233.92 957.283 1233.78 957.752L1231.91 957.176C1232.09 956.472 1232.48 955.907 1233.09 955.48C1233.71 955.053 1234.54 954.84 1235.57 954.84C1236.28 954.84 1236.89 954.952 1237.41 955.176C1237.93 955.389 1238.34 955.715 1238.63 956.152C1238.93 956.589 1239.08 957.139 1239.08 957.8V961.048C1239.08 961.453 1239.27 961.656 1239.65 961.656C1239.83 961.656 1240 961.629 1240.16 961.576L1240.04 962.936C1239.76 963.075 1239.41 963.144 1239 963.144C1238.62 963.144 1238.29 963.08 1237.99 962.952C1237.69 962.824 1237.45 962.632 1237.28 962.376C1237.11 962.109 1237.03 961.779 1237.03 961.384V961.32L1237.41 961.256C1237.35 961.661 1237.17 962.008 1236.88 962.296C1236.6 962.573 1236.24 962.787 1235.83 962.936C1235.42 963.085 1235 963.16 1234.56 963.16C1234.02 963.16 1233.55 963.08 1233.16 962.92C1232.76 962.749 1232.46 962.504 1232.24 962.184C1232.03 961.864 1231.92 961.469 1231.92 961C1231.92 960.403 1232.12 959.917 1232.5 959.544C1232.88 959.16 1233.43 958.899 1234.15 958.76L1237.16 958.152L1237.14 959.512L1235.22 959.896C1234.86 959.971 1234.58 960.072 1234.39 960.2C1234.21 960.317 1234.12 960.515 1234.12 960.792C1234.12 961.059 1234.21 961.261 1234.4 961.4C1234.61 961.539 1234.85 961.608 1235.12 961.608C1235.35 961.608 1235.57 961.581 1235.78 961.528C1235.99 961.475 1236.18 961.389 1236.36 961.272C1236.53 961.155 1236.66 960.995 1236.76 960.792C1236.85 960.589 1236.9 960.344 1236.9 960.056V957.896ZM1241.53 963V955H1243.5L1243.58 956.44C1243.84 955.907 1244.2 955.507 1244.66 955.24C1245.13 954.973 1245.65 954.84 1246.22 954.84C1246.79 954.84 1247.31 954.973 1247.77 955.24C1248.24 955.507 1248.59 955.901 1248.82 956.424C1248.99 956.072 1249.22 955.779 1249.51 955.544C1249.8 955.309 1250.12 955.133 1250.47 955.016C1250.82 954.899 1251.18 954.84 1251.54 954.84C1252.07 954.84 1252.54 954.947 1252.97 955.16C1253.4 955.373 1253.75 955.693 1254.01 956.12C1254.26 956.547 1254.39 957.091 1254.39 957.752V963H1252.2V958.184C1252.2 957.597 1252.07 957.181 1251.82 956.936C1251.56 956.691 1251.23 956.568 1250.82 956.568C1250.5 956.568 1250.2 956.648 1249.93 956.808C1249.66 956.968 1249.45 957.208 1249.29 957.528C1249.14 957.837 1249.06 958.227 1249.06 958.696V963H1246.87V958.184C1246.87 957.597 1246.74 957.181 1246.47 956.936C1246.22 956.691 1245.88 956.568 1245.48 956.568C1245.2 956.568 1244.92 956.643 1244.65 956.792C1244.38 956.941 1244.16 957.176 1243.98 957.496C1243.8 957.816 1243.72 958.237 1243.72 958.76V963H1241.53ZM1259.85 963.16C1259.04 963.16 1258.3 963.016 1257.63 962.728C1256.97 962.44 1256.43 962.035 1256.01 961.512L1257.28 960.232C1257.53 960.616 1257.87 960.931 1258.3 961.176C1258.73 961.421 1259.23 961.544 1259.82 961.544C1260.24 961.544 1260.57 961.485 1260.81 961.368C1261.07 961.24 1261.2 961.043 1261.2 960.776C1261.2 960.605 1261.14 960.461 1261.02 960.344C1260.9 960.216 1260.67 960.115 1260.32 960.04L1258.91 959.752C1257.98 959.56 1257.32 959.272 1256.92 958.888C1256.54 958.493 1256.35 957.987 1256.35 957.368C1256.35 956.931 1256.48 956.52 1256.73 956.136C1257 955.752 1257.39 955.443 1257.92 955.208C1258.44 954.963 1259.09 954.84 1259.87 954.84C1260.67 954.84 1261.36 954.968 1261.95 955.224C1262.55 955.469 1263.01 955.837 1263.36 956.328L1262.04 957.608C1261.81 957.235 1261.5 956.952 1261.12 956.76C1260.74 956.557 1260.35 956.456 1259.93 956.456C1259.63 956.456 1259.38 956.488 1259.16 956.552C1258.95 956.616 1258.79 956.707 1258.68 956.824C1258.58 956.931 1258.52 957.069 1258.52 957.24C1258.52 957.411 1258.6 957.56 1258.75 957.688C1258.9 957.805 1259.17 957.907 1259.56 957.992L1261.2 958.328C1261.99 958.488 1262.55 958.76 1262.89 959.144C1263.23 959.517 1263.4 959.971 1263.4 960.504C1263.4 961.016 1263.27 961.475 1262.99 961.88C1262.72 962.275 1262.32 962.589 1261.79 962.824C1261.27 963.048 1260.62 963.16 1259.85 963.16Z" fill="#DADCE4"/>
<path d="M1305.56 952.44V963H1303.03L1299.33 956.792L1298.42 955.064H1298.41L1298.47 956.888V963H1296.49V952.44H1299L1302.69 958.632L1303.61 960.376H1303.64L1303.57 958.552V952.44H1305.56ZM1311.66 954.84C1312.47 954.84 1313.18 955.005 1313.79 955.336C1314.41 955.667 1314.89 956.141 1315.23 956.76C1315.58 957.379 1315.76 958.125 1315.76 959C1315.76 959.864 1315.58 960.611 1315.23 961.24C1314.89 961.859 1314.41 962.333 1313.79 962.664C1313.18 962.995 1312.47 963.16 1311.66 963.16C1310.86 963.16 1310.15 962.995 1309.53 962.664C1308.91 962.333 1308.43 961.859 1308.08 961.24C1307.73 960.611 1307.56 959.864 1307.56 959C1307.56 958.125 1307.73 957.379 1308.08 956.76C1308.43 956.141 1308.91 955.667 1309.53 955.336C1310.15 955.005 1310.86 954.84 1311.66 954.84ZM1311.66 956.472C1311.25 956.472 1310.91 956.568 1310.62 956.76C1310.34 956.941 1310.13 957.219 1309.98 957.592C1309.83 957.965 1309.76 958.435 1309.76 959C1309.76 959.565 1309.83 960.035 1309.98 960.408C1310.13 960.781 1310.34 961.064 1310.62 961.256C1310.91 961.437 1311.25 961.528 1311.66 961.528C1312.05 961.528 1312.39 961.437 1312.67 961.256C1312.96 961.064 1313.17 960.781 1313.32 960.408C1313.47 960.035 1313.55 959.565 1313.55 959C1313.55 958.435 1313.47 957.965 1313.32 957.592C1313.17 957.219 1312.96 956.941 1312.67 956.76C1312.39 956.568 1312.05 956.472 1311.66 956.472ZM1320.34 952.552V960.392C1320.34 960.776 1320.44 961.059 1320.63 961.24C1320.83 961.411 1321.11 961.496 1321.45 961.496C1321.71 961.496 1321.95 961.459 1322.15 961.384C1322.35 961.299 1322.54 961.187 1322.7 961.048L1323.05 962.504C1322.79 962.707 1322.47 962.867 1322.09 962.984C1321.7 963.101 1321.3 963.16 1320.87 963.16C1320.34 963.16 1319.86 963.08 1319.45 962.92C1319.04 962.76 1318.72 962.504 1318.49 962.152C1318.26 961.8 1318.15 961.331 1318.15 960.744V953.16L1320.34 952.552ZM1322.9 955V956.632H1316.68V955H1322.9ZM1328.1 963.16C1327.26 963.16 1326.52 962.995 1325.89 962.664C1325.27 962.333 1324.79 961.859 1324.45 961.24C1324.11 960.621 1323.94 959.875 1323.94 959C1323.94 958.125 1324.11 957.379 1324.45 956.76C1324.79 956.141 1325.27 955.667 1325.87 955.336C1326.49 955.005 1327.2 954.84 1327.99 954.84C1328.8 954.84 1329.49 955.005 1330.05 955.336C1330.62 955.656 1331.05 956.099 1331.35 956.664C1331.65 957.219 1331.79 957.853 1331.79 958.568C1331.79 958.781 1331.79 958.984 1331.78 959.176C1331.77 959.368 1331.75 959.539 1331.73 959.688H1325.35V958.168H1330.77L1329.71 958.552C1329.71 957.88 1329.56 957.363 1329.25 957C1328.95 956.637 1328.53 956.456 1327.97 956.456C1327.57 956.456 1327.21 956.552 1326.91 956.744C1326.63 956.936 1326.41 957.224 1326.26 957.608C1326.11 957.981 1326.03 958.456 1326.03 959.032C1326.03 959.597 1326.11 960.067 1326.27 960.44C1326.45 960.803 1326.68 961.075 1326.98 961.256C1327.29 961.437 1327.66 961.528 1328.08 961.528C1328.55 961.528 1328.93 961.437 1329.22 961.256C1329.51 961.075 1329.73 960.824 1329.89 960.504L1331.63 961.176C1331.46 961.592 1331.2 961.949 1330.85 962.248C1330.51 962.547 1330.1 962.776 1329.62 962.936C1329.15 963.085 1328.64 963.16 1328.1 963.16ZM1336.85 963.16C1336.04 963.16 1335.3 963.016 1334.63 962.728C1333.97 962.44 1333.43 962.035 1333.01 961.512L1334.28 960.232C1334.53 960.616 1334.87 960.931 1335.3 961.176C1335.73 961.421 1336.23 961.544 1336.82 961.544C1337.24 961.544 1337.57 961.485 1337.81 961.368C1338.07 961.24 1338.2 961.043 1338.2 960.776C1338.2 960.605 1338.14 960.461 1338.02 960.344C1337.9 960.216 1337.67 960.115 1337.32 960.04L1335.91 959.752C1334.98 959.56 1334.32 959.272 1333.92 958.888C1333.54 958.493 1333.35 957.987 1333.35 957.368C1333.35 956.931 1333.48 956.52 1333.73 956.136C1334 955.752 1334.39 955.443 1334.92 955.208C1335.44 954.963 1336.09 954.84 1336.87 954.84C1337.67 954.84 1338.36 954.968 1338.95 955.224C1339.55 955.469 1340.01 955.837 1340.36 956.328L1339.04 957.608C1338.81 957.235 1338.5 956.952 1338.12 956.76C1337.74 956.557 1337.35 956.456 1336.93 956.456C1336.63 956.456 1336.38 956.488 1336.16 956.552C1335.95 956.616 1335.79 956.707 1335.68 956.824C1335.58 956.931 1335.52 957.069 1335.52 957.24C1335.52 957.411 1335.6 957.56 1335.75 957.688C1335.9 957.805 1336.17 957.907 1336.56 957.992L1338.2 958.328C1338.99 958.488 1339.55 958.76 1339.89 959.144C1340.23 959.517 1340.4 959.971 1340.4 960.504C1340.4 961.016 1340.27 961.475 1339.99 961.88C1339.72 962.275 1339.32 962.589 1338.79 962.824C1338.27 963.048 1337.62 963.16 1336.85 963.16Z" fill="#DADCE4"/>
<path d="M1383.43 963H1381.15L1380.27 960.424H1376.22L1375.34 963H1373.08L1376.94 952.44H1379.58L1383.43 963ZM1376.71 958.792H1379.77L1378.23 954.184L1376.71 958.792ZM1389.48 963.16C1388.99 963.16 1388.54 963.059 1388.14 962.856C1387.74 962.643 1387.41 962.355 1387.15 961.992C1386.89 961.619 1386.71 961.203 1386.62 960.744L1386.84 960.456L1386.71 963H1384.78V951.496H1386.97V957.256L1386.76 956.92C1386.93 956.323 1387.26 955.827 1387.74 955.432C1388.22 955.037 1388.82 954.84 1389.55 954.84C1390.17 954.84 1390.75 955.005 1391.26 955.336C1391.77 955.667 1392.17 956.141 1392.46 956.76C1392.76 957.379 1392.91 958.131 1392.91 959.016C1392.91 959.88 1392.76 960.621 1392.46 961.24C1392.17 961.859 1391.76 962.333 1391.24 962.664C1390.73 962.995 1390.14 963.16 1389.48 963.16ZM1388.83 961.48C1389.41 961.48 1389.87 961.272 1390.2 960.856C1390.54 960.429 1390.71 959.811 1390.71 959C1390.71 958.189 1390.55 957.576 1390.22 957.16C1389.89 956.733 1389.43 956.52 1388.84 956.52C1388.46 956.52 1388.13 956.621 1387.85 956.824C1387.57 957.027 1387.35 957.315 1387.19 957.688C1387.04 958.061 1386.97 958.504 1386.97 959.016C1386.97 959.539 1387.04 959.987 1387.19 960.36C1387.35 960.723 1387.57 961 1387.85 961.192C1388.14 961.384 1388.46 961.48 1388.83 961.48ZM1398.46 954.84C1399.27 954.84 1399.98 955.005 1400.58 955.336C1401.2 955.667 1401.68 956.141 1402.02 956.76C1402.38 957.379 1402.55 958.125 1402.55 959C1402.55 959.864 1402.38 960.611 1402.02 961.24C1401.68 961.859 1401.2 962.333 1400.58 962.664C1399.98 962.995 1399.27 963.16 1398.46 963.16C1397.66 963.16 1396.95 962.995 1396.33 962.664C1395.71 962.333 1395.22 961.859 1394.87 961.24C1394.53 960.611 1394.36 959.864 1394.36 959C1394.36 958.125 1394.53 957.379 1394.87 956.76C1395.22 956.141 1395.71 955.667 1396.33 955.336C1396.95 955.005 1397.66 954.84 1398.46 954.84ZM1398.46 956.472C1398.05 956.472 1397.7 956.568 1397.42 956.76C1397.14 956.941 1396.93 957.219 1396.78 957.592C1396.63 957.965 1396.55 958.435 1396.55 959C1396.55 959.565 1396.63 960.035 1396.78 960.408C1396.93 960.781 1397.14 961.064 1397.42 961.256C1397.7 961.437 1398.05 961.528 1398.46 961.528C1398.85 961.528 1399.19 961.437 1399.46 961.256C1399.75 961.064 1399.97 960.781 1400.12 960.408C1400.27 960.035 1400.34 959.565 1400.34 959C1400.34 958.435 1400.27 957.965 1400.12 957.592C1399.97 957.219 1399.75 956.941 1399.46 956.76C1399.19 956.568 1398.85 956.472 1398.46 956.472ZM1407.17 963.16C1406.64 963.16 1406.16 963.064 1405.73 962.872C1405.3 962.68 1404.96 962.376 1404.71 961.96C1404.46 961.533 1404.34 960.984 1404.34 960.312V955H1406.53V959.784C1406.53 960.403 1406.66 960.835 1406.91 961.08C1407.17 961.315 1407.54 961.432 1408.02 961.432C1408.24 961.432 1408.46 961.395 1408.67 961.32C1408.89 961.235 1409.07 961.107 1409.23 960.936C1409.41 960.765 1409.54 960.547 1409.63 960.28C1409.73 960.003 1409.78 959.677 1409.78 959.304V955H1411.97V963H1410.02L1409.94 961.608C1409.67 962.141 1409.3 962.536 1408.83 962.792C1408.38 963.037 1407.82 963.16 1407.17 963.16ZM1417.11 952.552V960.392C1417.11 960.776 1417.21 961.059 1417.4 961.24C1417.6 961.411 1417.87 961.496 1418.21 961.496C1418.48 961.496 1418.71 961.459 1418.92 961.384C1419.12 961.299 1419.3 961.187 1419.46 961.048L1419.81 962.504C1419.56 962.707 1419.24 962.867 1418.85 962.984C1418.47 963.101 1418.06 963.16 1417.64 963.16C1417.1 963.16 1416.63 963.08 1416.21 962.92C1415.81 962.76 1415.49 962.504 1415.25 962.152C1415.03 961.8 1414.92 961.331 1414.92 960.744V953.16L1417.11 952.552ZM1419.67 955V956.632H1413.45V955H1419.67Z" fill="#DADCE4"/>
<path d="M1462.06 960.088C1461.85 960.771 1461.53 961.341 1461.1 961.8C1460.66 962.259 1460.14 962.6 1459.54 962.824C1458.95 963.048 1458.29 963.16 1457.58 963.16C1456.53 963.16 1455.62 962.941 1454.86 962.504C1454.1 962.067 1453.51 961.443 1453.1 960.632C1452.69 959.821 1452.49 958.851 1452.49 957.72C1452.49 956.589 1452.69 955.619 1453.1 954.808C1453.51 953.997 1454.1 953.373 1454.86 952.936C1455.62 952.499 1456.52 952.28 1457.54 952.28C1458.27 952.28 1458.93 952.381 1459.51 952.584C1460.1 952.776 1460.6 953.075 1461 953.48C1461.42 953.885 1461.72 954.397 1461.91 955.016L1459.91 955.864C1459.73 955.224 1459.45 954.771 1459.08 954.504C1458.71 954.227 1458.23 954.088 1457.64 954.088C1457.06 954.088 1456.56 954.227 1456.12 954.504C1455.69 954.781 1455.36 955.192 1455.13 955.736C1454.89 956.269 1454.78 956.931 1454.78 957.72C1454.78 958.499 1454.88 959.16 1455.1 959.704C1455.32 960.248 1455.65 960.659 1456.07 960.936C1456.5 961.213 1457.02 961.352 1457.64 961.352C1458.22 961.352 1458.71 961.197 1459.13 960.888C1459.56 960.579 1459.85 960.109 1460.02 959.48L1462.06 960.088ZM1467.36 954.84C1468.17 954.84 1468.88 955.005 1469.49 955.336C1470.11 955.667 1470.59 956.141 1470.93 956.76C1471.28 957.379 1471.46 958.125 1471.46 959C1471.46 959.864 1471.28 960.611 1470.93 961.24C1470.59 961.859 1470.11 962.333 1469.49 962.664C1468.88 962.995 1468.17 963.16 1467.36 963.16C1466.56 963.16 1465.85 962.995 1465.23 962.664C1464.62 962.333 1464.13 961.859 1463.78 961.24C1463.44 960.611 1463.27 959.864 1463.27 959C1463.27 958.125 1463.44 957.379 1463.78 956.76C1464.13 956.141 1464.62 955.667 1465.23 955.336C1465.85 955.005 1466.56 954.84 1467.36 954.84ZM1467.36 956.472C1466.96 956.472 1466.61 956.568 1466.32 956.76C1466.05 956.941 1465.83 957.219 1465.68 957.592C1465.53 957.965 1465.46 958.435 1465.46 959C1465.46 959.565 1465.53 960.035 1465.68 960.408C1465.83 960.781 1466.05 961.064 1466.32 961.256C1466.61 961.437 1466.96 961.528 1467.36 961.528C1467.76 961.528 1468.09 961.437 1468.37 961.256C1468.66 961.064 1468.88 960.781 1469.03 960.408C1469.18 960.035 1469.25 959.565 1469.25 959C1469.25 958.435 1469.18 957.965 1469.03 957.592C1468.88 957.219 1468.66 956.941 1468.37 956.76C1468.09 956.568 1467.76 956.472 1467.36 956.472ZM1473.29 963V955H1475.26L1475.39 957.4L1475.12 957.144C1475.24 956.621 1475.45 956.189 1475.72 955.848C1476 955.507 1476.34 955.256 1476.73 955.096C1477.14 954.925 1477.58 954.84 1478.06 954.84C1478.62 954.84 1479.11 954.947 1479.53 955.16C1479.97 955.373 1480.31 955.699 1480.56 956.136C1480.81 956.563 1480.94 957.101 1480.94 957.752V963H1478.75V958.376C1478.75 957.693 1478.62 957.224 1478.35 956.968C1478.08 956.701 1477.74 956.568 1477.31 956.568C1477.01 956.568 1476.72 956.643 1476.43 956.792C1476.15 956.931 1475.92 957.16 1475.74 957.48C1475.57 957.8 1475.48 958.227 1475.48 958.76V963H1473.29ZM1485.97 952.552V960.392C1485.97 960.776 1486.06 961.059 1486.26 961.24C1486.46 961.411 1486.73 961.496 1487.07 961.496C1487.34 961.496 1487.57 961.459 1487.78 961.384C1487.98 961.299 1488.16 961.187 1488.32 961.048L1488.67 962.504C1488.42 962.707 1488.1 962.867 1487.71 962.984C1487.33 963.101 1486.92 963.16 1486.5 963.16C1485.96 963.16 1485.49 963.08 1485.07 962.92C1484.67 962.76 1484.35 962.504 1484.11 962.152C1483.89 961.8 1483.78 961.331 1483.78 960.744V953.16L1485.97 952.552ZM1488.53 955V956.632H1482.3V955H1488.53ZM1494.65 957.896C1494.65 957.437 1494.52 957.08 1494.25 956.824C1493.99 956.568 1493.65 956.44 1493.23 956.44C1492.83 956.44 1492.48 956.541 1492.19 956.744C1491.89 956.947 1491.67 957.283 1491.53 957.752L1489.66 957.176C1489.84 956.472 1490.23 955.907 1490.84 955.48C1491.46 955.053 1492.29 954.84 1493.32 954.84C1494.03 954.84 1494.64 954.952 1495.16 955.176C1495.68 955.389 1496.09 955.715 1496.38 956.152C1496.68 956.589 1496.83 957.139 1496.83 957.8V961.048C1496.83 961.453 1497.02 961.656 1497.4 961.656C1497.58 961.656 1497.75 961.629 1497.91 961.576L1497.79 962.936C1497.51 963.075 1497.16 963.144 1496.75 963.144C1496.37 963.144 1496.04 963.08 1495.74 962.952C1495.44 962.824 1495.2 962.632 1495.03 962.376C1494.86 962.109 1494.78 961.779 1494.78 961.384V961.32L1495.16 961.256C1495.1 961.661 1494.92 962.008 1494.63 962.296C1494.35 962.573 1493.99 962.787 1493.58 962.936C1493.17 963.085 1492.75 963.16 1492.31 963.16C1491.77 963.16 1491.3 963.08 1490.91 962.92C1490.51 962.749 1490.21 962.504 1489.99 962.184C1489.78 961.864 1489.67 961.469 1489.67 961C1489.67 960.403 1489.87 959.917 1490.25 959.544C1490.63 959.16 1491.18 958.899 1491.9 958.76L1494.91 958.152L1494.89 959.512L1492.97 959.896C1492.61 959.971 1492.33 960.072 1492.14 960.2C1491.96 960.317 1491.87 960.515 1491.87 960.792C1491.87 961.059 1491.96 961.261 1492.15 961.4C1492.36 961.539 1492.6 961.608 1492.87 961.608C1493.1 961.608 1493.32 961.581 1493.53 961.528C1493.74 961.475 1493.93 961.389 1494.11 961.272C1494.28 961.155 1494.41 960.995 1494.51 960.792C1494.6 960.589 1494.65 960.344 1494.65 960.056V957.896ZM1502.88 954.84C1503.59 954.84 1504.2 954.947 1504.69 955.16C1505.19 955.363 1505.59 955.645 1505.89 956.008C1506.2 956.36 1506.41 956.755 1506.54 957.192L1504.49 957.928C1504.39 957.448 1504.21 957.085 1503.95 956.84C1503.69 956.595 1503.35 956.472 1502.91 956.472C1502.5 956.472 1502.16 956.568 1501.87 956.76C1501.58 956.941 1501.36 957.224 1501.21 957.608C1501.06 957.981 1500.99 958.451 1500.99 959.016C1500.99 959.581 1501.06 960.051 1501.21 960.424C1501.37 960.797 1501.6 961.075 1501.89 961.256C1502.18 961.437 1502.53 961.528 1502.93 961.528C1503.25 961.528 1503.52 961.475 1503.74 961.368C1503.97 961.251 1504.15 961.085 1504.29 960.872C1504.44 960.659 1504.54 960.403 1504.59 960.104L1506.57 960.744C1506.46 961.224 1506.24 961.645 1505.92 962.008C1505.6 962.371 1505.19 962.653 1504.69 962.856C1504.18 963.059 1503.6 963.16 1502.94 963.16C1502.12 963.16 1501.4 962.995 1500.77 962.664C1500.14 962.333 1499.65 961.859 1499.31 961.24C1498.97 960.621 1498.8 959.875 1498.8 959C1498.8 958.125 1498.97 957.379 1499.31 956.76C1499.65 956.141 1500.13 955.667 1500.75 955.336C1501.37 955.005 1502.08 954.84 1502.88 954.84ZM1511.11 952.552V960.392C1511.11 960.776 1511.21 961.059 1511.4 961.24C1511.6 961.411 1511.87 961.496 1512.21 961.496C1512.48 961.496 1512.71 961.459 1512.92 961.384C1513.12 961.299 1513.3 961.187 1513.46 961.048L1513.81 962.504C1513.56 962.707 1513.24 962.867 1512.85 962.984C1512.47 963.101 1512.06 963.16 1511.64 963.16C1511.1 963.16 1510.63 963.08 1510.21 962.92C1509.81 962.76 1509.49 962.504 1509.25 962.152C1509.03 961.8 1508.92 961.331 1508.92 960.744V953.16L1511.11 952.552ZM1513.67 955V956.632H1507.45V955H1513.67Z" fill="#DADCE4"/>
</g>
<defs>
<linearGradient id="paint0_linear_1289_7224" x1="1600.61" y1="839.98" x2="1460.5" y2="469.5" gradientUnits="userSpaceOnUse">
<stop stop-color="#F15A29"/>
<stop offset="1" stop-color="#F15A29" stop-opacity="0"/>
</linearGradient>
<linearGradient id="paint1_linear_1289_7224" x1="1210.5" y1="345.5" x2="1902" y2="18" gradientUnits="userSpaceOnUse">
<stop stop-color="#0D101C"/>
<stop offset="1" stop-color="#27AAE1"/>
</linearGradient>
<linearGradient id="paint2_linear_1289_7224" x1="155.5" y1="192.5" x2="227" y2="490" gradientUnits="userSpaceOnUse">
<stop stop-color="#2BB673"/>
<stop offset="1" stop-color="#0D101C"/>
</linearGradient>
<clipPath id="clip0_1289_7224">
<rect width="1920" height="998" fill="white"/>
</clipPath>
<clipPath id="clip1_1289_7224">
<rect width="1921" height="900" fill="white" transform="translate(-1 40)"/>
</clipPath>
</defs>
</svg>
