<svg width="1920" height="1080" viewBox="0 0 1920 1080" fill="none" xmlns="http://www.w3.org/2000/svg">
<g clip-path="url(#clip0_1289_4950)">
<rect width="1920" height="1080" fill="#0D101C"/>
<circle cx="960" cy="541" r="1226" fill="#F15A29"/>
<line x1="960.5" y1="-557" x2="960.5" y2="1637" stroke="#0D101C"/>
<line x1="961" y1="-557" x2="961" y2="1637" stroke="#E23F09" stroke-width="2"/>
<line x1="2032" y1="271" x2="-113" y2="271" stroke="#E23F09" stroke-width="2"/>
<line x1="2032" y1="542" x2="-113" y2="542" stroke="#E23F09" stroke-width="2"/>
<path d="M1754.21 539.83L1754.21 539.832C1754.21 545.933 1759.06 550.924 1765 550.925L1765 528.736C1759.06 528.736 1754.21 533.729 1754.21 539.83Z" fill="#E23F09" stroke="#E23F09"/>
<path d="M1641.2 558.662L1641.21 558.662L1641.21 521C1641.21 521 1641.21 521 1641.2 521C1630.8 521 1622.37 529.43 1622.37 539.831C1622.37 550.231 1630.8 558.662 1641.2 558.662Z" fill="#E23F09" stroke="#E23F09"/>
<path d="M1494.98 539.83L1494.98 539.832C1494.98 547.912 1501.46 554.522 1509.37 554.524L1509.37 525.138C1501.46 525.138 1494.98 531.75 1494.98 539.83Z" fill="#E23F09" stroke="#E23F09"/>
<rect x="1381.98" y="539.831" width="11.4495" height="11.4495" transform="rotate(135 1381.98 539.831)" fill="#E23F09"/>
<path d="M1233.96 539.831C1233.96 529.43 1242.39 521 1252.79 521H1186.14V558.662H1252.79C1242.39 558.662 1233.96 550.231 1233.96 539.831Z" fill="#E23F09" stroke="#E23F09"/>
<rect x="1073.14" y="539.831" width="11.4495" height="11.4495" transform="rotate(135 1073.14 539.831)" fill="#E23F09"/>
<path d="M931.952 539.829L931.952 539.832C931.952 546.706 937.352 552.329 943.952 552.331L943.952 527.331C937.352 527.331 931.953 532.956 931.952 539.829Z" fill="#E23F09" stroke="#E23F09"/>
<path d="M818.95 558.662L818.952 558.662L818.952 521C818.952 521 818.952 521 818.95 521C808.55 521 800.119 529.43 800.119 539.831C800.119 550.231 808.55 558.662 818.95 558.662Z" fill="#E23F09" stroke="#E23F09"/>
<rect x="687.119" y="539.831" width="8.09032" height="8.09032" transform="rotate(135 687.119 539.831)" fill="#E23F09"/>
<rect x="562.678" y="539.831" width="8.09032" height="8.09032" transform="rotate(135 562.678 539.831)" fill="#E23F09"/>
<rect x="438.237" y="539.831" width="19.5447" height="19.5447" transform="rotate(135 438.237 539.831)" fill="#E23F09"/>
<rect x="297.596" y="539.831" width="8.09032" height="8.09032" transform="rotate(135 297.596 539.831)" fill="#E23F09"/>
<path d="M155.155 539.829L155.155 539.832C155.155 550.006 163.256 558.329 173.155 558.331L173.155 521.331C163.256 521.331 155.156 529.656 155.155 539.829Z" fill="#E23F09" stroke="#E23F09"/>
<line x1="2032" y1="812" x2="-113" y2="812" stroke="#E23F09" stroke-width="2"/>
<path d="M876.819 603.8C867.579 603.8 859.119 601.82 851.439 597.86C843.759 593.78 837.639 587.84 833.079 580.04C828.519 572.12 826.239 562.64 826.239 551.6C826.239 542.12 827.619 533.18 830.379 524.78C833.139 516.38 837.099 508.94 842.259 502.46C847.419 495.98 853.839 490.88 861.519 487.16C869.319 483.32 878.199 481.4 888.159 481.4C897.399 481.4 905.739 483.44 913.179 487.52C920.739 491.6 926.739 497.54 931.179 505.34C935.739 513.02 938.019 522.44 938.019 533.6C938.019 542.96 936.699 551.9 934.059 560.42C931.419 568.82 927.459 576.26 922.179 582.74C917.019 589.22 910.599 594.38 902.919 598.22C895.359 601.94 886.659 603.8 876.819 603.8ZM878.259 586.88C884.859 586.88 890.619 585.38 895.539 582.38C900.579 579.26 904.779 575.18 908.139 570.14C911.499 564.98 914.019 559.22 915.699 552.86C917.379 546.5 918.219 540.08 918.219 533.6C918.219 526.16 916.899 519.8 914.259 514.52C911.619 509.24 907.899 505.22 903.099 502.46C898.419 499.7 892.899 498.32 886.539 498.32C879.939 498.32 874.119 499.88 869.079 503C864.039 506 859.779 510.08 856.299 515.24C852.939 520.28 850.419 525.98 848.739 532.34C847.059 538.58 846.219 545 846.219 551.6C846.219 559.04 847.539 565.4 850.179 570.68C852.819 575.96 856.539 579.98 861.339 582.74C866.139 585.5 871.779 586.88 878.259 586.88ZM975.145 603.44C968.665 603.44 962.965 602 958.045 599.12C953.245 596.24 949.765 592.1 947.605 586.7C945.565 581.3 945.445 574.76 947.245 567.08L960.025 512H979.285L966.865 565.46C965.185 572.66 965.845 578.18 968.845 582.02C971.965 585.74 976.585 587.6 982.705 587.6C987.505 587.6 991.705 586.58 995.305 584.54C999.025 582.38 1002.15 579.26 1004.67 575.18C1007.19 570.98 1009.11 565.82 1010.43 559.7L1021.59 512H1040.85L1019.97 602H1002.87L1006.65 579.32L1008.45 580.76C1006.05 588.32 1001.79 594.02 995.665 597.86C989.665 601.58 982.825 603.44 975.145 603.44ZM1039.69 602L1060.57 512H1076.77L1073.89 536.3L1071.91 534.5C1073.83 529.46 1076.41 525.14 1079.65 521.54C1083.01 517.94 1086.85 515.18 1091.17 513.26C1095.49 511.22 1099.99 510.2 1104.67 510.2C1106.59 510.2 1108.27 510.32 1109.71 510.56C1111.27 510.8 1112.59 511.22 1113.67 511.82L1108.45 529.1C1107.25 528.5 1105.87 528.08 1104.31 527.84C1102.87 527.48 1101.01 527.3 1098.73 527.3C1094.41 527.3 1090.33 528.32 1086.49 530.36C1082.65 532.28 1079.29 535.28 1076.41 539.36C1073.53 543.44 1071.31 548.78 1069.75 555.38L1058.95 602H1039.69Z" fill="#0D101C"/>
<circle cx="960" cy="540" r="398" stroke="#E23F09" stroke-width="2"/>
<circle cx="2057" cy="540" r="697" stroke="#E23F09" stroke-width="2"/>
<circle cx="-137" cy="540" r="697" stroke="#E23F09" stroke-width="2"/>
<circle cx="960" cy="540" r="730" stroke="#E23F09" stroke-width="2"/>
</g>
<defs>
<clipPath id="clip0_1289_4950">
<rect width="1920" height="1080" fill="white"/>
</clipPath>
</defs>
</svg>
