<svg width="1920" height="1080" viewBox="0 0 1920 1080" fill="none" xmlns="http://www.w3.org/2000/svg">
<g clip-path="url(#clip0_1289_5043)">
<rect width="1920" height="1080" fill="#0D101C"/>
<circle cx="960" cy="541" r="1226" fill="#F15A29"/>
<circle cx="960" cy="540" r="1281" fill="#2BB673"/>
<path d="M1765 558.662L1765 558.662L1765 521C1765 521 1765 521 1765 521C1754.6 521 1746.17 529.43 1746.17 539.831C1746.17 550.231 1754.6 558.662 1765 558.662Z" fill="#028433" stroke="#028433"/>
<path d="M1618.77 539.83L1618.77 539.832C1618.77 547.912 1625.25 554.522 1633.17 554.524L1633.17 525.138C1625.25 525.138 1618.78 531.75 1618.77 539.83Z" fill="#028433" stroke="#028433"/>
<rect x="1505.77" y="539.831" width="11.4495" height="11.4495" transform="rotate(135 1505.77 539.831)" fill="#028433"/>
<rect x="1376.58" y="539.831" width="11.4495" height="11.4495" transform="rotate(135 1376.58 539.831)" fill="#028433"/>
<path d="M1235.39 539.829L1235.39 539.832C1235.39 546.706 1240.79 552.329 1247.39 552.331L1247.39 527.331C1240.79 527.331 1235.39 532.956 1235.39 539.829Z" fill="#028433" stroke="#028433"/>
<path d="M1122.39 558.662L1122.39 558.662L1122.39 521C1122.39 521 1122.39 521 1122.39 521C1111.99 521 1103.56 529.43 1103.56 539.831C1103.56 550.231 1111.99 558.662 1122.39 558.662Z" fill="#028433" stroke="#028433"/>
<rect x="990.558" y="539.831" width="8.09032" height="8.09032" transform="rotate(135 990.558 539.831)" fill="#028433"/>
<rect x="866.116" y="539.831" width="8.09032" height="8.09032" transform="rotate(135 866.116 539.831)" fill="#028433"/>
<path d="M722.844 539.831C722.844 529.43 731.274 521 741.675 521H675.031V558.662H741.675C731.274 558.662 722.844 550.231 722.844 539.831Z" fill="#028433" stroke="#028433"/>
<rect x="562.031" y="539.831" width="19.5447" height="19.5447" transform="rotate(135 562.031 539.831)" fill="#028433"/>
<rect x="421.391" y="539.831" width="8.09032" height="8.09032" transform="rotate(135 421.391 539.831)" fill="#028433"/>
<path d="M278.949 539.829L278.949 539.832C278.949 550.006 287.05 558.329 296.949 558.331L296.949 521.331C287.05 521.331 278.951 529.656 278.949 539.829Z" fill="#028433" stroke="#028433"/>
<path d="M155.155 539.83L155.155 539.832C155.155 545.933 160.013 550.924 165.95 550.925L165.95 528.736C160.013 528.736 155.156 533.729 155.155 539.83Z" fill="#028433" stroke="#028433"/>
<line x1="1931" y1="541" x2="-299" y2="541" stroke="#028433" stroke-width="2"/>
<line x1="1931" y1="364" x2="-299" y2="364" stroke="#028433" stroke-width="2"/>
<path d="M779.865 603.44C771.345 603.44 763.485 601.46 756.285 597.5C749.205 593.42 743.505 587.54 739.185 579.86C734.985 572.18 732.885 563 732.885 552.32C732.885 543.08 734.265 534.2 737.025 525.68C739.785 517.16 743.805 509.6 749.085 503C754.485 496.28 761.085 491 768.885 487.16C776.685 483.32 785.685 481.4 795.885 481.4C803.565 481.4 810.585 482.54 816.945 484.82C823.425 487.1 828.945 490.7 833.505 495.62C838.065 500.42 841.305 506.84 843.225 514.88L824.325 520.1C822.525 512.3 819.105 506.66 814.065 503.18C809.025 499.7 802.725 497.96 795.165 497.96C788.325 497.96 782.265 499.46 776.985 502.46C771.825 505.34 767.445 509.3 763.845 514.34C760.245 519.26 757.485 524.9 755.565 531.26C753.765 537.5 752.865 543.92 752.865 550.52C752.865 558.08 754.125 564.62 756.645 570.14C759.285 575.54 762.945 579.68 767.625 582.56C772.425 585.44 778.125 586.88 784.725 586.88C790.845 586.88 796.125 585.86 800.565 583.82C805.005 581.66 808.605 578.78 811.365 575.18C814.245 571.46 816.345 567.14 817.665 562.22L818.925 557.18H784.365L787.965 541.7H838.725L823.785 602H809.745L814.965 576.98L816.945 579.32C814.665 584.48 811.785 588.86 808.305 592.46C804.945 596.06 800.865 598.82 796.065 600.74C791.385 602.54 785.985 603.44 779.865 603.44ZM880.482 603.44C873.882 603.44 868.002 601.88 862.842 598.76C857.682 595.52 853.662 591.02 850.782 585.26C847.902 579.5 846.462 572.72 846.462 564.92C846.462 557.6 847.542 550.64 849.702 544.04C851.982 537.44 855.102 531.62 859.062 526.58C863.142 521.42 867.942 517.4 873.462 514.52C879.102 511.64 885.222 510.2 891.822 510.2C896.742 510.2 901.182 511.04 905.142 512.72C909.222 514.4 912.642 516.86 915.402 520.1C918.162 523.34 920.022 527.3 920.982 531.98L925.662 512H944.922L924.042 602H906.942L910.002 585.26C907.002 590.78 902.862 595.22 897.582 598.58C892.422 601.82 886.722 603.44 880.482 603.44ZM887.142 588.14C890.982 588.14 894.582 587.12 897.942 585.08C901.422 583.04 904.422 580.22 906.942 576.62C909.582 573.02 911.622 568.88 913.062 564.2C914.622 559.4 915.402 554.42 915.402 549.26C915.402 544.46 914.502 540.32 912.702 536.84C911.022 533.24 908.622 530.48 905.502 528.56C902.502 526.64 898.902 525.68 894.702 525.68C890.262 525.68 886.242 526.7 882.642 528.74C879.162 530.78 876.102 533.6 873.462 537.2C870.942 540.68 868.962 544.76 867.522 549.44C866.082 554 865.362 558.8 865.362 563.84C865.362 569 866.202 573.38 867.882 576.98C869.562 580.58 872.022 583.34 875.262 585.26C878.502 587.18 882.462 588.14 887.142 588.14ZM943.876 602L964.756 512H981.676L977.896 534.68L976.096 533.42C978.616 525.74 982.996 519.98 989.236 516.14C995.476 512.18 1002.44 510.2 1010.12 510.2C1016.48 510.2 1021.94 511.7 1026.5 514.7C1031.06 517.58 1034.24 521.78 1036.04 527.3C1037.96 532.82 1037.96 539.48 1036.04 547.28L1023.26 602H1004L1016.6 548.36C1018.28 541.4 1017.74 535.94 1014.98 531.98C1012.34 528.02 1008.08 526.04 1002.2 526.04C997.396 526.04 993.136 527.12 989.416 529.28C985.696 531.44 982.576 534.62 980.056 538.82C977.656 542.9 975.676 548.06 974.116 554.3L963.136 602H943.876ZM1064.3 602L1076.72 548.36C1078.28 541.4 1077.74 535.94 1075.1 531.98C1072.46 528.02 1068.26 526.04 1062.5 526.04C1057.58 526.04 1053.26 527.12 1049.54 529.28C1045.94 531.44 1042.88 534.62 1040.36 538.82C1037.84 542.9 1035.86 548.06 1034.42 554.3L1032.62 536.84C1035.86 527.96 1040.84 521.3 1047.56 516.86C1054.4 512.42 1061.96 510.2 1070.24 510.2C1076.6 510.2 1082.06 511.7 1086.62 514.7C1091.18 517.58 1094.36 521.78 1096.16 527.3C1098.08 532.82 1098.14 539.48 1096.34 547.28L1083.56 602H1064.3ZM1148.3 603.62C1139.78 603.62 1132.46 601.88 1126.34 598.4C1120.22 594.8 1115.48 589.94 1112.12 583.82C1108.76 577.7 1107.08 570.8 1107.08 563.12C1107.08 553.52 1109 544.76 1112.84 536.84C1116.68 528.8 1122.26 522.38 1129.58 517.58C1136.9 512.78 1145.72 510.38 1156.04 510.38C1163.72 510.38 1170.32 511.94 1175.84 515.06C1181.36 518.18 1185.56 522.56 1188.44 528.2C1191.32 533.72 1192.76 540.2 1192.76 547.64C1192.76 550.04 1192.58 552.5 1192.22 555.02C1191.98 557.54 1191.44 560.06 1190.6 562.58H1118.06V547.82H1180.16L1173.14 552.86C1173.62 551.42 1173.92 550.04 1174.04 548.72C1174.16 547.28 1174.22 545.96 1174.22 544.76C1174.22 540.8 1173.44 537.38 1171.88 534.5C1170.44 531.62 1168.28 529.4 1165.4 527.84C1162.52 526.28 1159.1 525.5 1155.14 525.5C1149.74 525.5 1145.12 526.64 1141.28 528.92C1137.56 531.08 1134.56 534.08 1132.28 537.92C1130 541.64 1128.38 545.78 1127.42 550.34C1126.46 554.9 1125.98 559.4 1125.98 563.84C1125.98 568.88 1126.94 573.26 1128.86 576.98C1130.9 580.58 1133.66 583.4 1137.14 585.44C1140.74 587.48 1144.94 588.5 1149.74 588.5C1155.38 588.5 1159.94 587.3 1163.42 584.9C1167.02 582.5 1169.9 579.44 1172.06 575.72L1187.54 584C1185.14 588.08 1181.96 591.62 1178 594.62C1174.16 597.5 1169.72 599.72 1164.68 601.28C1159.76 602.84 1154.3 603.62 1148.3 603.62Z" fill="#0D101C"/>
<line x1="1931" y1="907" x2="-299" y2="907" stroke="#028433" stroke-width="2"/>
<rect x="-2331" y="-1383" width="4333" height="2288" rx="1144" stroke="#028433" stroke-width="2"/>
<rect x="-2556" y="-1557" width="4991" height="2636" rx="1144" stroke="#028433" stroke-width="2"/>
<rect x="-1969" y="-1105" width="3463" height="1828" rx="914" stroke="#028433" stroke-width="2"/>
<rect x="-1766" y="-898" width="2725" height="1438" rx="719" stroke="#028433" stroke-width="2"/>
<rect x="-1605" y="-720" width="2163" height="1082" rx="541" stroke="#028433" stroke-width="2"/>
<line x1="1931" y1="725" x2="-299" y2="725" stroke="#028433" stroke-width="2"/>
</g>
<defs>
<clipPath id="clip0_1289_5043">
<rect width="1920" height="1080" fill="white"/>
</clipPath>
</defs>
</svg>
