<svg width="1920" height="1080" viewBox="0 0 1920 1080" fill="none" xmlns="http://www.w3.org/2000/svg">
<g clip-path="url(#clip0_1289_5102)">
<rect width="1920" height="1080" fill="#0D101C"/>
<circle cx="960" cy="541" r="1226" fill="#F15A29"/>
<circle cx="960" cy="540" r="1281" fill="#2BB673"/>
<circle cx="960" cy="540" r="1432" fill="#27AAE1"/>
<line x1="961" y1="-483" x2="961" y2="1565" stroke="#0085BD" stroke-width="2"/>
<line x1="1984" y1="542" x2="-64" y2="542" stroke="#0085BD" stroke-width="2"/>
<path d="M945.954 486.2L918.414 605H898.974L926.514 486.2H945.954ZM981.589 606.98C974.749 606.98 968.449 605.96 962.689 603.92C957.049 601.88 952.129 598.94 947.929 595.1C943.729 591.26 940.429 586.76 938.029 581.6L952.609 572.78C955.129 578.9 958.789 583.64 963.589 587C968.509 590.24 974.389 591.86 981.229 591.86C986.749 591.86 991.009 590.78 994.009 588.62C997.009 586.46 998.509 583.58 998.509 579.98C998.509 577.34 997.669 575.24 995.989 573.68C994.309 572 991.729 570.68 988.249 569.72L973.849 565.4C965.929 563.24 960.049 560.06 956.209 555.86C952.489 551.54 950.629 546.56 950.629 540.92C950.629 535.52 952.069 530.78 954.949 526.7C957.829 522.5 961.969 519.2 967.369 516.8C972.769 514.4 979.129 513.2 986.449 513.2C995.209 513.2 1002.95 515 1009.67 518.6C1016.39 522.2 1021.31 527.42 1024.43 534.26L1010.57 543.62C1009.25 540.5 1007.39 537.8 1004.99 535.52C1002.59 533.24 999.769 531.44 996.529 530.12C993.409 528.8 989.929 528.14 986.089 528.14C980.209 528.14 975.829 529.16 972.949 531.2C970.069 533.12 968.629 535.76 968.629 539.12C968.629 542.12 969.769 544.4 972.049 545.96C974.329 547.52 977.029 548.78 980.149 549.74L997.609 554.96C1003.85 556.76 1008.71 559.64 1012.19 563.6C1015.67 567.44 1017.41 572 1017.41 577.28C1017.41 583.4 1015.91 588.68 1012.91 593.12C1009.91 597.56 1005.71 600.98 1000.31 603.38C994.909 605.78 988.669 606.98 981.589 606.98Z" fill="#0D101C"/>
<rect x="441" y="-117" width="1038" height="1314" stroke="#0085BD" stroke-width="2"/>
<rect x="-370" y="226" width="2660" height="628" stroke="#0085BD" stroke-width="2"/>
<rect x="180" y="-154" width="1560" height="1388" stroke="#0085BD" stroke-width="2"/>
<circle cx="960" cy="540" r="780" stroke="#0085BD" stroke-width="2"/>
<circle cx="960" cy="540" r="314" stroke="#0085BD" stroke-width="2"/>
<circle cx="-661.5" cy="540.5" r="1100.5" stroke="#0085BD" stroke-width="2"/>
<circle cx="2581.5" cy="540.5" r="1100.5" stroke="#0085BD" stroke-width="2"/>
<path d="M1746.17 539.831C1746.17 529.43 1754.6 521 1765 521H1698.36V558.662H1765C1754.6 558.662 1746.17 550.231 1746.17 539.831Z" fill="#0085BD" stroke="#0085BD"/>
<path d="M1570.96 539.829L1570.96 539.832C1570.96 547.912 1577.44 554.522 1585.36 554.523L1585.36 525.138C1577.44 525.138 1570.96 531.749 1570.96 539.829Z" fill="#0085BD" stroke="#0085BD"/>
<rect x="1457.96" y="539.831" width="11.4495" height="11.4495" transform="rotate(135 1457.96 539.831)" fill="#0085BD"/>
<rect x="1328.77" y="539.831" width="11.4495" height="11.4495" transform="rotate(135 1328.77 539.831)" fill="#0085BD"/>
<path d="M1187.58 539.83L1187.58 539.832C1187.58 546.706 1192.98 552.33 1199.58 552.331L1199.58 527.331C1192.98 527.331 1187.58 532.956 1187.58 539.83Z" fill="#0085BD" stroke="#0085BD"/>
<path d="M1074.58 558.661L1074.58 558.661L1074.58 521C1074.58 521 1074.58 521 1074.58 521C1064.18 521 1055.75 529.43 1055.75 539.83C1055.75 550.231 1064.18 558.661 1074.58 558.661Z" fill="#0085BD" stroke="#0085BD"/>
<rect x="942.747" y="539.831" width="8.09032" height="8.09032" transform="rotate(135 942.747 539.831)" fill="#0085BD"/>
<rect x="818.305" y="539.831" width="8.09032" height="8.09032" transform="rotate(135 818.305 539.831)" fill="#0085BD"/>
<rect x="693.864" y="539.831" width="19.5447" height="19.5447" transform="rotate(135 693.864 539.831)" fill="#0085BD"/>
<rect x="553.223" y="539.831" width="8.09032" height="8.09032" transform="rotate(135 553.223 539.831)" fill="#0085BD"/>
<path d="M428.78 558.661L428.782 558.661L428.782 521C428.782 521 428.782 521 428.78 521C418.38 521 409.949 529.43 409.949 539.83C409.949 550.231 418.38 558.661 428.78 558.661Z" fill="#0085BD" stroke="#0085BD"/>
<path d="M278.949 539.829L278.949 539.833C278.949 550.006 287.05 558.329 296.949 558.331L296.949 521.331C287.05 521.331 278.951 529.656 278.949 539.829Z" fill="#0085BD" stroke="#0085BD"/>
<path d="M155.155 539.83L155.155 539.832C155.155 545.933 160.013 550.924 165.95 550.925L165.95 528.736C160.013 528.736 155.156 533.729 155.155 539.83Z" fill="#0085BD" stroke="#0085BD"/>
</g>
<defs>
<clipPath id="clip0_1289_5102">
<rect width="1920" height="1080" fill="white"/>
</clipPath>
</defs>
</svg>
