<svg width="1920" height="1080" viewBox="0 0 1920 1080" fill="none" xmlns="http://www.w3.org/2000/svg">
<g clip-path="url(#clip0_1289_5161)">
<rect width="1920" height="1080" fill="#0D101C"/>
<circle cx="960" cy="541" r="1226" fill="#F15A29"/>
<circle cx="960" cy="540" r="1281" fill="#2BB673"/>
<circle cx="960" cy="540" r="1432" fill="#27AAE1"/>
<circle cx="960" cy="540" r="1281" fill="#0D101C"/>
<line x1="961" y1="-557" x2="961" y2="1637" stroke="#1D243F" stroke-width="2"/>
<line x1="2033" y1="542" x2="-112" y2="542" stroke="#1D243F" stroke-width="2"/>
<rect x="31" y="540.5" width="7.10811" height="7.10811" transform="rotate(-45 31 540.5)" fill="#27AAE1"/>
<path d="M177.052 540.501L177.052 540.499C177.052 535.275 172.552 531.001 167.052 531L167.052 550C172.552 550 177.051 545.725 177.052 540.501Z" fill="#2BB673"/>
<path d="M322.052 540.502L322.052 540.498C322.052 529.775 313.501 521.002 303.052 521L303.052 560C313.501 560 322.05 551.225 322.052 540.502Z" fill="#F15A29"/>
<path d="M448.052 540.499L448.052 540.501C448.052 547.375 453.453 552.999 460.052 553L460.052 528C453.453 528 448.053 533.625 448.052 540.499Z" fill="#2BB673"/>
<rect x="586.052" y="540.5" width="7.10811" height="7.10811" transform="rotate(-45 586.052 540.5)" fill="#F15A29"/>
<rect x="722.105" y="540.5" width="7.10811" height="7.10811" transform="rotate(-45 722.105 540.5)" fill="#27AAE1"/>
<path d="M870.156 547L870.158 547C876.757 547 882.156 541.149 882.157 534L858.157 534C858.157 541.149 863.557 546.999 870.156 547Z" fill="#F15A29"/>
<path d="M1008.16 540.499V540.501C1008.16 549.025 1015.81 555.999 1025.16 556V525C1015.81 525 1008.16 531.975 1008.16 540.499Z" fill="#2BB673"/>
<path d="M1151.16 540.499V540.501C1151.16 549.025 1158.81 555.999 1168.16 556V525C1158.81 525 1151.16 531.975 1151.16 540.499Z" fill="#F15A29"/>
<rect x="1300.94" y="533.715" width="9.59593" height="9.59593" transform="rotate(45 1300.94 533.715)" fill="#27AAE1"/>
<rect x="1440.51" y="533.715" width="9.59593" height="9.59593" transform="rotate(45 1440.51 533.715)" fill="#F15A29"/>
<rect x="1580.08" y="533.715" width="9.59593" height="9.59593" transform="rotate(45 1580.08 533.715)" fill="#F15A29"/>
<path d="M1721.87 545L1721.87 545C1726.82 545 1730.87 540.95 1730.87 536L1712.87 536C1712.87 540.95 1716.92 544.999 1721.87 545Z" fill="#2BB673"/>
<path d="M1888.87 533.001L1888.87 533L1856.87 533C1856.87 533 1856.87 533 1856.87 533.001C1856.87 541.285 1864.03 548 1872.87 548C1881.71 548 1888.87 541.285 1888.87 533.001Z" fill="#27AAE1"/>
<line x1="2033" y1="142" x2="-112" y2="142" stroke="#1D243F" stroke-width="2"/>
<line x1="2033" y1="940" x2="-112" y2="940" stroke="#1D243F" stroke-width="2"/>
<circle cx="960" cy="540" r="398" stroke="#1D243F" stroke-width="2"/>
<circle cx="960" cy="540" r="127" stroke="#1D243F" stroke-width="2"/>
<circle cx="960" cy="540" r="697" stroke="#1D243F" stroke-width="2"/>
<circle cx="960" cy="540" r="697" stroke="#1D243F" stroke-width="2"/>
<circle cx="262" cy="540" r="697" stroke="#1D243F" stroke-width="2"/>
<circle cx="1658" cy="540" r="697" stroke="#1D243F" stroke-width="2"/>
<path d="M449.924 602L477.464 483.2H515.084C527.684 483.2 537.524 486.26 544.604 492.38C551.804 498.5 555.404 506.6 555.404 516.68C555.404 524.72 553.424 531.92 549.464 538.28C545.504 544.52 539.924 549.44 532.724 553.04C525.524 556.52 517.064 558.26 507.344 558.26H470.984L474.584 541.88H509.504C515.384 541.88 520.244 540.8 524.084 538.64C527.924 536.48 530.804 533.6 532.724 530C534.644 526.28 535.604 522.26 535.604 517.94C535.604 512.42 533.744 507.98 530.024 504.62C526.424 501.26 520.844 499.58 513.284 499.58H493.124L469.364 602H449.924ZM595.573 603.62C587.053 603.62 579.733 601.88 573.613 598.4C567.493 594.8 562.753 589.94 559.393 583.82C556.033 577.7 554.353 570.8 554.353 563.12C554.353 553.52 556.273 544.76 560.113 536.84C563.953 528.8 569.533 522.38 576.853 517.58C584.173 512.78 592.993 510.38 603.313 510.38C610.993 510.38 617.593 511.94 623.113 515.06C628.633 518.18 632.833 522.56 635.713 528.2C638.593 533.72 640.033 540.2 640.033 547.64C640.033 550.04 639.853 552.5 639.493 555.02C639.253 557.54 638.713 560.06 637.873 562.58H565.333V547.82H627.433L620.413 552.86C620.893 551.42 621.193 550.04 621.313 548.72C621.433 547.28 621.493 545.96 621.493 544.76C621.493 540.8 620.713 537.38 619.153 534.5C617.713 531.62 615.553 529.4 612.673 527.84C609.793 526.28 606.373 525.5 602.413 525.5C597.013 525.5 592.393 526.64 588.553 528.92C584.833 531.08 581.833 534.08 579.553 537.92C577.273 541.64 575.653 545.78 574.693 550.34C573.733 554.9 573.253 559.4 573.253 563.84C573.253 568.88 574.213 573.26 576.133 576.98C578.173 580.58 580.933 583.4 584.413 585.44C588.013 587.48 592.213 588.5 597.013 588.5C602.653 588.5 607.213 587.3 610.693 584.9C614.293 582.5 617.173 579.44 619.333 575.72L634.813 584C632.413 588.08 629.233 591.62 625.273 594.62C621.433 597.5 616.993 599.72 611.953 601.28C607.033 602.84 601.573 603.62 595.573 603.62ZM644.028 602L664.908 512H681.108L678.228 536.3L676.248 534.5C678.168 529.46 680.748 525.14 683.988 521.54C687.348 517.94 691.188 515.18 695.508 513.26C699.828 511.22 704.328 510.2 709.008 510.2C710.928 510.2 712.608 510.32 714.048 510.56C715.608 510.8 716.928 511.22 718.008 511.82L712.788 529.1C711.588 528.5 710.208 528.08 708.648 527.84C707.208 527.48 705.348 527.3 703.068 527.3C698.748 527.3 694.668 528.32 690.828 530.36C686.988 532.28 683.628 535.28 680.748 539.36C677.868 543.44 675.648 548.78 674.088 555.38L663.288 602H644.028ZM714.65 602L738.77 497.6C740.33 491 742.61 485.72 745.61 481.76C748.73 477.8 752.57 474.92 757.13 473.12C761.69 471.2 766.91 470.24 772.79 470.24C776.51 470.24 779.93 470.66 783.05 471.5C786.17 472.22 788.57 473.24 790.25 474.56L784.85 488.6C783.77 487.88 782.27 487.22 780.35 486.62C778.43 486.02 776.27 485.72 773.87 485.72C768.95 485.72 765.17 486.86 762.53 489.14C759.89 491.3 757.97 495.2 756.77 500.84L753.89 513.62L753.17 518.48L733.91 602H714.65ZM714.29 527.12L717.89 512H781.25L777.65 527.12H714.29ZM816.09 603.62C807.21 603.62 799.65 601.82 793.41 598.22C787.29 594.62 782.55 589.76 779.19 583.64C775.83 577.4 774.15 570.56 774.15 563.12C774.15 552.92 776.13 543.86 780.09 535.94C784.17 528.02 789.75 521.78 796.83 517.22C804.03 512.66 812.49 510.38 822.21 510.38C831.09 510.38 838.59 512.18 844.71 515.78C850.95 519.38 855.69 524.24 858.93 530.36C862.17 536.48 863.79 543.32 863.79 550.88C863.79 560.84 861.81 569.84 857.85 577.88C854.01 585.8 848.49 592.1 841.29 596.78C834.09 601.34 825.69 603.62 816.09 603.62ZM816.45 588.5C820.41 588.5 824.07 587.54 827.43 585.62C830.91 583.7 833.91 581 836.43 577.52C839.07 574.04 841.05 570.02 842.37 565.46C843.81 560.78 844.53 555.8 844.53 550.52C844.53 545.72 843.69 541.46 842.01 537.74C840.45 534.02 837.93 531.08 834.45 528.92C831.09 526.64 826.83 525.5 821.67 525.5C817.71 525.5 813.99 526.46 810.51 528.38C807.03 530.3 804.03 533 801.51 536.48C798.99 539.84 797.01 543.86 795.57 548.54C794.13 553.1 793.41 558.08 793.41 563.48C793.41 568.04 794.25 572.24 795.93 576.08C797.61 579.92 800.13 582.98 803.49 585.26C806.97 587.42 811.29 588.5 816.45 588.5ZM867.517 602L888.397 512H904.597L901.717 536.3L899.737 534.5C901.657 529.46 904.237 525.14 907.477 521.54C910.837 517.94 914.677 515.18 918.997 513.26C923.317 511.22 927.817 510.2 932.497 510.2C934.417 510.2 936.097 510.32 937.537 510.56C939.097 510.8 940.417 511.22 941.497 511.82L936.277 529.1C935.077 528.5 933.697 528.08 932.137 527.84C930.697 527.48 928.837 527.3 926.557 527.3C922.237 527.3 918.157 528.32 914.317 530.36C910.477 532.28 907.117 535.28 904.237 539.36C901.357 543.44 899.137 548.78 897.577 555.38L886.777 602H867.517ZM930.587 602L951.467 512H968.387L964.607 534.68L962.807 533.42C965.327 525.74 969.707 519.98 975.947 516.14C982.187 512.18 989.147 510.2 996.827 510.2C1003.19 510.2 1008.65 511.7 1013.21 514.7C1017.77 517.58 1020.95 521.78 1022.75 527.3C1024.67 532.82 1024.67 539.48 1022.75 547.28L1009.97 602H990.707L1003.31 548.36C1004.99 541.4 1004.45 535.94 1001.69 531.98C999.047 528.02 994.787 526.04 988.907 526.04C984.107 526.04 979.847 527.12 976.127 529.28C972.407 531.44 969.287 534.62 966.767 538.82C964.367 542.9 962.387 548.06 960.827 554.3L949.847 602H930.587ZM1051.01 602L1063.43 548.36C1064.99 541.4 1064.45 535.94 1061.81 531.98C1059.17 528.02 1054.97 526.04 1049.21 526.04C1044.29 526.04 1039.97 527.12 1036.25 529.28C1032.65 531.44 1029.59 534.62 1027.07 538.82C1024.55 542.9 1022.57 548.06 1021.13 554.3L1019.33 536.84C1022.57 527.96 1027.55 521.3 1034.27 516.86C1041.11 512.42 1048.67 510.2 1056.95 510.2C1063.31 510.2 1068.77 511.7 1073.33 514.7C1077.89 517.58 1081.07 521.78 1082.87 527.3C1084.79 532.82 1084.85 539.48 1083.05 547.28L1070.27 602H1051.01ZM1127.63 603.44C1121.03 603.44 1115.15 601.88 1109.99 598.76C1104.83 595.52 1100.81 591.02 1097.93 585.26C1095.05 579.5 1093.61 572.72 1093.61 564.92C1093.61 557.6 1094.69 550.64 1096.85 544.04C1099.13 537.44 1102.25 531.62 1106.21 526.58C1110.29 521.42 1115.09 517.4 1120.61 514.52C1126.25 511.64 1132.37 510.2 1138.97 510.2C1143.89 510.2 1148.33 511.04 1152.29 512.72C1156.37 514.4 1159.79 516.86 1162.55 520.1C1165.31 523.34 1167.17 527.3 1168.13 531.98L1172.81 512H1192.07L1171.19 602H1154.09L1157.15 585.26C1154.15 590.78 1150.01 595.22 1144.73 598.58C1139.57 601.82 1133.87 603.44 1127.63 603.44ZM1134.29 588.14C1138.13 588.14 1141.73 587.12 1145.09 585.08C1148.57 583.04 1151.57 580.22 1154.09 576.62C1156.73 573.02 1158.77 568.88 1160.21 564.2C1161.77 559.4 1162.55 554.42 1162.55 549.26C1162.55 544.46 1161.65 540.32 1159.85 536.84C1158.17 533.24 1155.77 530.48 1152.65 528.56C1149.65 526.64 1146.05 525.68 1141.85 525.68C1137.41 525.68 1133.39 526.7 1129.79 528.74C1126.31 530.78 1123.25 533.6 1120.61 537.2C1118.09 540.68 1116.11 544.76 1114.67 549.44C1113.23 554 1112.51 558.8 1112.51 563.84C1112.51 569 1113.35 573.38 1115.03 576.98C1116.71 580.58 1119.17 583.34 1122.41 585.26C1125.65 587.18 1129.61 588.14 1134.29 588.14ZM1191.02 602L1211.9 512H1228.82L1225.04 534.68L1223.24 533.42C1225.76 525.74 1230.2 519.98 1236.56 516.14C1242.92 512.18 1249.94 510.2 1257.62 510.2C1264.34 510.2 1270.04 511.7 1274.72 514.7C1279.4 517.58 1282.7 521.78 1284.62 527.3C1286.54 532.7 1286.6 539.3 1284.8 547.1L1272.02 602H1252.76L1265.36 548C1266.92 541.16 1266.26 535.82 1263.38 531.98C1260.5 528.02 1255.94 526.04 1249.7 526.04C1244.9 526.04 1240.58 527.12 1236.74 529.28C1233.02 531.44 1229.9 534.62 1227.38 538.82C1224.86 542.9 1222.82 548.06 1221.26 554.3L1210.28 602H1191.02ZM1336.22 603.62C1327.58 603.62 1320.14 601.82 1313.9 598.22C1307.78 594.62 1303.04 589.76 1299.68 583.64C1296.44 577.4 1294.82 570.5 1294.82 562.94C1294.82 552.74 1296.8 543.74 1300.76 535.94C1304.84 528.02 1310.48 521.78 1317.68 517.22C1325 512.66 1333.58 510.38 1343.42 510.38C1350.62 510.38 1356.92 511.64 1362.32 514.16C1367.84 516.56 1372.22 519.98 1375.46 524.42C1378.82 528.86 1380.86 533.9 1381.58 539.54L1362.32 543.5C1362.08 538.46 1360.34 534.2 1357.1 530.72C1353.98 527.24 1349.18 525.5 1342.7 525.5C1338.5 525.5 1334.66 526.52 1331.18 528.56C1327.7 530.48 1324.64 533.18 1322 536.66C1319.48 540.02 1317.5 544.04 1316.06 548.72C1314.74 553.28 1314.08 558.2 1314.08 563.48C1314.08 568.28 1314.98 572.6 1316.78 576.44C1318.58 580.16 1321.16 583.1 1324.52 585.26C1328 587.42 1332.26 588.5 1337.3 588.5C1341.5 588.5 1345.46 587.36 1349.18 585.08C1352.9 582.68 1355.54 579.26 1357.1 574.82L1375.1 581.12C1371.86 588.32 1366.82 593.9 1359.98 597.86C1353.14 601.7 1345.22 603.62 1336.22 603.62ZM1424.24 603.62C1415.72 603.62 1408.4 601.88 1402.28 598.4C1396.16 594.8 1391.42 589.94 1388.06 583.82C1384.7 577.7 1383.02 570.8 1383.02 563.12C1383.02 553.52 1384.94 544.76 1388.78 536.84C1392.62 528.8 1398.2 522.38 1405.52 517.58C1412.84 512.78 1421.66 510.38 1431.98 510.38C1439.66 510.38 1446.26 511.94 1451.78 515.06C1457.3 518.18 1461.5 522.56 1464.38 528.2C1467.26 533.72 1468.7 540.2 1468.7 547.64C1468.7 550.04 1468.52 552.5 1468.16 555.02C1467.92 557.54 1467.38 560.06 1466.54 562.58H1394V547.82H1456.1L1449.08 552.86C1449.56 551.42 1449.86 550.04 1449.98 548.72C1450.1 547.28 1450.16 545.96 1450.16 544.76C1450.16 540.8 1449.38 537.38 1447.82 534.5C1446.38 531.62 1444.22 529.4 1441.34 527.84C1438.46 526.28 1435.04 525.5 1431.08 525.5C1425.68 525.5 1421.06 526.64 1417.22 528.92C1413.5 531.08 1410.5 534.08 1408.22 537.92C1405.94 541.64 1404.32 545.78 1403.36 550.34C1402.4 554.9 1401.92 559.4 1401.92 563.84C1401.92 568.88 1402.88 573.26 1404.8 576.98C1406.84 580.58 1409.6 583.4 1413.08 585.44C1416.68 587.48 1420.88 588.5 1425.68 588.5C1431.32 588.5 1435.88 587.3 1439.36 584.9C1442.96 582.5 1445.84 579.44 1448 575.72L1463.48 584C1461.08 588.08 1457.9 591.62 1453.94 594.62C1450.1 597.5 1445.66 599.72 1440.62 601.28C1435.7 602.84 1430.24 603.62 1424.24 603.62Z" fill="#DADCE4"/>
<path d="M979.716 958.858L959.858 978.716M959.858 978.716L940 958.858M959.858 978.716L959.858 939.001" stroke="#F15A29" stroke-width="2"/>
</g>
<defs>
<clipPath id="clip0_1289_5161">
<rect width="1920" height="1080" fill="white"/>
</clipPath>
</defs>
</svg>
