<svg width="1440" height="793" viewBox="0 0 1440 793" fill="none" xmlns="http://www.w3.org/2000/svg">
<g clip-path="url(#clip0_6_3)">
<rect width="1440" height="793" fill="white"/>
<g filter="url(#filter0_d_6_3)">
<rect width="1440" height="97" fill="white"/>
</g>
<g filter="url(#filter1_d_6_3)">
<rect width="1440" height="97" fill="white"/>
</g>
<rect x="81.5" y="25.5" width="82" height="39" rx="6.5" fill="white"/>
<path d="M101.943 34H105.5H105.591V46.1705C105.591 47.2955 105.338 48.2727 104.832 49.1023C104.332 49.9318 103.636 50.571 102.744 51.0199C101.852 51.4688 100.815 51.6932 99.6336 51.6932C98.5825 51.6932 97.6279 51.5085 96.77 51.1392C95.9177 50.7642 95.2416 50.196 94.7416 49.4347C94.2416 48.6676 93.9944 47.7045 94.0001 46.5455H97.6734C97.6848 47.0057 97.7785 47.4006 97.9546 47.7301C98.1365 48.054 98.3836 48.304 98.6961 48.4801C99.0143 48.6506 99.3893 48.7358 99.8211 48.7358C100.276 48.7358 100.659 48.6392 100.972 48.446C101.29 48.2472 101.531 47.9574 101.696 47.5767C101.861 47.196 101.943 46.7273 101.943 46.1705V34Z" fill="#0EA5E9"/>
<path d="M114.489 51.7102C113.165 51.7102 112.02 51.429 111.054 50.8665C110.094 50.2983 109.352 49.5085 108.83 48.4972C108.307 47.4801 108.046 46.3011 108.046 44.9602C108.046 43.608 108.307 42.4261 108.83 41.4148C109.352 40.3977 110.094 39.608 111.054 39.0455C112.02 38.4773 113.165 38.1932 114.489 38.1932C115.813 38.1932 116.955 38.4773 117.915 39.0455C118.881 39.608 119.625 40.3977 120.148 41.4148C120.671 42.4261 120.932 43.608 120.932 44.9602C120.932 46.3011 120.671 47.4801 120.148 48.4972C119.625 49.5085 118.881 50.2983 117.915 50.8665C116.955 51.429 115.813 51.7102 114.489 51.7102ZM114.506 48.8977C115.108 48.8977 115.611 48.7273 116.014 48.3864C116.418 48.0398 116.722 47.5682 116.926 46.9716C117.136 46.375 117.242 45.696 117.242 44.9347C117.242 44.1733 117.136 43.4943 116.926 42.8977C116.722 42.3011 116.418 41.8295 116.014 41.483C115.611 41.1364 115.108 40.9631 114.506 40.9631C113.898 40.9631 113.386 41.1364 112.972 41.483C112.563 41.8295 112.253 42.3011 112.043 42.8977C111.838 43.4943 111.736 44.1733 111.736 44.9347C111.736 45.696 111.838 46.375 112.043 46.9716C112.253 47.5682 112.563 48.0398 112.972 48.3864C113.386 48.7273 113.898 48.8977 114.506 48.8977Z" fill="#0EA5E9"/>
<path d="M123.361 51.4545V34H126.992V40.5625H127.102C127.261 40.2102 127.492 39.8523 127.793 39.4886C128.1 39.1193 128.497 38.8125 128.986 38.5682C129.48 38.3182 130.094 38.1932 130.827 38.1932C131.781 38.1932 132.662 38.4432 133.469 38.9432C134.276 39.4375 134.921 40.1847 135.404 41.1847C135.886 42.179 136.128 43.4261 136.128 44.9261C136.128 46.3864 135.892 47.6193 135.421 48.625C134.955 49.625 134.318 50.3835 133.511 50.9006C132.71 51.4119 131.813 51.6676 130.818 51.6676C130.114 51.6676 129.514 51.5511 129.02 51.3182C128.531 51.0852 128.131 50.7926 127.818 50.4403C127.506 50.0824 127.267 49.7216 127.102 49.358H126.94V51.4545H123.361ZM126.915 44.9091C126.915 45.6875 127.023 46.3665 127.239 46.946C127.455 47.5256 127.767 47.9773 128.176 48.3011C128.585 48.6193 129.082 48.7784 129.668 48.7784C130.259 48.7784 130.759 48.6165 131.168 48.2926C131.577 47.9631 131.886 47.5085 132.097 46.929C132.313 46.3438 132.421 45.6705 132.421 44.9091C132.421 44.1534 132.315 43.4886 132.105 42.9148C131.895 42.3409 131.585 41.892 131.176 41.5682C130.767 41.2443 130.264 41.0824 129.668 41.0824C129.077 41.0824 128.577 41.2386 128.168 41.5511C127.764 41.8636 127.455 42.3068 127.239 42.8807C127.023 43.4545 126.915 44.1307 126.915 44.9091Z" fill="#0EA5E9"/>
<path d="M140.37 56.3636C139.91 56.3636 139.478 56.3267 139.075 56.2528C138.677 56.1847 138.347 56.0966 138.086 55.9886L138.904 53.2784C139.33 53.4091 139.714 53.4801 140.055 53.4915C140.401 53.5028 140.7 53.4233 140.95 53.2528C141.205 53.0824 141.413 52.7926 141.572 52.3835L141.785 51.8295L137.089 38.3636H140.907L143.617 47.9773H143.754L146.489 38.3636H150.333L145.245 52.8693C145.001 53.5739 144.668 54.1875 144.248 54.7102C143.833 55.2386 143.308 55.6449 142.671 55.929C142.035 56.2188 141.268 56.3636 140.37 56.3636Z" fill="#0EA5E9"/>
<path d="M101.943 24V34H105.5V24H101.943Z" fill="#0EA5E9"/>
<rect x="81.5" y="25.5" width="82" height="39" rx="6.5" stroke="#0EA5E9" stroke-width="3"/>
<path d="M1207.41 53V41.3636H1208.82V51.75H1214.23V53H1207.41ZM1219.77 53.1818C1218.98 53.1818 1218.29 52.9943 1217.7 52.6193C1217.11 52.2443 1216.65 51.7197 1216.31 51.0455C1215.98 50.3712 1215.82 49.5833 1215.82 48.6818C1215.82 47.7727 1215.98 46.9792 1216.31 46.3011C1216.65 45.6231 1217.11 45.0966 1217.7 44.7216C1218.29 44.3466 1218.98 44.1591 1219.77 44.1591C1220.56 44.1591 1221.25 44.3466 1221.84 44.7216C1222.44 45.0966 1222.9 45.6231 1223.23 46.3011C1223.56 46.9792 1223.73 47.7727 1223.73 48.6818C1223.73 49.5833 1223.56 50.3712 1223.23 51.0455C1222.9 51.7197 1222.44 52.2443 1221.84 52.6193C1221.25 52.9943 1220.56 53.1818 1219.77 53.1818ZM1219.77 51.9773C1220.37 51.9773 1220.86 51.8239 1221.25 51.517C1221.64 51.2102 1221.92 50.8068 1222.11 50.3068C1222.29 49.8068 1222.39 49.2652 1222.39 48.6818C1222.39 48.0985 1222.29 47.5549 1222.11 47.0511C1221.92 46.5473 1221.64 46.1402 1221.25 45.8295C1220.86 45.5189 1220.37 45.3636 1219.77 45.3636C1219.17 45.3636 1218.68 45.5189 1218.3 45.8295C1217.91 46.1402 1217.62 46.5473 1217.44 47.0511C1217.25 47.5549 1217.16 48.0985 1217.16 48.6818C1217.16 49.2652 1217.25 49.8068 1217.44 50.3068C1217.62 50.8068 1217.91 51.2102 1218.3 51.517C1218.68 51.8239 1219.17 51.9773 1219.77 51.9773ZM1229.3 56.4545C1228.65 56.4545 1228.09 56.3712 1227.63 56.2045C1227.16 56.0417 1226.77 55.8258 1226.46 55.5568C1226.15 55.2917 1225.91 55.0076 1225.73 54.7045L1226.8 53.9545C1226.92 54.1136 1227.07 54.2955 1227.26 54.5C1227.44 54.7083 1227.7 54.8883 1228.02 55.0398C1228.34 55.1951 1228.77 55.2727 1229.3 55.2727C1230 55.2727 1230.58 55.1023 1231.04 54.7614C1231.5 54.4205 1231.73 53.8864 1231.73 53.1591V51.3864H1231.62C1231.52 51.5455 1231.38 51.7424 1231.19 51.9773C1231.02 52.2083 1230.76 52.4148 1230.42 52.5966C1230.09 52.7746 1229.64 52.8636 1229.07 52.8636C1228.37 52.8636 1227.73 52.697 1227.17 52.3636C1226.62 52.0303 1226.17 51.5455 1225.85 50.9091C1225.53 50.2727 1225.37 49.5 1225.37 48.5909C1225.37 47.697 1225.52 46.9186 1225.84 46.2557C1226.15 45.589 1226.59 45.0739 1227.15 44.7102C1227.71 44.3428 1228.36 44.1591 1229.09 44.1591C1229.66 44.1591 1230.11 44.2538 1230.44 44.4432C1230.78 44.6288 1231.04 44.8409 1231.22 45.0795C1231.4 45.3144 1231.54 45.5076 1231.64 45.6591H1231.77V44.2727H1233.07V53.25C1233.07 54 1232.9 54.6098 1232.56 55.0795C1232.22 55.553 1231.77 55.8996 1231.19 56.1193C1230.63 56.3428 1229.99 56.4545 1229.3 56.4545ZM1229.25 51.6591C1229.79 51.6591 1230.24 51.536 1230.62 51.2898C1230.99 51.0436 1231.27 50.6894 1231.46 50.2273C1231.65 49.7652 1231.75 49.2121 1231.75 48.5682C1231.75 47.9394 1231.66 47.3845 1231.47 46.9034C1231.28 46.4223 1231 46.0455 1230.63 45.7727C1230.26 45.5 1229.8 45.3636 1229.25 45.3636C1228.68 45.3636 1228.21 45.5076 1227.83 45.7955C1227.46 46.0833 1227.17 46.4697 1226.98 46.9545C1226.8 47.4394 1226.71 47.9773 1226.71 48.5682C1226.71 49.1742 1226.8 49.7102 1226.99 50.1761C1227.18 50.6383 1227.47 51.0019 1227.84 51.267C1228.22 51.5284 1228.69 51.6591 1229.25 51.6591ZM1235.52 53V44.2727H1236.87V53H1235.52ZM1236.21 42.8182C1235.94 42.8182 1235.72 42.7292 1235.53 42.5511C1235.34 42.3731 1235.25 42.1591 1235.25 41.9091C1235.25 41.6591 1235.34 41.4451 1235.53 41.267C1235.72 41.089 1235.94 41 1236.21 41C1236.47 41 1236.69 41.089 1236.88 41.267C1237.07 41.4451 1237.16 41.6591 1237.16 41.9091C1237.16 42.1591 1237.07 42.3731 1236.88 42.5511C1236.69 42.7292 1236.47 42.8182 1236.21 42.8182ZM1240.66 47.75V53H1239.32V44.2727H1240.62V45.6364H1240.73C1240.93 45.1932 1241.25 44.8371 1241.66 44.5682C1242.08 44.2955 1242.62 44.1591 1243.28 44.1591C1243.87 44.1591 1244.38 44.2803 1244.83 44.5227C1245.27 44.7614 1245.61 45.125 1245.86 45.6136C1246.11 46.0985 1246.23 46.7121 1246.23 47.4545V53H1244.89V47.5455C1244.89 46.8598 1244.71 46.3258 1244.36 45.9432C1244 45.5568 1243.51 45.3636 1242.89 45.3636C1242.46 45.3636 1242.08 45.4564 1241.74 45.642C1241.41 45.8277 1241.14 46.0985 1240.95 46.4545C1240.76 46.8106 1240.66 47.2424 1240.66 47.75Z" fill="#6B7280"/>
<path d="M1096.41 53V41.3636H1100.34C1101.25 41.3636 1102 41.5189 1102.58 41.8295C1103.16 42.1364 1103.59 42.5587 1103.88 43.0966C1104.16 43.6345 1104.3 44.2462 1104.3 44.9318C1104.3 45.6174 1104.16 46.2254 1103.88 46.7557C1103.59 47.286 1103.16 47.7027 1102.59 48.0057C1102.01 48.3049 1101.27 48.4545 1100.36 48.4545H1097.18V47.1818H1100.32C1100.94 47.1818 1101.44 47.0909 1101.82 46.9091C1102.2 46.7273 1102.48 46.4697 1102.65 46.1364C1102.82 45.7992 1102.91 45.3977 1102.91 44.9318C1102.91 44.4659 1102.82 44.0587 1102.65 43.7102C1102.47 43.3617 1102.2 43.0928 1101.81 42.9034C1101.43 42.7102 1100.92 42.6136 1100.3 42.6136H1097.82V53H1096.41ZM1101.89 47.7727L1104.75 53H1103.11L1100.3 47.7727H1101.89ZM1110.03 53.1818C1109.19 53.1818 1108.46 52.9962 1107.85 52.625C1107.24 52.25 1106.78 51.7273 1106.45 51.0568C1106.12 50.3826 1105.96 49.5985 1105.96 48.7045C1105.96 47.8106 1106.12 47.0227 1106.45 46.3409C1106.78 45.6553 1107.24 45.1212 1107.82 44.7386C1108.41 44.3523 1109.1 44.1591 1109.89 44.1591C1110.35 44.1591 1110.79 44.2348 1111.24 44.3864C1111.68 44.5379 1112.08 44.7841 1112.45 45.125C1112.81 45.4621 1113.1 45.9091 1113.32 46.4659C1113.53 47.0227 1113.64 47.7083 1113.64 48.5227V49.0909H1106.91V47.9318H1112.28C1112.28 47.4394 1112.18 47 1111.98 46.6136C1111.79 46.2273 1111.51 45.9223 1111.15 45.6989C1110.8 45.4754 1110.38 45.3636 1109.89 45.3636C1109.36 45.3636 1108.89 45.4962 1108.5 45.7614C1108.12 46.0227 1107.82 46.3636 1107.61 46.7841C1107.4 47.2045 1107.3 47.6553 1107.3 48.1364V48.9091C1107.3 49.5682 1107.41 50.1269 1107.64 50.5852C1107.87 51.0398 1108.19 51.3864 1108.6 51.625C1109.01 51.8598 1109.49 51.9773 1110.03 51.9773C1110.38 51.9773 1110.7 51.928 1110.98 51.8295C1111.27 51.7273 1111.52 51.5758 1111.73 51.375C1111.93 51.1705 1112.1 50.9167 1112.21 50.6136L1113.5 50.9773C1113.37 51.4167 1113.14 51.803 1112.82 52.1364C1112.49 52.4659 1112.1 52.7235 1111.62 52.9091C1111.15 53.0909 1110.62 53.1818 1110.03 53.1818ZM1119.2 56.4545C1118.56 56.4545 1118 56.3712 1117.53 56.2045C1117.07 56.0417 1116.68 55.8258 1116.37 55.5568C1116.06 55.2917 1115.82 55.0076 1115.63 54.7045L1116.7 53.9545C1116.82 54.1136 1116.98 54.2955 1117.16 54.5C1117.35 54.7083 1117.6 54.8883 1117.92 55.0398C1118.25 55.1951 1118.68 55.2727 1119.2 55.2727C1119.91 55.2727 1120.49 55.1023 1120.95 54.7614C1121.41 54.4205 1121.63 53.8864 1121.63 53.1591V51.3864H1121.52C1121.42 51.5455 1121.28 51.7424 1121.1 51.9773C1120.92 52.2083 1120.67 52.4148 1120.33 52.5966C1119.99 52.7746 1119.54 52.8636 1118.98 52.8636C1118.27 52.8636 1117.64 52.697 1117.08 52.3636C1116.52 52.0303 1116.08 51.5455 1115.75 50.9091C1115.43 50.2727 1115.27 49.5 1115.27 48.5909C1115.27 47.697 1115.43 46.9186 1115.74 46.2557C1116.06 45.589 1116.49 45.0739 1117.06 44.7102C1117.62 44.3428 1118.26 44.1591 1119 44.1591C1119.57 44.1591 1120.02 44.2538 1120.35 44.4432C1120.69 44.6288 1120.95 44.8409 1121.12 45.0795C1121.31 45.3144 1121.45 45.5076 1121.54 45.6591H1121.68V44.2727H1122.98V53.25C1122.98 54 1122.81 54.6098 1122.46 55.0795C1122.13 55.553 1121.67 55.8996 1121.1 56.1193C1120.53 56.3428 1119.9 56.4545 1119.2 56.4545ZM1119.16 51.6591C1119.7 51.6591 1120.15 51.536 1120.52 51.2898C1120.89 51.0436 1121.17 50.6894 1121.37 50.2273C1121.56 49.7652 1121.66 49.2121 1121.66 48.5682C1121.66 47.9394 1121.56 47.3845 1121.37 46.9034C1121.18 46.4223 1120.9 46.0455 1120.53 45.7727C1120.16 45.5 1119.7 45.3636 1119.16 45.3636C1118.59 45.3636 1118.12 45.5076 1117.74 45.7955C1117.36 46.0833 1117.08 46.4697 1116.89 46.9545C1116.71 47.4394 1116.61 47.9773 1116.61 48.5682C1116.61 49.1742 1116.71 49.7102 1116.9 50.1761C1117.09 50.6383 1117.37 51.0019 1117.75 51.267C1118.13 51.5284 1118.6 51.6591 1119.16 51.6591ZM1125.43 53V44.2727H1126.77V53H1125.43ZM1126.11 42.8182C1125.85 42.8182 1125.63 42.7292 1125.44 42.5511C1125.25 42.3731 1125.16 42.1591 1125.16 41.9091C1125.16 41.6591 1125.25 41.4451 1125.44 41.267C1125.63 41.089 1125.85 41 1126.11 41C1126.37 41 1126.6 41.089 1126.78 41.267C1126.97 41.4451 1127.07 41.6591 1127.07 41.9091C1127.07 42.1591 1126.97 42.3731 1126.78 42.5511C1126.6 42.7292 1126.37 42.8182 1126.11 42.8182ZM1135.41 46.2273L1134.2 46.5682C1134.13 46.3674 1134.02 46.1723 1133.87 45.983C1133.73 45.7898 1133.53 45.6307 1133.28 45.5057C1133.03 45.3807 1132.71 45.3182 1132.32 45.3182C1131.78 45.3182 1131.34 45.4413 1130.98 45.6875C1130.63 45.9299 1130.45 46.2386 1130.45 46.6136C1130.45 46.947 1130.58 47.2102 1130.82 47.4034C1131.06 47.5966 1131.44 47.7576 1131.95 47.8864L1133.25 48.2045C1134.03 48.3939 1134.61 48.6837 1134.99 49.0739C1135.38 49.4602 1135.57 49.9583 1135.57 50.5682C1135.57 51.0682 1135.42 51.5152 1135.14 51.9091C1134.85 52.303 1134.45 52.6136 1133.94 52.8409C1133.43 53.0682 1132.84 53.1818 1132.16 53.1818C1131.27 53.1818 1130.53 52.9886 1129.95 52.6023C1129.37 52.2159 1129 51.6515 1128.84 50.9091L1130.11 50.5909C1130.23 51.0606 1130.46 51.4129 1130.8 51.6477C1131.14 51.8826 1131.59 52 1132.14 52C1132.76 52 1133.26 51.8674 1133.62 51.6023C1134 51.3333 1134.18 51.0114 1134.18 50.6364C1134.18 50.3333 1134.08 50.0795 1133.86 49.875C1133.65 49.6667 1133.33 49.5114 1132.89 49.4091L1131.43 49.0682C1130.63 48.8788 1130.05 48.5852 1129.67 48.1875C1129.3 47.786 1129.11 47.2841 1129.11 46.6818C1129.11 46.1894 1129.25 45.7538 1129.53 45.375C1129.81 44.9962 1130.19 44.6989 1130.67 44.483C1131.16 44.267 1131.7 44.1591 1132.32 44.1591C1133.18 44.1591 1133.86 44.3485 1134.35 44.7273C1134.85 45.1061 1135.2 45.6061 1135.41 46.2273ZM1141.38 44.2727V45.4091H1136.86V44.2727H1141.38ZM1138.18 42.1818H1139.52V50.5C1139.52 50.8788 1139.57 51.1629 1139.68 51.3523C1139.8 51.5379 1139.94 51.6629 1140.12 51.7273C1140.29 51.7879 1140.48 51.8182 1140.68 51.8182C1140.83 51.8182 1140.95 51.8106 1141.04 51.7955C1141.14 51.7765 1141.21 51.7614 1141.27 51.75L1141.54 52.9545C1141.45 52.9886 1141.32 53.0227 1141.16 53.0568C1141 53.0947 1140.79 53.1136 1140.54 53.1136C1140.16 53.1136 1139.79 53.0322 1139.43 52.8693C1139.07 52.7064 1138.77 52.4583 1138.53 52.125C1138.29 51.7917 1138.18 51.3712 1138.18 50.8636V42.1818ZM1146.96 53.1818C1146.12 53.1818 1145.4 52.9962 1144.79 52.625C1144.18 52.25 1143.71 51.7273 1143.38 51.0568C1143.06 50.3826 1142.9 49.5985 1142.9 48.7045C1142.9 47.8106 1143.06 47.0227 1143.38 46.3409C1143.71 45.6553 1144.17 45.1212 1144.76 44.7386C1145.35 44.3523 1146.04 44.1591 1146.83 44.1591C1147.28 44.1591 1147.73 44.2348 1148.17 44.3864C1148.62 44.5379 1149.02 44.7841 1149.38 45.125C1149.75 45.4621 1150.04 45.9091 1150.25 46.4659C1150.47 47.0227 1150.58 47.7083 1150.58 48.5227V49.0909H1143.85V47.9318H1149.21C1149.21 47.4394 1149.12 47 1148.92 46.6136C1148.73 46.2273 1148.45 45.9223 1148.09 45.6989C1147.73 45.4754 1147.31 45.3636 1146.83 45.3636C1146.29 45.3636 1145.83 45.4962 1145.44 45.7614C1145.06 46.0227 1144.76 46.3636 1144.55 46.7841C1144.34 47.2045 1144.24 47.6553 1144.24 48.1364V48.9091C1144.24 49.5682 1144.35 50.1269 1144.58 50.5852C1144.81 51.0398 1145.13 51.3864 1145.54 51.625C1145.95 51.8598 1146.42 51.9773 1146.96 51.9773C1147.32 51.9773 1147.63 51.928 1147.92 51.8295C1148.21 51.7273 1148.46 51.5758 1148.66 51.375C1148.87 51.1705 1149.03 50.9167 1149.15 50.6136L1150.44 50.9773C1150.31 51.4167 1150.08 51.803 1149.75 52.1364C1149.43 52.4659 1149.03 52.7235 1148.56 52.9091C1148.09 53.0909 1147.56 53.1818 1146.96 53.1818ZM1152.62 53V44.2727H1153.91V45.5909H1154C1154.16 45.1591 1154.45 44.8087 1154.87 44.5398C1155.28 44.2708 1155.75 44.1364 1156.28 44.1364C1156.38 44.1364 1156.5 44.1383 1156.65 44.142C1156.79 44.1458 1156.91 44.1515 1156.98 44.1591V45.5227C1156.94 45.5114 1156.83 45.4943 1156.67 45.4716C1156.51 45.4451 1156.34 45.4318 1156.16 45.4318C1155.74 45.4318 1155.36 45.5208 1155.03 45.6989C1154.7 45.8731 1154.44 46.1155 1154.24 46.4261C1154.05 46.733 1153.96 47.0833 1153.96 47.4773V53H1152.62Z" fill="#0EA5E9"/>
<g clip-path="url(#clip1_6_3)">
<path d="M1304 40V56H1336V40H1304Z" fill="#012169"/>
<path d="M1304 40L1336 56L1304 40ZM1336 40L1304 56L1336 40Z" fill="black"/>
<path d="M1336 40L1304 56M1304 40L1336 56L1304 40Z" stroke="white" stroke-width="3.2"/>
<path d="M1304 40L1336 56L1304 40ZM1336 40L1304 56L1336 40Z" fill="black"/>
<path d="M1336 40L1304 56M1304 40L1336 56L1304 40Z" stroke="#C8102E" stroke-width="2.13333"/>
<path d="M1320 40V56V40ZM1304 48H1336H1304Z" fill="black"/>
<path d="M1304 48H1336M1320 40V56V40Z" stroke="white" stroke-width="5.33333"/>
<path d="M1320 40V56V40ZM1304 48H1336H1304Z" fill="black"/>
<path d="M1304 48H1336M1320 40V56V40Z" stroke="#C8102E" stroke-width="3.2"/>
</g>
<path d="M1344 46L1348 50L1352 46" stroke="#E5E7EB" stroke-width="1.5" stroke-linecap="round" stroke-linejoin="round"/>
<rect x="1296.5" y="32.5" width="63" height="31" rx="7.5" stroke="#E5E7EB"/>
<rect x="462" y="178" width="517" height="534" rx="15" fill="white" stroke="#E5E7EB" stroke-width="2"/>
<g filter="url(#filter2_d_6_3)">
<rect x="501" y="580" width="439" height="50" rx="8" fill="#0EA5E9" shape-rendering="crispEdges"/>
<path d="M689.148 611V599.364H693.511C694.405 599.364 695.155 599.519 695.761 599.83C696.371 600.14 696.831 600.576 697.142 601.136C697.456 601.693 697.614 602.343 697.614 603.085C697.614 603.831 697.455 604.479 697.136 605.028C696.822 605.574 696.358 605.996 695.744 606.295C695.131 606.591 694.377 606.739 693.483 606.739H690.375V604.989H693.199C693.722 604.989 694.15 604.917 694.483 604.773C694.816 604.625 695.063 604.411 695.222 604.131C695.384 603.847 695.466 603.498 695.466 603.085C695.466 602.672 695.384 602.32 695.222 602.028C695.059 601.733 694.811 601.509 694.477 601.358C694.144 601.203 693.714 601.125 693.188 601.125H691.256V611H689.148ZM695.159 605.727L698.04 611H695.688L692.858 605.727H695.159ZM703.202 611.17C702.327 611.17 701.571 610.989 700.935 610.625C700.302 610.258 699.815 609.739 699.474 609.068C699.134 608.394 698.963 607.6 698.963 606.688C698.963 605.79 699.134 605.002 699.474 604.324C699.819 603.642 700.3 603.112 700.918 602.733C701.535 602.35 702.26 602.159 703.094 602.159C703.632 602.159 704.139 602.246 704.616 602.42C705.098 602.591 705.522 602.856 705.889 603.216C706.26 603.576 706.552 604.034 706.764 604.591C706.976 605.144 707.082 605.803 707.082 606.568V607.199H699.929V605.812H705.111C705.107 605.419 705.022 605.068 704.855 604.761C704.688 604.451 704.455 604.206 704.156 604.028C703.861 603.85 703.516 603.761 703.122 603.761C702.702 603.761 702.332 603.864 702.014 604.068C701.696 604.269 701.448 604.534 701.27 604.864C701.096 605.189 701.007 605.547 701.003 605.938V607.148C701.003 607.655 701.096 608.091 701.281 608.455C701.467 608.814 701.726 609.091 702.06 609.284C702.393 609.473 702.783 609.568 703.23 609.568C703.529 609.568 703.8 609.527 704.043 609.443C704.285 609.356 704.495 609.229 704.673 609.062C704.851 608.896 704.986 608.689 705.077 608.443L706.997 608.659C706.876 609.167 706.645 609.61 706.304 609.989C705.967 610.364 705.535 610.655 705.009 610.864C704.482 611.068 703.88 611.17 703.202 611.17ZM712.618 614.455C711.879 614.455 711.245 614.354 710.714 614.153C710.184 613.956 709.758 613.691 709.436 613.358C709.114 613.025 708.891 612.655 708.766 612.25L710.618 611.801C710.701 611.972 710.822 612.14 710.982 612.307C711.141 612.477 711.355 612.617 711.624 612.727C711.896 612.841 712.239 612.898 712.652 612.898C713.235 612.898 713.718 612.756 714.101 612.472C714.483 612.191 714.675 611.729 714.675 611.085V609.432H714.572C714.466 609.644 714.311 609.862 714.107 610.085C713.906 610.309 713.639 610.496 713.305 610.648C712.976 610.799 712.561 610.875 712.061 610.875C711.391 610.875 710.783 610.718 710.237 610.403C709.696 610.085 709.264 609.612 708.942 608.983C708.624 608.35 708.464 607.559 708.464 606.608C708.464 605.65 708.624 604.841 708.942 604.182C709.264 603.519 709.697 603.017 710.243 602.676C710.788 602.331 711.396 602.159 712.067 602.159C712.578 602.159 712.999 602.246 713.328 602.42C713.661 602.591 713.927 602.797 714.124 603.04C714.321 603.278 714.47 603.504 714.572 603.716H714.686V602.273H716.714V611.142C716.714 611.888 716.536 612.506 716.18 612.994C715.824 613.483 715.338 613.848 714.72 614.091C714.103 614.333 713.402 614.455 712.618 614.455ZM712.635 609.261C713.071 609.261 713.442 609.155 713.749 608.943C714.055 608.731 714.288 608.426 714.447 608.028C714.607 607.631 714.686 607.153 714.686 606.597C714.686 606.047 714.607 605.566 714.447 605.153C714.292 604.741 714.061 604.42 713.754 604.193C713.451 603.962 713.078 603.847 712.635 603.847C712.177 603.847 711.794 603.966 711.487 604.205C711.18 604.443 710.949 604.771 710.794 605.188C710.639 605.6 710.561 606.07 710.561 606.597C710.561 607.131 710.639 607.598 710.794 608C710.953 608.398 711.186 608.708 711.493 608.932C711.804 609.152 712.184 609.261 712.635 609.261ZM718.822 611V602.273H720.879V611H718.822ZM719.857 601.034C719.531 601.034 719.25 600.926 719.016 600.71C718.781 600.491 718.663 600.227 718.663 599.92C718.663 599.61 718.781 599.347 719.016 599.131C719.25 598.911 719.531 598.801 719.857 598.801C720.186 598.801 720.466 598.911 720.697 599.131C720.932 599.347 721.05 599.61 721.05 599.92C721.05 600.227 720.932 600.491 720.697 600.71C720.466 600.926 720.186 601.034 719.857 601.034ZM729.892 604.58L728.017 604.784C727.964 604.595 727.871 604.417 727.739 604.25C727.61 604.083 727.436 603.949 727.216 603.847C726.996 603.744 726.727 603.693 726.409 603.693C725.981 603.693 725.621 603.786 725.33 603.972C725.042 604.157 724.9 604.398 724.903 604.693C724.9 604.947 724.992 605.153 725.182 605.312C725.375 605.472 725.693 605.602 726.136 605.705L727.625 606.023C728.451 606.201 729.064 606.483 729.466 606.869C729.871 607.256 730.076 607.761 730.08 608.386C730.076 608.936 729.915 609.42 729.597 609.841C729.282 610.258 728.845 610.583 728.284 610.818C727.723 611.053 727.08 611.17 726.352 611.17C725.284 611.17 724.424 610.947 723.773 610.5C723.121 610.049 722.733 609.422 722.608 608.619L724.614 608.426C724.705 608.82 724.898 609.117 725.193 609.318C725.489 609.519 725.873 609.619 726.347 609.619C726.835 609.619 727.227 609.519 727.523 609.318C727.822 609.117 727.972 608.869 727.972 608.574C727.972 608.324 727.875 608.117 727.682 607.955C727.492 607.792 727.197 607.667 726.795 607.58L725.307 607.267C724.47 607.093 723.85 606.799 723.449 606.386C723.047 605.97 722.848 605.443 722.852 604.807C722.848 604.269 722.994 603.803 723.29 603.409C723.589 603.011 724.004 602.705 724.534 602.489C725.068 602.269 725.684 602.159 726.381 602.159C727.403 602.159 728.208 602.377 728.795 602.812C729.386 603.248 729.752 603.837 729.892 604.58ZM736.134 602.273V603.864H731.116V602.273H736.134ZM732.355 600.182H734.412V608.375C734.412 608.652 734.454 608.864 734.537 609.011C734.624 609.155 734.738 609.254 734.878 609.307C735.018 609.36 735.173 609.386 735.344 609.386C735.473 609.386 735.59 609.377 735.696 609.358C735.806 609.339 735.889 609.322 735.946 609.307L736.293 610.915C736.183 610.953 736.026 610.994 735.821 611.04C735.62 611.085 735.374 611.112 735.082 611.119C734.567 611.134 734.103 611.057 733.69 610.886C733.277 610.712 732.95 610.443 732.707 610.08C732.469 609.716 732.351 609.261 732.355 608.716V600.182ZM741.624 611.17C740.749 611.17 739.993 610.989 739.357 610.625C738.724 610.258 738.237 609.739 737.896 609.068C737.555 608.394 737.385 607.6 737.385 606.688C737.385 605.79 737.555 605.002 737.896 604.324C738.241 603.642 738.722 603.112 739.339 602.733C739.957 602.35 740.682 602.159 741.516 602.159C742.054 602.159 742.561 602.246 743.038 602.42C743.519 602.591 743.944 602.856 744.311 603.216C744.682 603.576 744.974 604.034 745.186 604.591C745.398 605.144 745.504 605.803 745.504 606.568V607.199H738.351V605.812H743.533C743.529 605.419 743.444 605.068 743.277 604.761C743.11 604.451 742.877 604.206 742.578 604.028C742.283 603.85 741.938 603.761 741.544 603.761C741.124 603.761 740.754 603.864 740.436 604.068C740.118 604.269 739.87 604.534 739.692 604.864C739.518 605.189 739.429 605.547 739.425 605.938V607.148C739.425 607.655 739.518 608.091 739.703 608.455C739.889 608.814 740.148 609.091 740.482 609.284C740.815 609.473 741.205 609.568 741.652 609.568C741.951 609.568 742.222 609.527 742.464 609.443C742.707 609.356 742.917 609.229 743.095 609.062C743.273 608.896 743.408 608.689 743.499 608.443L745.419 608.659C745.298 609.167 745.067 609.61 744.726 609.989C744.389 610.364 743.957 610.655 743.43 610.864C742.904 611.068 742.302 611.17 741.624 611.17ZM747.244 611V602.273H749.239V603.727H749.33C749.489 603.223 749.761 602.835 750.148 602.562C750.538 602.286 750.983 602.148 751.483 602.148C751.597 602.148 751.723 602.153 751.864 602.165C752.008 602.172 752.127 602.186 752.222 602.205V604.097C752.134 604.066 751.996 604.04 751.807 604.017C751.621 603.991 751.441 603.977 751.267 603.977C750.892 603.977 750.555 604.059 750.256 604.222C749.96 604.381 749.727 604.602 749.557 604.886C749.386 605.17 749.301 605.498 749.301 605.869V611H747.244Z" fill="white"/>
</g>
<path d="M503.023 248V224.727H512.205C513.962 224.727 515.462 225.042 516.705 225.67C517.955 226.292 518.905 227.174 519.557 228.318C520.216 229.455 520.545 230.792 520.545 232.33C520.545 233.875 520.212 235.205 519.545 236.318C518.879 237.424 517.913 238.273 516.648 238.864C515.39 239.455 513.867 239.75 512.08 239.75H505.932V235.795H511.284C512.223 235.795 513.004 235.667 513.625 235.409C514.246 235.152 514.708 234.765 515.011 234.25C515.322 233.735 515.477 233.095 515.477 232.33C515.477 231.557 515.322 230.905 515.011 230.375C514.708 229.845 514.242 229.443 513.614 229.17C512.992 228.89 512.208 228.75 511.261 228.75H507.943V248H503.023ZM515.591 237.409L521.375 248H515.943L510.284 237.409H515.591ZM531.605 248.341C529.81 248.341 528.264 247.977 526.969 247.25C525.681 246.515 524.688 245.477 523.991 244.136C523.295 242.788 522.946 241.193 522.946 239.352C522.946 237.557 523.295 235.981 523.991 234.625C524.688 233.269 525.67 232.212 526.935 231.455C528.207 230.697 529.7 230.318 531.412 230.318C532.563 230.318 533.635 230.504 534.628 230.875C535.628 231.239 536.499 231.788 537.241 232.523C537.991 233.258 538.575 234.182 538.991 235.295C539.408 236.402 539.616 237.697 539.616 239.182V240.511H524.878V237.511H535.06C535.06 236.814 534.908 236.197 534.605 235.659C534.302 235.121 533.882 234.701 533.344 234.398C532.813 234.087 532.196 233.932 531.491 233.932C530.757 233.932 530.105 234.102 529.537 234.443C528.976 234.777 528.537 235.227 528.219 235.795C527.901 236.356 527.738 236.981 527.73 237.67V240.523C527.73 241.386 527.889 242.133 528.207 242.761C528.533 243.39 528.991 243.875 529.582 244.216C530.173 244.557 530.874 244.727 531.685 244.727C532.223 244.727 532.715 244.652 533.162 244.5C533.609 244.348 533.991 244.121 534.31 243.818C534.628 243.515 534.87 243.144 535.037 242.705L539.514 243C539.287 244.076 538.821 245.015 538.116 245.818C537.42 246.614 536.518 247.235 535.412 247.682C534.313 248.121 533.045 248.341 531.605 248.341ZM550.639 254.909C549.071 254.909 547.726 254.693 546.605 254.261C545.491 253.837 544.605 253.258 543.946 252.523C543.287 251.788 542.859 250.962 542.662 250.045L547.139 249.443C547.276 249.792 547.491 250.117 547.787 250.42C548.082 250.723 548.473 250.966 548.957 251.148C549.45 251.337 550.048 251.432 550.753 251.432C551.806 251.432 552.673 251.174 553.355 250.659C554.045 250.152 554.389 249.299 554.389 248.102V244.909H554.185C553.973 245.394 553.654 245.852 553.23 246.284C552.806 246.716 552.26 247.068 551.594 247.341C550.927 247.614 550.132 247.75 549.207 247.75C547.897 247.75 546.704 247.447 545.628 246.841C544.56 246.227 543.707 245.292 543.071 244.034C542.442 242.769 542.128 241.17 542.128 239.239C542.128 237.261 542.45 235.61 543.094 234.284C543.738 232.958 544.594 231.966 545.662 231.307C546.738 230.648 547.916 230.318 549.196 230.318C550.173 230.318 550.991 230.485 551.651 230.818C552.31 231.144 552.84 231.553 553.241 232.045C553.651 232.53 553.965 233.008 554.185 233.477H554.366V230.545H559.173V248.17C559.173 249.655 558.81 250.898 558.082 251.898C557.355 252.898 556.348 253.648 555.06 254.148C553.779 254.655 552.306 254.909 550.639 254.909ZM550.741 244.114C551.522 244.114 552.181 243.92 552.719 243.534C553.264 243.14 553.681 242.58 553.969 241.852C554.264 241.117 554.412 240.239 554.412 239.216C554.412 238.193 554.268 237.307 553.98 236.557C553.692 235.799 553.276 235.212 552.73 234.795C552.185 234.379 551.522 234.17 550.741 234.17C549.946 234.17 549.276 234.386 548.73 234.818C548.185 235.242 547.772 235.833 547.491 236.591C547.211 237.348 547.071 238.223 547.071 239.216C547.071 240.223 547.211 241.095 547.491 241.83C547.779 242.557 548.192 243.121 548.73 243.523C549.276 243.917 549.946 244.114 550.741 244.114ZM563.026 248V230.545H567.866V248H563.026ZM565.457 228.295C564.738 228.295 564.12 228.057 563.605 227.58C563.098 227.095 562.844 226.515 562.844 225.841C562.844 225.174 563.098 224.602 563.605 224.125C564.12 223.64 564.738 223.398 565.457 223.398C566.177 223.398 566.791 223.64 567.298 224.125C567.813 224.602 568.071 225.174 568.071 225.841C568.071 226.515 567.813 227.095 567.298 227.58C566.791 228.057 566.177 228.295 565.457 228.295ZM586.267 235.523L581.835 235.795C581.759 235.417 581.597 235.076 581.347 234.773C581.097 234.462 580.767 234.216 580.358 234.034C579.956 233.845 579.475 233.75 578.915 233.75C578.165 233.75 577.532 233.909 577.017 234.227C576.502 234.538 576.244 234.955 576.244 235.477C576.244 235.894 576.411 236.246 576.744 236.534C577.078 236.822 577.65 237.053 578.46 237.227L581.619 237.864C583.316 238.212 584.581 238.773 585.415 239.545C586.248 240.318 586.665 241.333 586.665 242.591C586.665 243.735 586.328 244.739 585.653 245.602C584.987 246.466 584.07 247.14 582.903 247.625C581.744 248.102 580.407 248.341 578.892 248.341C576.581 248.341 574.741 247.86 573.369 246.898C572.006 245.928 571.206 244.61 570.972 242.943L575.733 242.693C575.877 243.398 576.225 243.936 576.778 244.307C577.331 244.67 578.04 244.852 578.903 244.852C579.752 244.852 580.434 244.689 580.949 244.364C581.472 244.03 581.737 243.602 581.744 243.08C581.737 242.64 581.551 242.28 581.188 242C580.824 241.712 580.263 241.492 579.506 241.341L576.483 240.739C574.778 240.398 573.509 239.807 572.676 238.966C571.85 238.125 571.438 237.053 571.438 235.75C571.438 234.629 571.741 233.663 572.347 232.852C572.96 232.042 573.82 231.417 574.926 230.977C576.04 230.538 577.343 230.318 578.835 230.318C581.04 230.318 582.775 230.784 584.04 231.716C585.313 232.648 586.055 233.917 586.267 235.523ZM598.997 230.545V234.182H588.486V230.545H598.997ZM590.872 226.364H595.713V242.636C595.713 243.083 595.781 243.432 595.918 243.682C596.054 243.924 596.243 244.095 596.486 244.193C596.736 244.292 597.024 244.341 597.349 244.341C597.577 244.341 597.804 244.322 598.031 244.284C598.259 244.239 598.433 244.205 598.554 244.182L599.315 247.784C599.073 247.86 598.732 247.947 598.293 248.045C597.853 248.152 597.319 248.216 596.69 248.239C595.524 248.284 594.501 248.129 593.622 247.773C592.751 247.417 592.073 246.864 591.588 246.114C591.103 245.364 590.865 244.417 590.872 243.273V226.364ZM609.918 248.341C608.122 248.341 606.577 247.977 605.281 247.25C603.993 246.515 603.001 245.477 602.304 244.136C601.607 242.788 601.259 241.193 601.259 239.352C601.259 237.557 601.607 235.981 602.304 234.625C603.001 233.269 603.982 232.212 605.247 231.455C606.52 230.697 608.012 230.318 609.724 230.318C610.876 230.318 611.948 230.504 612.94 230.875C613.94 231.239 614.812 231.788 615.554 232.523C616.304 233.258 616.887 234.182 617.304 235.295C617.721 236.402 617.929 237.697 617.929 239.182V240.511H603.19V237.511H613.372C613.372 236.814 613.221 236.197 612.918 235.659C612.615 235.121 612.194 234.701 611.656 234.398C611.126 234.087 610.509 233.932 609.804 233.932C609.069 233.932 608.418 234.102 607.849 234.443C607.289 234.777 606.849 235.227 606.531 235.795C606.213 236.356 606.05 236.981 606.043 237.67V240.523C606.043 241.386 606.202 242.133 606.52 242.761C606.846 243.39 607.304 243.875 607.895 244.216C608.486 244.557 609.187 244.727 609.997 244.727C610.535 244.727 611.027 244.652 611.474 244.5C611.921 244.348 612.304 244.121 612.622 243.818C612.94 243.515 613.183 243.144 613.349 242.705L617.827 243C617.599 244.076 617.134 245.015 616.429 245.818C615.732 246.614 614.83 247.235 613.724 247.682C612.626 248.121 611.357 248.341 609.918 248.341ZM621.088 248V230.545H625.781V233.591H625.963C626.281 232.508 626.815 231.689 627.565 231.136C628.315 230.576 629.179 230.295 630.156 230.295C630.399 230.295 630.66 230.311 630.94 230.341C631.221 230.371 631.467 230.413 631.679 230.466V234.761C631.452 234.693 631.137 234.633 630.736 234.58C630.334 234.527 629.967 234.5 629.634 234.5C628.921 234.5 628.285 234.655 627.724 234.966C627.171 235.269 626.732 235.693 626.406 236.239C626.088 236.784 625.929 237.413 625.929 238.125V248H621.088Z" fill="#0EA5E9"/>
<rect x="501.5" y="307.5" width="438" height="48" rx="7.5" fill="#F9FAFB" stroke="#E5E7EB"/>
<rect x="501.5" y="399.5" width="438" height="48" rx="7.5" fill="#F9FAFB" stroke="#E5E7EB"/>
<rect x="501.5" y="491.5" width="438" height="48" rx="7.5" fill="#F9FAFB" stroke="#E5E7EB"/>
<rect x="879" y="492" width="1" height="47" fill="#E5E7EB"/>
<path d="M910 518C910.53 518 911.039 517.789 911.414 517.414C911.789 517.039 912 516.53 912 516C912 515.47 911.789 514.961 911.414 514.586C911.039 514.211 910.53 514 910 514C909.47 514 908.961 514.211 908.586 514.586C908.211 514.961 908 515.47 908 516C908 516.53 908.211 517.039 908.586 517.414C908.961 517.789 909.47 518 910 518Z" fill="#6B7280"/>
<path fill-rule="evenodd" clip-rule="evenodd" d="M900.458 516C901.732 511.943 905.522 509 910 509C914.478 509 918.268 511.943 919.542 516C918.268 520.057 914.478 523 910 523C905.522 523 901.732 520.057 900.458 516ZM914 516C914 517.061 913.579 518.078 912.828 518.828C912.078 519.579 911.061 520 910 520C908.939 520 907.922 519.579 907.172 518.828C906.421 518.078 906 517.061 906 516C906 514.939 906.421 513.922 907.172 513.172C907.922 512.421 908.939 512 910 512C911.061 512 912.078 512.421 912.828 513.172C913.579 513.922 914 514.939 914 516Z" fill="#6B7280"/>
<path d="M511.636 283.364V295H510.273L503.932 285.864H503.818V295H502.409V283.364H503.773L510.136 292.523H510.25V283.364H511.636ZM516.842 295.205C516.289 295.205 515.787 295.1 515.337 294.892C514.886 294.68 514.528 294.375 514.263 293.977C513.998 293.576 513.865 293.091 513.865 292.523C513.865 292.023 513.964 291.617 514.161 291.307C514.357 290.992 514.621 290.746 514.95 290.568C515.28 290.39 515.643 290.258 516.041 290.17C516.443 290.08 516.846 290.008 517.251 289.955C517.782 289.886 518.212 289.835 518.541 289.801C518.875 289.763 519.117 289.701 519.268 289.614C519.424 289.527 519.501 289.375 519.501 289.159V289.114C519.501 288.553 519.348 288.117 519.041 287.807C518.738 287.496 518.278 287.341 517.661 287.341C517.02 287.341 516.518 287.481 516.155 287.761C515.791 288.042 515.536 288.341 515.388 288.659L514.115 288.205C514.342 287.674 514.645 287.261 515.024 286.966C515.407 286.667 515.823 286.458 516.274 286.341C516.729 286.22 517.176 286.159 517.615 286.159C517.895 286.159 518.217 286.193 518.581 286.261C518.948 286.326 519.303 286.46 519.643 286.665C519.988 286.869 520.274 287.178 520.501 287.591C520.729 288.004 520.842 288.557 520.842 289.25V295H519.501V293.818H519.433C519.342 294.008 519.191 294.21 518.979 294.426C518.767 294.642 518.484 294.826 518.132 294.977C517.78 295.129 517.35 295.205 516.842 295.205ZM517.047 294C517.577 294 518.024 293.896 518.388 293.688C518.755 293.479 519.032 293.21 519.217 292.881C519.407 292.551 519.501 292.205 519.501 291.841V290.614C519.445 290.682 519.32 290.744 519.126 290.801C518.937 290.854 518.717 290.902 518.467 290.943C518.221 290.981 517.981 291.015 517.746 291.045C517.515 291.072 517.327 291.095 517.183 291.114C516.835 291.159 516.509 291.233 516.206 291.335C515.907 291.434 515.664 291.583 515.479 291.784C515.297 291.981 515.206 292.25 515.206 292.591C515.206 293.057 515.378 293.409 515.723 293.648C516.071 293.883 516.513 294 517.047 294ZM523.29 295V286.273H524.585V287.636H524.699C524.881 287.17 525.174 286.809 525.58 286.551C525.985 286.29 526.472 286.159 527.04 286.159C527.616 286.159 528.095 286.29 528.477 286.551C528.864 286.809 529.165 287.17 529.381 287.636H529.472C529.695 287.186 530.03 286.828 530.477 286.562C530.924 286.294 531.46 286.159 532.085 286.159C532.866 286.159 533.504 286.403 534 286.892C534.496 287.377 534.744 288.133 534.744 289.159V295H533.403V289.159C533.403 288.515 533.227 288.055 532.875 287.778C532.523 287.502 532.108 287.364 531.631 287.364C531.017 287.364 530.542 287.549 530.205 287.92C529.867 288.288 529.699 288.754 529.699 289.318V295H528.335V289.023C528.335 288.527 528.174 288.127 527.852 287.824C527.53 287.517 527.116 287.364 526.608 287.364C526.259 287.364 525.934 287.456 525.631 287.642C525.331 287.828 525.089 288.085 524.903 288.415C524.722 288.741 524.631 289.117 524.631 289.545V295H523.29ZM540.855 295.182C540.014 295.182 539.289 294.996 538.679 294.625C538.073 294.25 537.605 293.727 537.276 293.057C536.95 292.383 536.787 291.598 536.787 290.705C536.787 289.811 536.95 289.023 537.276 288.341C537.605 287.655 538.063 287.121 538.651 286.739C539.241 286.352 539.931 286.159 540.719 286.159C541.173 286.159 541.622 286.235 542.065 286.386C542.509 286.538 542.912 286.784 543.276 287.125C543.639 287.462 543.929 287.909 544.145 288.466C544.361 289.023 544.469 289.708 544.469 290.523V291.091H537.741V289.932H543.105C543.105 289.439 543.007 289 542.81 288.614C542.616 288.227 542.34 287.922 541.98 287.699C541.624 287.475 541.204 287.364 540.719 287.364C540.185 287.364 539.723 287.496 539.332 287.761C538.946 288.023 538.649 288.364 538.44 288.784C538.232 289.205 538.128 289.655 538.128 290.136V290.909C538.128 291.568 538.241 292.127 538.469 292.585C538.7 293.04 539.02 293.386 539.429 293.625C539.838 293.86 540.313 293.977 540.855 293.977C541.207 293.977 541.526 293.928 541.81 293.83C542.098 293.727 542.346 293.576 542.554 293.375C542.762 293.17 542.923 292.917 543.037 292.614L544.332 292.977C544.196 293.417 543.967 293.803 543.645 294.136C543.323 294.466 542.925 294.723 542.452 294.909C541.978 295.091 541.446 295.182 540.855 295.182Z" fill="#6B7280"/>
<path d="M502.409 387V375.364H509.432V376.614H503.818V380.545H509.068V381.795H503.818V385.75H509.523V387H502.409ZM511.79 387V378.273H513.085V379.636H513.199C513.381 379.17 513.674 378.809 514.08 378.551C514.485 378.29 514.972 378.159 515.54 378.159C516.116 378.159 516.595 378.29 516.977 378.551C517.364 378.809 517.665 379.17 517.881 379.636H517.972C518.195 379.186 518.53 378.828 518.977 378.562C519.424 378.294 519.96 378.159 520.585 378.159C521.366 378.159 522.004 378.403 522.5 378.892C522.996 379.377 523.244 380.133 523.244 381.159V387H521.903V381.159C521.903 380.515 521.727 380.055 521.375 379.778C521.023 379.502 520.608 379.364 520.131 379.364C519.517 379.364 519.042 379.549 518.705 379.92C518.367 380.288 518.199 380.754 518.199 381.318V387H516.835V381.023C516.835 380.527 516.674 380.127 516.352 379.824C516.03 379.517 515.616 379.364 515.108 379.364C514.759 379.364 514.434 379.456 514.131 379.642C513.831 379.828 513.589 380.085 513.403 380.415C513.222 380.741 513.131 381.117 513.131 381.545V387H511.79ZM528.264 387.205C527.711 387.205 527.209 387.1 526.759 386.892C526.308 386.68 525.95 386.375 525.685 385.977C525.42 385.576 525.287 385.091 525.287 384.523C525.287 384.023 525.385 383.617 525.582 383.307C525.779 382.992 526.043 382.746 526.372 382.568C526.702 382.39 527.065 382.258 527.463 382.17C527.865 382.08 528.268 382.008 528.673 381.955C529.204 381.886 529.634 381.835 529.963 381.801C530.296 381.763 530.539 381.701 530.69 381.614C530.846 381.527 530.923 381.375 530.923 381.159V381.114C530.923 380.553 530.77 380.117 530.463 379.807C530.16 379.496 529.7 379.341 529.082 379.341C528.442 379.341 527.94 379.481 527.577 379.761C527.213 380.042 526.957 380.341 526.81 380.659L525.537 380.205C525.764 379.674 526.067 379.261 526.446 378.966C526.829 378.667 527.245 378.458 527.696 378.341C528.151 378.22 528.598 378.159 529.037 378.159C529.317 378.159 529.639 378.193 530.003 378.261C530.37 378.326 530.724 378.46 531.065 378.665C531.41 378.869 531.696 379.178 531.923 379.591C532.151 380.004 532.264 380.557 532.264 381.25V387H530.923V385.818H530.855C530.764 386.008 530.613 386.21 530.401 386.426C530.188 386.642 529.906 386.826 529.554 386.977C529.202 387.129 528.772 387.205 528.264 387.205ZM528.469 386C528.999 386 529.446 385.896 529.81 385.688C530.177 385.479 530.454 385.21 530.639 384.881C530.829 384.551 530.923 384.205 530.923 383.841V382.614C530.866 382.682 530.741 382.744 530.548 382.801C530.359 382.854 530.139 382.902 529.889 382.943C529.643 382.981 529.402 383.015 529.168 383.045C528.937 383.072 528.749 383.095 528.605 383.114C528.257 383.159 527.931 383.233 527.628 383.335C527.329 383.434 527.086 383.583 526.901 383.784C526.719 383.981 526.628 384.25 526.628 384.591C526.628 385.057 526.8 385.409 527.145 385.648C527.493 385.883 527.935 386 528.469 386ZM534.712 387V378.273H536.053V387H534.712ZM535.393 376.818C535.132 376.818 534.907 376.729 534.717 376.551C534.532 376.373 534.439 376.159 534.439 375.909C534.439 375.659 534.532 375.445 534.717 375.267C534.907 375.089 535.132 375 535.393 375C535.655 375 535.878 375.089 536.064 375.267C536.253 375.445 536.348 375.659 536.348 375.909C536.348 376.159 536.253 376.373 536.064 376.551C535.878 376.729 535.655 376.818 535.393 376.818ZM539.849 375.364V387H538.509V375.364H539.849Z" fill="#6B7280"/>
<path d="M502.409 479V467.364H506.341C507.254 467.364 508 467.528 508.58 467.858C509.163 468.184 509.595 468.625 509.875 469.182C510.155 469.739 510.295 470.36 510.295 471.045C510.295 471.731 510.155 472.354 509.875 472.915C509.598 473.475 509.17 473.922 508.591 474.256C508.011 474.585 507.269 474.75 506.364 474.75H503.545V473.5H506.318C506.943 473.5 507.445 473.392 507.824 473.176C508.203 472.96 508.477 472.669 508.648 472.301C508.822 471.93 508.909 471.511 508.909 471.045C508.909 470.58 508.822 470.163 508.648 469.795C508.477 469.428 508.201 469.14 507.818 468.932C507.436 468.72 506.928 468.614 506.295 468.614H503.818V479H502.409ZM514.952 479.205C514.399 479.205 513.897 479.1 513.446 478.892C512.995 478.68 512.637 478.375 512.372 477.977C512.107 477.576 511.974 477.091 511.974 476.523C511.974 476.023 512.073 475.617 512.27 475.307C512.467 474.992 512.73 474.746 513.06 474.568C513.389 474.39 513.753 474.258 514.151 474.17C514.552 474.08 514.955 474.008 515.361 473.955C515.891 473.886 516.321 473.835 516.651 473.801C516.984 473.763 517.226 473.701 517.378 473.614C517.533 473.527 517.611 473.375 517.611 473.159V473.114C517.611 472.553 517.457 472.117 517.151 471.807C516.848 471.496 516.387 471.341 515.77 471.341C515.13 471.341 514.628 471.481 514.264 471.761C513.901 472.042 513.645 472.341 513.497 472.659L512.224 472.205C512.452 471.674 512.755 471.261 513.134 470.966C513.516 470.667 513.933 470.458 514.384 470.341C514.838 470.22 515.285 470.159 515.724 470.159C516.005 470.159 516.327 470.193 516.69 470.261C517.058 470.326 517.412 470.46 517.753 470.665C518.098 470.869 518.384 471.178 518.611 471.591C518.838 472.004 518.952 472.557 518.952 473.25V479H517.611V477.818H517.543C517.452 478.008 517.3 478.21 517.088 478.426C516.876 478.642 516.594 478.826 516.241 478.977C515.889 479.129 515.459 479.205 514.952 479.205ZM515.156 478C515.687 478 516.134 477.896 516.497 477.688C516.865 477.479 517.141 477.21 517.327 476.881C517.516 476.551 517.611 476.205 517.611 475.841V474.614C517.554 474.682 517.429 474.744 517.236 474.801C517.046 474.854 516.827 474.902 516.577 474.943C516.33 474.981 516.09 475.015 515.855 475.045C515.624 475.072 515.437 475.095 515.293 475.114C514.944 475.159 514.618 475.233 514.315 475.335C514.016 475.434 513.774 475.583 513.588 475.784C513.406 475.981 513.315 476.25 513.315 476.591C513.315 477.057 513.488 477.409 513.832 477.648C514.181 477.883 514.622 478 515.156 478ZM527.581 472.227L526.376 472.568C526.301 472.367 526.189 472.172 526.041 471.983C525.897 471.79 525.7 471.631 525.45 471.506C525.2 471.381 524.88 471.318 524.49 471.318C523.956 471.318 523.511 471.441 523.155 471.688C522.803 471.93 522.626 472.239 522.626 472.614C522.626 472.947 522.748 473.21 522.99 473.403C523.232 473.597 523.611 473.758 524.126 473.886L525.422 474.205C526.202 474.394 526.784 474.684 527.166 475.074C527.549 475.46 527.74 475.958 527.74 476.568C527.74 477.068 527.596 477.515 527.308 477.909C527.024 478.303 526.626 478.614 526.115 478.841C525.604 479.068 525.009 479.182 524.331 479.182C523.441 479.182 522.704 478.989 522.121 478.602C521.537 478.216 521.168 477.652 521.013 476.909L522.286 476.591C522.407 477.061 522.636 477.413 522.973 477.648C523.314 477.883 523.759 478 524.308 478C524.933 478 525.429 477.867 525.797 477.602C526.168 477.333 526.354 477.011 526.354 476.636C526.354 476.333 526.248 476.08 526.036 475.875C525.823 475.667 525.498 475.511 525.058 475.409L523.604 475.068C522.804 474.879 522.217 474.585 521.842 474.188C521.471 473.786 521.286 473.284 521.286 472.682C521.286 472.189 521.424 471.754 521.7 471.375C521.981 470.996 522.361 470.699 522.842 470.483C523.327 470.267 523.876 470.159 524.49 470.159C525.354 470.159 526.032 470.348 526.524 470.727C527.02 471.106 527.373 471.606 527.581 472.227ZM535.94 472.227L534.736 472.568C534.66 472.367 534.548 472.172 534.401 471.983C534.257 471.79 534.06 471.631 533.81 471.506C533.56 471.381 533.24 471.318 532.849 471.318C532.315 471.318 531.87 471.441 531.514 471.688C531.162 471.93 530.986 472.239 530.986 472.614C530.986 472.947 531.107 473.21 531.349 473.403C531.592 473.597 531.971 473.758 532.486 473.886L533.781 474.205C534.562 474.394 535.143 474.684 535.526 475.074C535.908 475.46 536.099 475.958 536.099 476.568C536.099 477.068 535.955 477.515 535.668 477.909C535.384 478.303 534.986 478.614 534.474 478.841C533.963 479.068 533.368 479.182 532.69 479.182C531.8 479.182 531.063 478.989 530.48 478.602C529.897 478.216 529.527 477.652 529.372 476.909L530.645 476.591C530.766 477.061 530.995 477.413 531.332 477.648C531.673 477.883 532.118 478 532.668 478C533.293 478 533.789 477.867 534.156 477.602C534.527 477.333 534.713 477.011 534.713 476.636C534.713 476.333 534.607 476.08 534.395 475.875C534.183 475.667 533.857 475.511 533.418 475.409L531.963 475.068C531.164 474.879 530.577 474.585 530.202 474.188C529.83 473.786 529.645 473.284 529.645 472.682C529.645 472.189 529.783 471.754 530.06 471.375C530.34 470.996 530.721 470.699 531.202 470.483C531.687 470.267 532.236 470.159 532.849 470.159C533.713 470.159 534.391 470.348 534.884 470.727C535.38 471.106 535.732 471.606 535.94 472.227ZM540.095 479L537.436 470.273H538.845L540.732 476.955H540.822L542.686 470.273H544.118L545.959 476.932H546.05L547.936 470.273H549.345L546.686 479H545.368L543.459 472.295H543.322L541.413 479H540.095ZM554.366 479.182C553.579 479.182 552.887 478.994 552.293 478.619C551.702 478.244 551.24 477.72 550.906 477.045C550.577 476.371 550.412 475.583 550.412 474.682C550.412 473.773 550.577 472.979 550.906 472.301C551.24 471.623 551.702 471.097 552.293 470.722C552.887 470.347 553.579 470.159 554.366 470.159C555.154 470.159 555.844 470.347 556.435 470.722C557.029 471.097 557.491 471.623 557.821 472.301C558.154 472.979 558.321 473.773 558.321 474.682C558.321 475.583 558.154 476.371 557.821 477.045C557.491 477.72 557.029 478.244 556.435 478.619C555.844 478.994 555.154 479.182 554.366 479.182ZM554.366 477.977C554.965 477.977 555.457 477.824 555.844 477.517C556.23 477.21 556.516 476.807 556.702 476.307C556.887 475.807 556.98 475.265 556.98 474.682C556.98 474.098 556.887 473.555 556.702 473.051C556.516 472.547 556.23 472.14 555.844 471.83C555.457 471.519 554.965 471.364 554.366 471.364C553.768 471.364 553.276 471.519 552.889 471.83C552.503 472.14 552.217 472.547 552.031 473.051C551.846 473.555 551.753 474.098 551.753 474.682C551.753 475.265 551.846 475.807 552.031 476.307C552.217 476.807 552.503 477.21 552.889 477.517C553.276 477.824 553.768 477.977 554.366 477.977ZM560.368 479V470.273H561.663V471.591H561.754C561.913 471.159 562.201 470.809 562.618 470.54C563.035 470.271 563.504 470.136 564.027 470.136C564.125 470.136 564.249 470.138 564.396 470.142C564.544 470.146 564.656 470.152 564.732 470.159V471.523C564.686 471.511 564.582 471.494 564.419 471.472C564.26 471.445 564.091 471.432 563.913 471.432C563.489 471.432 563.11 471.521 562.777 471.699C562.447 471.873 562.186 472.116 561.993 472.426C561.804 472.733 561.709 473.083 561.709 473.477V479H560.368ZM569.351 479.182C568.624 479.182 567.982 478.998 567.425 478.631C566.868 478.259 566.432 477.737 566.118 477.062C565.804 476.384 565.646 475.583 565.646 474.659C565.646 473.742 565.804 472.947 566.118 472.273C566.432 471.598 566.87 471.078 567.43 470.71C567.991 470.343 568.639 470.159 569.374 470.159C569.942 470.159 570.391 470.254 570.72 470.443C571.054 470.629 571.307 470.841 571.482 471.08C571.66 471.314 571.798 471.508 571.896 471.659H572.01V467.364H573.351V479H572.055V477.659H571.896C571.798 477.818 571.658 478.019 571.476 478.261C571.294 478.5 571.035 478.714 570.697 478.903C570.36 479.089 569.911 479.182 569.351 479.182ZM569.533 477.977C570.071 477.977 570.525 477.837 570.896 477.557C571.268 477.273 571.55 476.881 571.743 476.381C571.936 475.877 572.033 475.295 572.033 474.636C572.033 473.985 571.938 473.415 571.749 472.926C571.559 472.434 571.279 472.051 570.908 471.778C570.536 471.502 570.078 471.364 569.533 471.364C568.964 471.364 568.491 471.509 568.112 471.801C567.737 472.089 567.455 472.481 567.266 472.977C567.08 473.47 566.987 474.023 566.987 474.636C566.987 475.258 567.082 475.822 567.271 476.33C567.464 476.833 567.749 477.235 568.124 477.534C568.502 477.83 568.972 477.977 569.533 477.977Z" fill="#6B7280"/>
<path d="M502.886 669H501.409L505.682 657.364H507.136L511.409 669H509.932L506.455 659.205H506.364L502.886 669ZM503.432 664.455H509.386V665.705H503.432V664.455ZM514.381 657.364V669H513.04V657.364H514.381ZM516.837 669V660.273H518.132V661.591H518.223C518.382 661.159 518.67 660.809 519.087 660.54C519.503 660.271 519.973 660.136 520.496 660.136C520.594 660.136 520.717 660.138 520.865 660.142C521.013 660.146 521.125 660.152 521.2 660.159V661.523C521.155 661.511 521.051 661.494 520.888 661.472C520.729 661.445 520.56 661.432 520.382 661.432C519.958 661.432 519.579 661.521 519.246 661.699C518.916 661.873 518.655 662.116 518.462 662.426C518.272 662.733 518.178 663.083 518.178 663.477V669H516.837ZM526.183 669.182C525.342 669.182 524.617 668.996 524.007 668.625C523.401 668.25 522.933 667.727 522.604 667.057C522.278 666.383 522.115 665.598 522.115 664.705C522.115 663.811 522.278 663.023 522.604 662.341C522.933 661.655 523.392 661.121 523.979 660.739C524.57 660.352 525.259 660.159 526.047 660.159C526.501 660.159 526.95 660.235 527.393 660.386C527.837 660.538 528.24 660.784 528.604 661.125C528.967 661.462 529.257 661.909 529.473 662.466C529.689 663.023 529.797 663.708 529.797 664.523V665.091H523.07V663.932H528.433C528.433 663.439 528.335 663 528.138 662.614C527.945 662.227 527.668 661.922 527.308 661.699C526.952 661.475 526.532 661.364 526.047 661.364C525.513 661.364 525.051 661.496 524.661 661.761C524.274 662.023 523.977 662.364 523.768 662.784C523.56 663.205 523.456 663.655 523.456 664.136V664.909C523.456 665.568 523.57 666.127 523.797 666.585C524.028 667.04 524.348 667.386 524.757 667.625C525.166 667.86 525.642 667.977 526.183 667.977C526.536 667.977 526.854 667.928 527.138 667.83C527.426 667.727 527.674 667.576 527.882 667.375C528.09 667.17 528.251 666.917 528.365 666.614L529.661 666.977C529.524 667.417 529.295 667.803 528.973 668.136C528.651 668.466 528.253 668.723 527.78 668.909C527.306 669.091 526.774 669.182 526.183 669.182ZM534.405 669.205C533.852 669.205 533.35 669.1 532.899 668.892C532.448 668.68 532.09 668.375 531.825 667.977C531.56 667.576 531.428 667.091 531.428 666.523C531.428 666.023 531.526 665.617 531.723 665.307C531.92 664.992 532.183 664.746 532.513 664.568C532.842 664.39 533.206 664.258 533.604 664.17C534.005 664.08 534.409 664.008 534.814 663.955C535.344 663.886 535.774 663.835 536.104 663.801C536.437 663.763 536.679 663.701 536.831 663.614C536.986 663.527 537.064 663.375 537.064 663.159V663.114C537.064 662.553 536.911 662.117 536.604 661.807C536.301 661.496 535.84 661.341 535.223 661.341C534.583 661.341 534.081 661.481 533.717 661.761C533.354 662.042 533.098 662.341 532.95 662.659L531.678 662.205C531.905 661.674 532.208 661.261 532.587 660.966C532.969 660.667 533.386 660.458 533.837 660.341C534.291 660.22 534.738 660.159 535.178 660.159C535.458 660.159 535.78 660.193 536.143 660.261C536.511 660.326 536.865 660.46 537.206 660.665C537.551 660.869 537.837 661.178 538.064 661.591C538.291 662.004 538.405 662.557 538.405 663.25V669H537.064V667.818H536.996C536.905 668.008 536.753 668.21 536.541 668.426C536.329 668.642 536.047 668.826 535.695 668.977C535.342 669.129 534.912 669.205 534.405 669.205ZM534.609 668C535.14 668 535.587 667.896 535.95 667.688C536.318 667.479 536.594 667.21 536.78 666.881C536.969 666.551 537.064 666.205 537.064 665.841V664.614C537.007 664.682 536.882 664.744 536.689 664.801C536.5 664.854 536.28 664.902 536.03 664.943C535.784 664.981 535.543 665.015 535.308 665.045C535.077 665.072 534.89 665.095 534.746 665.114C534.397 665.159 534.071 665.233 533.768 665.335C533.469 665.434 533.227 665.583 533.041 665.784C532.859 665.981 532.768 666.25 532.768 666.591C532.768 667.057 532.941 667.409 533.286 667.648C533.634 667.883 534.075 668 534.609 668ZM544.148 669.182C543.42 669.182 542.778 668.998 542.222 668.631C541.665 668.259 541.229 667.737 540.915 667.062C540.6 666.384 540.443 665.583 540.443 664.659C540.443 663.742 540.6 662.947 540.915 662.273C541.229 661.598 541.667 661.078 542.227 660.71C542.788 660.343 543.436 660.159 544.17 660.159C544.739 660.159 545.188 660.254 545.517 660.443C545.85 660.629 546.104 660.841 546.278 661.08C546.456 661.314 546.595 661.508 546.693 661.659H546.807V657.364H548.148V669H546.852V667.659H546.693C546.595 667.818 546.455 668.019 546.273 668.261C546.091 668.5 545.831 668.714 545.494 668.903C545.157 669.089 544.708 669.182 544.148 669.182ZM544.33 667.977C544.867 667.977 545.322 667.837 545.693 667.557C546.064 667.273 546.347 666.881 546.54 666.381C546.733 665.877 546.83 665.295 546.83 664.636C546.83 663.985 546.735 663.415 546.545 662.926C546.356 662.434 546.076 662.051 545.705 661.778C545.333 661.502 544.875 661.364 544.33 661.364C543.761 661.364 543.288 661.509 542.909 661.801C542.534 662.089 542.252 662.481 542.062 662.977C541.877 663.47 541.784 664.023 541.784 664.636C541.784 665.258 541.879 665.822 542.068 666.33C542.261 666.833 542.545 667.235 542.92 667.534C543.299 667.83 543.769 667.977 544.33 667.977ZM551.653 672.273C551.426 672.273 551.223 672.254 551.045 672.216C550.867 672.182 550.744 672.148 550.676 672.114L551.017 670.932C551.343 671.015 551.631 671.045 551.881 671.023C552.131 671 552.352 670.888 552.545 670.688C552.742 670.491 552.922 670.17 553.085 669.727L553.335 669.045L550.108 660.273H551.562L553.972 667.227H554.062L556.472 660.273H557.926L554.222 670.273C554.055 670.723 553.848 671.097 553.602 671.392C553.356 671.691 553.07 671.913 552.744 672.057C552.422 672.201 552.059 672.273 551.653 672.273ZM564.196 669V660.273H565.491V661.591H565.582C565.741 661.159 566.029 660.809 566.446 660.54C566.863 660.271 567.332 660.136 567.855 660.136C567.954 660.136 568.077 660.138 568.224 660.142C568.372 660.146 568.484 660.152 568.56 660.159V661.523C568.514 661.511 568.41 661.494 568.247 661.472C568.088 661.445 567.92 661.432 567.741 661.432C567.317 661.432 566.938 661.521 566.605 661.699C566.276 661.873 566.014 662.116 565.821 662.426C565.632 662.733 565.537 663.083 565.537 663.477V669H564.196ZM573.543 669.182C572.702 669.182 571.976 668.996 571.366 668.625C570.76 668.25 570.293 667.727 569.963 667.057C569.637 666.383 569.474 665.598 569.474 664.705C569.474 663.811 569.637 663.023 569.963 662.341C570.293 661.655 570.751 661.121 571.338 660.739C571.929 660.352 572.618 660.159 573.406 660.159C573.861 660.159 574.31 660.235 574.753 660.386C575.196 660.538 575.599 660.784 575.963 661.125C576.327 661.462 576.616 661.909 576.832 662.466C577.048 663.023 577.156 663.708 577.156 664.523V665.091H570.429V663.932H575.793C575.793 663.439 575.694 663 575.497 662.614C575.304 662.227 575.027 661.922 574.668 661.699C574.312 661.475 573.891 661.364 573.406 661.364C572.872 661.364 572.41 661.496 572.02 661.761C571.634 662.023 571.336 662.364 571.128 662.784C570.92 663.205 570.815 663.655 570.815 664.136V664.909C570.815 665.568 570.929 666.127 571.156 666.585C571.387 667.04 571.707 667.386 572.116 667.625C572.526 667.86 573.001 667.977 573.543 667.977C573.895 667.977 574.213 667.928 574.497 667.83C574.785 667.727 575.033 667.576 575.241 667.375C575.45 667.17 575.611 666.917 575.724 666.614L577.02 666.977C576.884 667.417 576.654 667.803 576.332 668.136C576.01 668.466 575.613 668.723 575.139 668.909C574.666 669.091 574.134 669.182 573.543 669.182ZM582.719 672.455C582.071 672.455 581.514 672.371 581.048 672.205C580.582 672.042 580.194 671.826 579.884 671.557C579.577 671.292 579.332 671.008 579.151 670.705L580.219 669.955C580.34 670.114 580.493 670.295 580.679 670.5C580.865 670.708 581.118 670.888 581.44 671.04C581.766 671.195 582.192 671.273 582.719 671.273C583.423 671.273 584.005 671.102 584.463 670.761C584.921 670.42 585.151 669.886 585.151 669.159V667.386H585.037C584.938 667.545 584.798 667.742 584.616 667.977C584.438 668.208 584.181 668.415 583.844 668.597C583.51 668.775 583.06 668.864 582.491 668.864C581.787 668.864 581.154 668.697 580.594 668.364C580.037 668.03 579.596 667.545 579.27 666.909C578.948 666.273 578.787 665.5 578.787 664.591C578.787 663.697 578.944 662.919 579.259 662.256C579.573 661.589 580.01 661.074 580.571 660.71C581.132 660.343 581.779 660.159 582.514 660.159C583.082 660.159 583.533 660.254 583.866 660.443C584.204 660.629 584.461 660.841 584.639 661.08C584.821 661.314 584.961 661.508 585.06 661.659H585.196V660.273H586.491V669.25C586.491 670 586.321 670.61 585.98 671.08C585.643 671.553 585.188 671.9 584.616 672.119C584.048 672.343 583.416 672.455 582.719 672.455ZM582.673 667.659C583.211 667.659 583.666 667.536 584.037 667.29C584.408 667.044 584.69 666.689 584.884 666.227C585.077 665.765 585.173 665.212 585.173 664.568C585.173 663.939 585.079 663.384 584.889 662.903C584.7 662.422 584.42 662.045 584.048 661.773C583.677 661.5 583.219 661.364 582.673 661.364C582.105 661.364 581.632 661.508 581.253 661.795C580.878 662.083 580.596 662.47 580.406 662.955C580.221 663.439 580.128 663.977 580.128 664.568C580.128 665.174 580.223 665.71 580.412 666.176C580.605 666.638 580.889 667.002 581.264 667.267C581.643 667.528 582.113 667.659 582.673 667.659ZM588.946 669V660.273H590.287V669H588.946ZM589.628 658.818C589.366 658.818 589.141 658.729 588.952 658.551C588.766 658.373 588.673 658.159 588.673 657.909C588.673 657.659 588.766 657.445 588.952 657.267C589.141 657.089 589.366 657 589.628 657C589.889 657 590.113 657.089 590.298 657.267C590.488 657.445 590.582 657.659 590.582 657.909C590.582 658.159 590.488 658.373 590.298 658.551C590.113 658.729 589.889 658.818 589.628 658.818ZM598.925 662.227L597.72 662.568C597.644 662.367 597.533 662.172 597.385 661.983C597.241 661.79 597.044 661.631 596.794 661.506C596.544 661.381 596.224 661.318 595.834 661.318C595.3 661.318 594.855 661.441 594.499 661.688C594.146 661.93 593.97 662.239 593.97 662.614C593.97 662.947 594.091 663.21 594.334 663.403C594.576 663.597 594.955 663.758 595.47 663.886L596.766 664.205C597.546 664.394 598.127 664.684 598.51 665.074C598.893 665.46 599.084 665.958 599.084 666.568C599.084 667.068 598.94 667.515 598.652 667.909C598.368 668.303 597.97 668.614 597.459 668.841C596.947 669.068 596.353 669.182 595.675 669.182C594.785 669.182 594.048 668.989 593.464 668.602C592.881 668.216 592.512 667.652 592.357 666.909L593.629 666.591C593.75 667.061 593.98 667.413 594.317 667.648C594.658 667.883 595.103 668 595.652 668C596.277 668 596.773 667.867 597.141 667.602C597.512 667.333 597.697 667.011 597.697 666.636C597.697 666.333 597.591 666.08 597.379 665.875C597.167 665.667 596.841 665.511 596.402 665.409L594.947 665.068C594.148 664.879 593.561 664.585 593.186 664.188C592.815 663.786 592.629 663.284 592.629 662.682C592.629 662.189 592.768 661.754 593.044 661.375C593.324 660.996 593.705 660.699 594.186 660.483C594.671 660.267 595.22 660.159 595.834 660.159C596.697 660.159 597.375 660.348 597.868 660.727C598.364 661.106 598.716 661.606 598.925 662.227ZM604.898 660.273V661.409H600.375V660.273H604.898ZM601.693 658.182H603.034V666.5C603.034 666.879 603.089 667.163 603.199 667.352C603.313 667.538 603.456 667.663 603.631 667.727C603.809 667.788 603.996 667.818 604.193 667.818C604.341 667.818 604.462 667.811 604.557 667.795C604.652 667.777 604.727 667.761 604.784 667.75L605.057 668.955C604.966 668.989 604.839 669.023 604.676 669.057C604.513 669.095 604.307 669.114 604.057 669.114C603.678 669.114 603.307 669.032 602.943 668.869C602.583 668.706 602.284 668.458 602.045 668.125C601.811 667.792 601.693 667.371 601.693 666.864V658.182ZM610.48 669.182C609.639 669.182 608.914 668.996 608.304 668.625C607.698 668.25 607.23 667.727 606.901 667.057C606.575 666.383 606.412 665.598 606.412 664.705C606.412 663.811 606.575 663.023 606.901 662.341C607.23 661.655 607.688 661.121 608.276 660.739C608.866 660.352 609.556 660.159 610.344 660.159C610.798 660.159 611.247 660.235 611.69 660.386C612.134 660.538 612.537 660.784 612.901 661.125C613.264 661.462 613.554 661.909 613.77 662.466C613.986 663.023 614.094 663.708 614.094 664.523V665.091H607.366V663.932H612.73C612.73 663.439 612.632 663 612.435 662.614C612.241 662.227 611.965 661.922 611.605 661.699C611.249 661.475 610.829 661.364 610.344 661.364C609.81 661.364 609.348 661.496 608.957 661.761C608.571 662.023 608.274 662.364 608.065 662.784C607.857 663.205 607.753 663.655 607.753 664.136V664.909C607.753 665.568 607.866 666.127 608.094 666.585C608.325 667.04 608.645 667.386 609.054 667.625C609.463 667.86 609.938 667.977 610.48 667.977C610.832 667.977 611.151 667.928 611.435 667.83C611.723 667.727 611.971 667.576 612.179 667.375C612.387 667.17 612.548 666.917 612.662 666.614L613.957 666.977C613.821 667.417 613.592 667.803 613.27 668.136C612.948 668.466 612.55 668.723 612.077 668.909C611.603 669.091 611.071 669.182 610.48 669.182ZM616.134 669V660.273H617.429V661.591H617.52C617.679 661.159 617.967 660.809 618.384 660.54C618.8 660.271 619.27 660.136 619.793 660.136C619.891 660.136 620.014 660.138 620.162 660.142C620.31 660.146 620.421 660.152 620.497 660.159V661.523C620.452 661.511 620.348 661.494 620.185 661.472C620.026 661.445 619.857 661.432 619.679 661.432C619.255 661.432 618.876 661.521 618.543 661.699C618.213 661.873 617.952 662.116 617.759 662.426C617.569 662.733 617.474 663.083 617.474 663.477V669H616.134ZM623.837 665.727V665.659C623.844 664.936 623.92 664.36 624.064 663.932C624.208 663.504 624.412 663.157 624.678 662.892C624.943 662.627 625.261 662.383 625.632 662.159C625.856 662.023 626.056 661.862 626.234 661.676C626.412 661.487 626.553 661.269 626.655 661.023C626.761 660.777 626.814 660.504 626.814 660.205C626.814 659.833 626.727 659.511 626.553 659.239C626.378 658.966 626.145 658.756 625.854 658.608C625.562 658.46 625.238 658.386 624.882 658.386C624.571 658.386 624.272 658.451 623.984 658.58C623.696 658.708 623.456 658.911 623.263 659.188C623.07 659.464 622.958 659.826 622.928 660.273H621.496C621.526 659.629 621.693 659.078 621.996 658.619C622.303 658.161 622.706 657.811 623.206 657.568C623.71 657.326 624.268 657.205 624.882 657.205C625.549 657.205 626.128 657.337 626.621 657.602C627.117 657.867 627.5 658.231 627.768 658.693C628.041 659.155 628.178 659.682 628.178 660.273C628.178 660.689 628.113 661.066 627.984 661.403C627.859 661.741 627.678 662.042 627.439 662.307C627.204 662.572 626.92 662.807 626.587 663.011C626.253 663.22 625.986 663.439 625.786 663.67C625.585 663.898 625.439 664.169 625.348 664.483C625.257 664.797 625.208 665.189 625.2 665.659V665.727H623.837ZM624.564 669.091C624.284 669.091 624.043 668.991 623.842 668.79C623.642 668.589 623.541 668.348 623.541 668.068C623.541 667.788 623.642 667.547 623.842 667.347C624.043 667.146 624.284 667.045 624.564 667.045C624.844 667.045 625.085 667.146 625.286 667.347C625.486 667.547 625.587 667.788 625.587 668.068C625.587 668.254 625.539 668.424 625.445 668.58C625.354 668.735 625.231 668.86 625.075 668.955C624.924 669.045 624.753 669.091 624.564 669.091Z" fill="#6B7280"/>
<path d="M633.409 669V657.364H634.818V667.75H640.227V669H633.409ZM645.773 669.182C644.985 669.182 644.294 668.994 643.699 668.619C643.108 668.244 642.646 667.72 642.312 667.045C641.983 666.371 641.818 665.583 641.818 664.682C641.818 663.773 641.983 662.979 642.312 662.301C642.646 661.623 643.108 661.097 643.699 660.722C644.294 660.347 644.985 660.159 645.773 660.159C646.561 660.159 647.25 660.347 647.841 660.722C648.436 661.097 648.898 661.623 649.227 662.301C649.561 662.979 649.727 663.773 649.727 664.682C649.727 665.583 649.561 666.371 649.227 667.045C648.898 667.72 648.436 668.244 647.841 668.619C647.25 668.994 646.561 669.182 645.773 669.182ZM645.773 667.977C646.371 667.977 646.864 667.824 647.25 667.517C647.636 667.21 647.922 666.807 648.108 666.307C648.294 665.807 648.386 665.265 648.386 664.682C648.386 664.098 648.294 663.555 648.108 663.051C647.922 662.547 647.636 662.14 647.25 661.83C646.864 661.519 646.371 661.364 645.773 661.364C645.174 661.364 644.682 661.519 644.295 661.83C643.909 662.14 643.623 662.547 643.438 663.051C643.252 663.555 643.159 664.098 643.159 664.682C643.159 665.265 643.252 665.807 643.438 666.307C643.623 666.807 643.909 667.21 644.295 667.517C644.682 667.824 645.174 667.977 645.773 667.977ZM655.297 672.455C654.649 672.455 654.092 672.371 653.626 672.205C653.161 672.042 652.772 671.826 652.462 671.557C652.155 671.292 651.911 671.008 651.729 670.705L652.797 669.955C652.918 670.114 653.071 670.295 653.257 670.5C653.443 670.708 653.696 670.888 654.018 671.04C654.344 671.195 654.77 671.273 655.297 671.273C656.001 671.273 656.583 671.102 657.041 670.761C657.5 670.42 657.729 669.886 657.729 669.159V667.386H657.615C657.517 667.545 657.376 667.742 657.195 667.977C657.017 668.208 656.759 668.415 656.422 668.597C656.089 668.775 655.638 668.864 655.07 668.864C654.365 668.864 653.732 668.697 653.172 668.364C652.615 668.03 652.174 667.545 651.848 666.909C651.526 666.273 651.365 665.5 651.365 664.591C651.365 663.697 651.522 662.919 651.837 662.256C652.151 661.589 652.589 661.074 653.149 660.71C653.71 660.343 654.357 660.159 655.092 660.159C655.661 660.159 656.111 660.254 656.445 660.443C656.782 660.629 657.039 660.841 657.217 661.08C657.399 661.314 657.539 661.508 657.638 661.659H657.774V660.273H659.07V669.25C659.07 670 658.899 670.61 658.558 671.08C658.221 671.553 657.767 671.9 657.195 672.119C656.626 672.343 655.994 672.455 655.297 672.455ZM655.251 667.659C655.789 667.659 656.244 667.536 656.615 667.29C656.986 667.044 657.268 666.689 657.462 666.227C657.655 665.765 657.751 665.212 657.751 664.568C657.751 663.939 657.657 663.384 657.467 662.903C657.278 662.422 656.998 662.045 656.626 661.773C656.255 661.5 655.797 661.364 655.251 661.364C654.683 661.364 654.21 661.508 653.831 661.795C653.456 662.083 653.174 662.47 652.984 662.955C652.799 663.439 652.706 663.977 652.706 664.568C652.706 665.174 652.801 665.71 652.99 666.176C653.183 666.638 653.467 667.002 653.842 667.267C654.221 667.528 654.691 667.659 655.251 667.659ZM661.524 669V660.273H662.865V669H661.524ZM662.206 658.818C661.945 658.818 661.719 658.729 661.53 658.551C661.344 658.373 661.251 658.159 661.251 657.909C661.251 657.659 661.344 657.445 661.53 657.267C661.719 657.089 661.945 657 662.206 657C662.467 657 662.691 657.089 662.876 657.267C663.066 657.445 663.161 657.659 663.161 657.909C663.161 658.159 663.066 658.373 662.876 658.551C662.691 658.729 662.467 658.818 662.206 658.818ZM666.662 663.75V669H665.321V660.273H666.616V661.636H666.73C666.935 661.193 667.245 660.837 667.662 660.568C668.079 660.295 668.616 660.159 669.276 660.159C669.866 660.159 670.384 660.28 670.827 660.523C671.27 660.761 671.615 661.125 671.861 661.614C672.107 662.098 672.23 662.712 672.23 663.455V669H670.889V663.545C670.889 662.86 670.711 662.326 670.355 661.943C669.999 661.557 669.51 661.364 668.889 661.364C668.461 661.364 668.079 661.456 667.741 661.642C667.408 661.828 667.145 662.098 666.952 662.455C666.759 662.811 666.662 663.242 666.662 663.75Z" fill="#0EA5E9"/>
</g>
<defs>
<filter id="filter0_d_6_3" x="-16" y="-14" width="1472" height="129" filterUnits="userSpaceOnUse" color-interpolation-filters="sRGB">
<feFlood flood-opacity="0" result="BackgroundImageFix"/>
<feColorMatrix in="SourceAlpha" type="matrix" values="0 0 0 0 0 0 0 0 0 0 0 0 0 0 0 0 0 0 127 0" result="hardAlpha"/>
<feOffset dy="2"/>
<feGaussianBlur stdDeviation="8"/>
<feComposite in2="hardAlpha" operator="out"/>
<feColorMatrix type="matrix" values="0 0 0 0 0.00585458 0 0 0 0 0.0623685 0 0 0 0 0.0878184 0 0 0 0.08 0"/>
<feBlend mode="normal" in2="BackgroundImageFix" result="effect1_dropShadow_6_3"/>
<feBlend mode="normal" in="SourceGraphic" in2="effect1_dropShadow_6_3" result="shape"/>
</filter>
<filter id="filter1_d_6_3" x="-6" y="-6" width="1452" height="109" filterUnits="userSpaceOnUse" color-interpolation-filters="sRGB">
<feFlood flood-opacity="0" result="BackgroundImageFix"/>
<feColorMatrix in="SourceAlpha" type="matrix" values="0 0 0 0 0 0 0 0 0 0 0 0 0 0 0 0 0 0 127 0" result="hardAlpha"/>
<feOffset/>
<feGaussianBlur stdDeviation="3"/>
<feComposite in2="hardAlpha" operator="out"/>
<feColorMatrix type="matrix" values="0 0 0 0 0.00585458 0 0 0 0 0.0623685 0 0 0 0 0.0878184 0 0 0 0.04 0"/>
<feBlend mode="normal" in2="BackgroundImageFix" result="effect1_dropShadow_6_3"/>
<feBlend mode="normal" in="SourceGraphic" in2="effect1_dropShadow_6_3" result="shape"/>
</filter>
<filter id="filter2_d_6_3" x="485" y="568" width="471" height="82" filterUnits="userSpaceOnUse" color-interpolation-filters="sRGB">
<feFlood flood-opacity="0" result="BackgroundImageFix"/>
<feColorMatrix in="SourceAlpha" type="matrix" values="0 0 0 0 0 0 0 0 0 0 0 0 0 0 0 0 0 0 127 0" result="hardAlpha"/>
<feOffset dy="4"/>
<feGaussianBlur stdDeviation="8"/>
<feComposite in2="hardAlpha" operator="out"/>
<feColorMatrix type="matrix" values="0 0 0 0 0.054902 0 0 0 0 0.647059 0 0 0 0 0.913725 0 0 0 0.12 0"/>
<feBlend mode="normal" in2="BackgroundImageFix" result="effect1_dropShadow_6_3"/>
<feBlend mode="normal" in="SourceGraphic" in2="effect1_dropShadow_6_3" result="shape"/>
</filter>
<clipPath id="clip0_6_3">
<rect width="1440" height="793" fill="white"/>
</clipPath>
<clipPath id="clip1_6_3">
<rect x="1304" y="40" width="32" height="16" rx="2" fill="white"/>
</clipPath>
</defs>
</svg>
